<?xml version="1.0" standalone="no"?>
<!DOCTYPE svg PUBLIC "-//W3C//DTD SVG 20010904//EN"
 "http://www.w3.org/TR/2001/REC-SVG-20010904/DTD/svg10.dtd">
<svg version="1.0" xmlns="http://www.w3.org/2000/svg"
 width="940.000000pt" height="939.000000pt" viewBox="0 0 940.000000 939.000000"
 preserveAspectRatio="xMidYMid meet">

<g transform="translate(0.000000,939.000000) scale(0.100000,-0.100000)"
fill="#000000" stroke="none">
<path d="M4370 9289 c-1341 -95 -2574 -776 -3382 -1869 -871 -1179 -1123
-2725 -672 -4130 507 -1582 1841 -2775 3470 -3105 140 -28 364 -61 479 -70 44
-4 96 -8 115 -11 76 -8 582 -4 700 6 496 42 969 159 1416 350 535 229 1010
547 1423 953 666 656 1109 1470 1291 2375 66 326 85 543 84 927 -1 346 -16
520 -69 810 -223 1223 -936 2306 -1976 3002 -759 509 -1660 778 -2579 771
-102 0 -237 -5 -300 -9z m659 -409 c72 -12 155 -50 190 -89 85 -91 93 -272 16
-388 -49 -74 -118 -105 -244 -111 -167 -8 -290 30 -352 108 -57 71 -73 223
-33 319 57 136 212 195 423 161z m-649 -75 c65 -36 103 -88 125 -171 46 -179
-26 -320 -189 -369 -206 -62 -369 -33 -443 78 -42 63 -57 115 -57 202 -1 191
153 299 414 292 84 -2 102 -6 150 -32z m1160 2 c353 -79 486 -110 492 -115 4
-4 -4 -52 -18 -107 -34 -130 -94 -408 -90 -412 2 -2 94 89 204 203 l200 208
136 -58 136 -59 -5 -91 c-2 -50 -7 -183 -10 -296 -3 -112 -8 -206 -10 -208 -2
-3 -45 11 -95 29 l-91 34 3 59 3 59 -115 49 -115 49 -38 -41 c-21 -22 -44 -40
-53 -40 -8 0 -43 13 -78 29 -36 16 -108 39 -161 51 l-97 22 4 32 c3 17 22 106
43 199 21 92 36 170 32 173 -7 7 -213 54 -237 54 -18 0 -35 -61 -86 -305 -10
-44 -20 -83 -23 -86 -3 -3 -45 4 -92 15 l-86 21 38 155 c21 85 48 211 61 278
l23 124 30 -6 c17 -3 59 -11 95 -19z m-1906 -171 c125 -73 184 -287 112 -410
-58 -98 -242 -186 -392 -186 -131 0 -218 68 -263 208 -53 160 1 278 164 358
100 48 167 64 256 61 61 -3 85 -9 123 -31z m2437 -717 c124 -45 530 -183 839
-286 405 -135 695 -183 1103 -183 115 0 147 -3 147 -13 0 -8 -13 -60 -29 -118
-16 -57 -52 -194 -80 -304 -29 -110 -67 -249 -86 -310 -18 -60 -38 -128 -44
-150 -16 -62 -55 -363 -55 -432 -1 -35 -4 -63 -8 -63 -4 0 -17 14 -30 30 -32
44 -39 37 -17 -20 20 -53 25 -120 9 -120 -5 0 -21 20 -36 45 -44 75 -49 61
-18 -49 15 -54 18 -96 7 -96 -5 0 -28 30 -53 67 -24 36 -46 60 -48 54 -2 -7
10 -45 28 -86 17 -40 30 -83 28 -96 -3 -21 -8 -17 -51 39 -27 34 -49 62 -51
62 -1 0 8 -42 20 -92 13 -51 24 -94 24 -95 0 -2 -4 -3 -9 -3 -5 0 -17 21 -27
46 l-18 46 -16 -58 c-18 -66 -44 -117 -91 -184 -31 -45 -31 -43 2 41 58 148
19 321 -100 439 -56 55 -123 97 -129 80 -5 -13 12 -41 66 -112 74 -98 95 -155
100 -273 4 -116 -16 -249 -48 -319 -29 -60 -179 -229 -224 -250 -51 -24 -87
-29 -121 -15 -16 6 -54 11 -82 10 -29 -2 -79 5 -110 15 -64 20 -254 25 -353
10 -46 -7 -64 -4 -110 14 -49 19 -133 77 -152 105 -5 7 -8 7 -8 0 0 -6 11 -27
25 -48 14 -20 23 -37 19 -37 -18 0 -111 80 -155 132 -27 32 -49 56 -49 52 0
-8 81 -131 123 -186 76 -100 -70 9 -158 118 -26 32 -50 61 -53 64 -2 3 8 -19
23 -49 14 -29 65 -95 111 -147 98 -108 99 -127 2 -26 -166 173 -273 379 -332
645 -71 317 -74 479 -17 937 54 434 167 1210 176 1210 1 0 53 -18 116 -41z
m-1821 -1425 c9 -3 -10 -18 -48 -39 -104 -55 -208 -140 -375 -304 -178 -174
-185 -172 -62 24 36 57 65 109 65 114 0 51 -109 -84 -189 -234 -75 -140 -336
-661 -369 -735 -142 -319 -358 -890 -442 -1167 -17 -57 -34 -103 -37 -103 -37
0 155 572 419 1243 27 71 47 131 44 134 -3 4 -18 -4 -32 -18 l-25 -24 21 49
c11 27 38 70 59 95 63 76 124 176 217 361 108 212 103 201 67 167 -59 -55
-147 -187 -237 -354 -84 -158 -123 -219 -133 -209 -2 2 14 52 37 111 22 60 38
110 36 112 -3 3 -57 -77 -105 -159 -12 -21 -38 -75 -57 -120 -20 -48 -32 -68
-28 -48 l7 35 -38 -45 c-108 -128 -270 -406 -343 -591 -60 -152 -122 -404
-137 -559 -3 -36 -9 -81 -12 -100 -6 -33 -6 -34 -13 -10 -4 14 -6 36 -4 50 38
279 62 383 134 595 63 183 137 328 257 502 60 87 157 235 215 328 136 216 194
300 299 427 144 174 320 315 520 415 134 67 211 82 289 57z m-452 -14 c17 -11
32 -22 32 -25 0 -3 -33 -3 -73 1 -66 6 -106 0 -162 -22 -18 -7 -19 -6 -6 10
44 53 150 72 209 36z m691 -4 c-2 -2 -56 -23 -119 -46 -63 -23 -143 -52 -177
-65 -35 -13 -63 -20 -63 -16 0 19 130 93 205 117 36 11 164 20 154 10z m-794
-91 c6 -1 -3 -8 -19 -14 -22 -9 -42 -9 -83 0 -30 7 -49 15 -43 19 9 6 122 2
145 -5z m820 7 c-6 -5 -30 -17 -55 -26 -69 -27 -158 -78 -256 -147 -238 -170
-401 -325 -582 -556 -55 -71 -123 -153 -150 -183 l-51 -55 10 40 c17 63 82
193 136 273 206 300 553 573 818 642 74 20 146 26 130 12z m480 -52 c50 -25
78 -56 90 -99 7 -23 4 -22 -35 12 -69 59 -137 80 -257 81 -57 1 -103 2 -103 4
0 2 15 10 33 18 53 24 210 15 272 -16z m-1510 -10 c110 -22 142 -37 50 -24
-159 23 -218 7 -330 -95 -71 -65 -130 -91 -204 -91 -69 0 -121 -18 -158 -55
-37 -37 -43 -27 -13 22 33 55 63 67 175 74 117 6 155 25 226 110 46 54 85 78
131 79 14 0 70 -9 123 -20z m1430 -60 l40 -18 -91 -1 c-126 -1 -185 -14 -284
-63 -47 -23 -94 -46 -105 -50 -23 -9 -24 -10 70 63 73 56 114 78 168 89 57 12
153 2 202 -20z m-618 -132 c-208 -207 -233 -235 -696 -801 -30 -37 -57 -65
-59 -62 -3 3 4 15 15 28 50 55 394 520 389 525 -3 3 -7 3 -9 1 -15 -21 -177
-214 -282 -334 -245 -281 -317 -370 -372 -460 -30 -49 -64 -103 -75 -120 l-20
-30 6 35 c8 46 90 208 135 269 36 47 127 158 325 395 143 171 392 419 534 533
103 82 224 163 245 163 4 0 -56 -64 -136 -142z m-781 89 c12 -12 -2 -18 -78
-33 -49 -11 -110 -35 -186 -75 -63 -32 -116 -59 -118 -59 -14 0 35 55 81 90
82 63 157 91 232 87 34 -1 65 -6 69 -10z m-227 -184 c-118 -82 -279 -173 -326
-185 -37 -10 -26 -28 17 -28 38 0 91 24 243 109 31 18 57 28 57 22 0 -10 -120
-103 -183 -141 -21 -13 -50 -20 -87 -20 -57 0 -330 59 -330 72 0 4 55 7 123 6
146 -2 183 10 322 105 126 85 236 146 264 147 18 0 -9 -23 -100 -87z m1843 73
c143 -31 226 -103 253 -221 5 -23 -2 -17 -33 31 -74 114 -174 163 -369 181
-74 7 -76 8 -33 14 76 10 112 9 182 -5z m-82 -56 c106 -20 220 -92 256 -161
22 -44 17 -43 -39 5 -29 25 -85 60 -123 78 -61 29 -78 32 -154 32 -68 -1 -104
-7 -178 -33 -51 -17 -108 -31 -128 -31 -34 0 -199 58 -190 68 3 2 29 -4 58
-14 89 -29 151 -24 238 18 41 20 84 38 95 41 37 9 112 7 165 -3z m-3 -106 c44
-15 129 -71 120 -80 -2 -2 -27 6 -57 17 -73 28 -182 27 -287 -1 -117 -31 -135
-21 -41 24 122 58 185 67 265 40z m-555 -55 c71 -15 117 -40 180 -95 28 -26
70 -55 92 -65 57 -25 160 -40 223 -32 43 5 53 3 53 -9 0 -20 -131 -43 -204
-35 -65 6 -96 22 -201 98 -103 75 -164 101 -245 107 -62 4 -100 -5 -195 -43
-18 -7 -17 -5 4 18 21 23 73 46 136 60 38 9 104 7 157 -4z m534 -59 c15 -6 25
-12 23 -14 -2 -2 -62 -6 -134 -9 l-130 -6 40 19 c45 22 156 27 201 10z m-545
-46 c15 -7 73 -48 130 -90 56 -42 121 -85 143 -95 34 -16 37 -19 16 -19 -38 0
-102 33 -193 99 -132 96 -186 114 -281 92 -57 -14 -29 9 31 25 52 13 113 9
154 -12z m-1636 -24 c54 -10 100 -22 103 -25 10 -9 -21 -5 -128 20 -128 28
-110 33 25 5z m272 -54 c-9 -13 -33 -34 -54 -47 -33 -21 -50 -24 -138 -24 -72
0 -115 5 -153 19 -29 10 -51 20 -48 23 3 3 40 0 81 -6 95 -16 186 -2 265 38
30 15 57 26 59 25 2 -2 -3 -14 -12 -28z m1166 -11 c68 -18 117 -42 211 -102
37 -25 88 -54 112 -64 62 -28 64 -39 6 -39 -67 0 -117 19 -208 80 -43 28 -103
58 -133 67 -78 23 -183 20 -249 -6 -66 -26 -70 -26 -46 0 61 68 190 95 307 64z
m1067 -102 c19 -5 50 -6 68 -2 38 8 42 -4 7 -27 -46 -30 -124 -2 -159 57 l-19
32 34 -25 c19 -14 50 -30 69 -35z m-1116 3 c25 -8 70 -29 99 -47 89 -57 201
-139 189 -139 -25 0 -115 40 -174 77 -100 63 -145 76 -237 71 -86 -5 -156 -36
-187 -84 -26 -39 -29 -19 -4 21 55 90 198 136 314 101z m939 -30 c10 -21 33
-79 52 -129 18 -51 55 -148 81 -217 45 -121 47 -130 54 -265 7 -155 -3 -122
139 -468 68 -164 77 -220 39 -234 -13 -4 -63 -7 -113 -5 -57 1 -115 -4 -159
-15 -66 -16 -69 -16 -82 2 -16 22 -18 73 -4 109 14 37 -4 33 -35 -9 -47 -61
-46 -164 2 -199 15 -11 57 -23 106 -29 76 -10 80 -12 92 -41 7 -17 15 -45 18
-62 l6 -31 -42 4 c-32 4 -59 -2 -107 -22 -42 -18 -86 -29 -123 -30 -65 -2 -91
-19 -103 -69 l-7 -29 49 7 c27 4 99 9 161 13 122 7 143 0 143 -43 0 -27 -28
-39 -75 -30 -31 6 -35 4 -64 -44 -36 -59 -38 -70 -11 -70 33 0 97 -37 124 -72
37 -50 51 -118 36 -174 -25 -88 -98 -111 -243 -75 -159 38 -493 174 -742 301
-231 118 -564 315 -552 326 2 2 71 -33 153 -77 283 -154 631 -319 844 -401 64
-24 2 12 -220 130 -308 163 -662 366 -723 415 -12 10 59 -22 159 -72 215 -106
405 -193 411 -187 11 11 -254 172 -559 340 -21 12 -38 24 -38 29 0 9 27 -3
205 -88 153 -74 285 -135 291 -135 2 0 4 6 4 13 0 6 -84 61 -185 122 -102 60
-185 113 -185 118 0 13 51 -4 161 -55 58 -26 118 -48 133 -48 21 0 3 16 -94
81 -161 107 -162 125 -4 53 41 -19 79 -34 85 -34 24 0 2 23 -71 74 -44 31 -80
60 -80 65 0 5 26 3 58 -5 31 -7 63 -13 70 -14 24 0 11 20 -29 45 -30 20 -39
32 -37 48 2 17 9 21 28 20 24 -3 25 0 26 50 1 28 6 115 11 192 l10 140 56 122
c32 67 57 126 57 132 0 19 53 72 94 93 22 11 83 63 134 115 120 121 189 171
345 249 70 35 144 75 165 88 48 32 63 29 85 -18z m-2280 7 c74 -3 127 -10 127
-16 0 -14 -193 -2 -260 17 -30 8 -41 13 -25 10 17 -3 87 -8 158 -11z m-338
-106 c-54 -54 -83 -92 -107 -143 -31 -65 -33 -76 -33 -176 0 -114 -12 -113
-22 2 -13 149 68 313 182 373 59 31 54 16 -20 -56z m128 -1 c-115 -85 -169
-174 -181 -304 -8 -75 -8 -76 -16 -34 -11 59 1 130 33 199 37 77 73 118 135
153 79 46 98 37 29 -14z m76 -43 c-24 -21 -59 -54 -77 -73 -32 -35 -92 -145
-92 -171 0 -8 -5 -21 -11 -29 -24 -34 -1 109 24 153 31 52 106 123 150 142 52
23 53 17 6 -22z m160 -10 c0 -5 -37 -39 -81 -77 -121 -105 -166 -185 -168
-301 -1 -37 -2 -38 -12 -15 -5 14 -8 54 -5 90 8 118 81 225 189 280 63 31 79
36 77 23z m1361 -29 c89 -26 85 -37 -11 -29 -152 12 -239 -28 -314 -145 -24
-38 -56 -77 -70 -86 -39 -25 -102 -27 -170 -5 l-60 19 86 -5 85 -6 38 33 c21
18 53 64 72 101 69 138 167 173 344 123z m-1113 -32 c8 -5 -13 -50 -74 -152
-91 -153 -131 -211 -120 -175 52 183 51 181 57 150 l5 -30 17 45 c9 25 20 56
23 70 4 14 17 42 28 63 20 36 39 45 64 29z m1303 -55 c43 -5 -76 -37 -173 -47
-115 -12 -158 -34 -236 -120 -93 -104 -172 -136 -287 -118 -90 14 -97 26 -13
25 115 0 195 43 245 131 69 121 116 140 329 134 60 -1 121 -4 135 -5z m-1433
-79 c-3 -8 -6 -5 -6 6 -1 11 2 17 5 13 3 -3 4 -12 1 -19z m421 -88 c-61 -93
-279 -400 -284 -400 -7 0 45 91 101 180 23 36 56 92 75 124 35 63 109 146 129
146 6 0 -3 -23 -21 -50z m3392 -66 c47 -13 119 -28 160 -34 79 -11 111 -26
134 -63 35 -54 230 -565 234 -612 5 -62 -3 -91 -122 -455 -172 -522 -228 -710
-220 -744 3 -17 51 -109 105 -203 55 -95 99 -178 99 -184 0 -11 -132 -174
-205 -253 -19 -21 -41 -36 -49 -33 -15 6 -157 193 -194 257 -19 31 -21 39 -8
34 26 -10 19 6 -44 100 -32 49 -57 93 -55 96 2 4 36 13 75 20 100 19 90 35
-23 35 -100 0 -140 14 -219 77 -55 44 -46 52 13 12 28 -18 73 -40 101 -49 86
-25 78 -4 -22 61 -70 45 -101 82 -58 70 13 -4 37 -9 53 -12 l30 -5 -30 25
c-16 14 -33 26 -37 26 -5 0 -8 11 -8 25 0 27 -29 90 -62 138 -33 47 -13 41 28
-7 34 -40 94 -77 94 -57 0 6 -34 64 -85 146 -14 23 -7 19 30 -18 45 -44 88
-67 101 -54 3 3 -17 37 -45 76 -28 39 -48 71 -45 71 4 0 29 -13 56 -30 71 -44
90 -36 47 18 l-21 27 31 9 c36 10 36 11 16 60 -19 45 -11 47 11 4 21 -42 18
-40 37 -32 14 5 14 10 -3 50 l-19 44 29 0 c34 0 38 7 14 25 -14 10 -13 14 15
38 35 29 38 37 15 37 -27 0 -4 19 31 26 43 8 45 20 5 29 -38 8 -38 15 0 40 16
11 30 23 30 27 0 4 -23 10 -52 14 -50 7 -51 8 -30 22 12 8 22 18 22 23 0 9
-113 69 -130 69 -27 0 -161 71 -197 104 l-41 36 -20 -33 c-32 -55 -86 -90
-138 -91 -43 -1 -45 -2 -42 -31 3 -27 0 -30 -37 -37 -38 -8 -41 -11 -73 -87
-18 -43 -42 -88 -53 -100 -24 -25 -48 -18 -26 7 27 31 55 96 77 182 38 143 63
180 203 308 66 60 85 72 114 72 22 0 104 -31 225 -85 268 -120 398 -164 398
-136 0 6 -41 42 -91 80 -62 48 -100 71 -119 71 -28 0 -88 25 -260 108 -114 55
-175 61 -227 24 -18 -13 -33 -20 -33 -16 0 14 152 214 170 224 44 24 34 27
500 -170 146 -62 271 -114 278 -117 6 -3 12 1 12 10 0 8 -49 55 -110 106 -87
72 -118 106 -151 161 -24 42 -39 77 -36 88 3 9 12 40 20 68 l15 52 -112 4
c-105 3 -114 5 -180 40 l-68 37 -25 -30 c-29 -34 -73 -58 -151 -84 -33 -10
-77 -37 -116 -70 -62 -53 -246 -154 -246 -135 0 13 109 150 174 218 28 30 71
68 96 85 25 16 85 62 133 100 121 95 140 99 307 51z m-2739 -37 c-103 -151
-264 -186 -441 -96 -95 48 -97 58 -4 26 71 -24 106 -31 174 -31 75 -1 91 2
135 27 28 15 75 49 105 76 30 27 57 47 58 46 2 -2 -10 -24 -27 -48z m-1725
-146 c37 -79 116 -196 136 -204 7 -2 10 -7 6 -11 -10 -12 -45 12 -61 41 -8 16
-35 64 -61 108 -46 80 -87 188 -85 229 0 11 7 -4 15 -34 8 -30 30 -88 50 -129z
m1831 118 c-35 -78 -80 -134 -129 -163 -91 -52 -241 -71 -329 -41 -43 15 -185
112 -177 121 3 2 30 -10 61 -26 81 -44 182 -64 260 -50 88 16 143 48 242 140
48 45 89 79 92 77 2 -3 -7 -29 -20 -58z m-1420 -241 c-3 -8 -6 -5 -6 6 -1 11
2 17 5 13 3 -3 4 -12 1 -19z m701 -106 c79 -93 134 -141 201 -174 56 -28 75
-32 137 -32 57 1 84 6 128 28 67 33 120 92 135 151 6 24 16 56 22 72 10 26 12
27 19 8 35 -84 -26 -206 -126 -256 -55 -27 -72 -31 -150 -31 -126 0 -222 36
-306 114 -38 36 -188 221 -188 232 0 14 82 -57 128 -112z m76 39 c100 -93 181
-140 252 -148 68 -7 114 15 167 83 23 29 45 53 50 53 4 1 7 -15 7 -34 0 -52
-62 -117 -136 -140 -111 -35 -206 0 -331 122 -66 65 -123 143 -103 143 5 0 47
-36 94 -79z m-787 17 c-3 -7 -5 -2 -5 12 0 14 2 19 5 13 2 -7 2 -19 0 -25z
m4088 -15 c-4 -16 -8 -30 -11 -32 -4 -4 -74 47 -74 55 0 2 21 4 46 4 45 0 46
0 39 -27z m-4098 -25 c-3 -8 -6 -5 -6 6 -1 11 2 17 5 13 3 -3 4 -12 1 -19z
m-340 -35 c47 -26 80 -49 75 -51 -17 -5 -84 16 -119 37 -30 19 -62 61 -47 61
4 0 45 -21 91 -47z m983 -49 c34 -47 60 -87 57 -90 -5 -5 -127 159 -127 170 0
15 13 1 70 -80z m-974 -48 c61 -22 65 -25 34 -25 -33 -1 -120 31 -120 44 0 9
14 6 86 -19z m769 -286 c30 -85 93 -170 126 -170 5 0 -8 35 -30 78 -41 80 -65
152 -52 152 5 0 16 -19 27 -42 32 -71 70 -114 125 -142 69 -34 85 -33 123 8
l32 33 24 -85 c26 -94 29 -137 13 -153 -17 -17 -94 -22 -143 -9 -79 20 -222
189 -270 318 -29 76 -37 155 -19 189 13 25 14 22 21 -53 4 -43 14 -99 23 -124z
m-488 148 c-3 -7 -5 -2 -5 12 0 14 2 19 5 13 2 -7 2 -19 0 -25z m-16 -164 c-6
-77 -11 -169 -11 -206 0 -64 -11 -87 -24 -52 -13 33 -6 153 16 276 12 70 24
125 26 124 2 -2 -2 -66 -7 -142z m1154 126 l50 -7 -60 -1 c-33 0 -80 3 -105 7
l-45 8 55 1 c30 0 78 -3 105 -8z m4808 -101 c71 -10 77 -13 77 -35 0 -18 -19
-34 -95 -81 -52 -32 -94 -61 -95 -64 0 -4 26 -10 58 -14 94 -11 102 -14 102
-42 0 -22 -3 -25 -27 -20 -16 3 -72 11 -125 18 -88 12 -98 15 -98 34 0 32 12
44 104 100 96 58 96 57 -16 70 -53 7 -58 9 -58 33 0 28 -13 28 173 1z m-4858
-9 c38 -7 37 -8 -20 -8 -33 -1 -73 5 -90 12 -29 13 -28 13 20 8 28 -2 68 -8
90 -12z m-2828 -34 c88 -96 -11 -233 -143 -196 -57 16 -87 56 -87 116 0 81 56
128 147 120 42 -3 55 -9 83 -40z m2091 -138 c-7 -19 -48 -69 -95 -114 -100
-98 -123 -144 -131 -260 -5 -94 9 -145 59 -201 46 -54 33 -53 -16 0 -55 60
-69 107 -62 214 7 115 34 168 148 292 52 55 97 100 101 101 4 0 2 -15 -4 -32z
m69 -65 c-9 -16 -48 -61 -87 -102 -125 -127 -148 -222 -87 -355 25 -55 26 -58
6 -40 -66 60 -82 177 -37 274 24 51 205 267 215 256 3 -2 -2 -17 -10 -33z
m-2093 -99 c10 -47 16 -87 14 -89 -2 -1 -14 -6 -26 -10 -21 -6 -23 -4 -21 17
1 12 -1 42 -5 65 -7 40 -9 43 -34 37 -36 -9 -35 -6 -22 -54 9 -34 9 -45 -2
-51 -28 -18 -32 -13 -43 54 -5 34 -8 37 -33 31 -15 -4 -30 -8 -34 -10 -8 -5 9
-72 27 -105 14 -26 14 -27 -11 -33 -15 -4 -28 -6 -29 -4 -3 3 -45 175 -45 184
0 2 10 4 23 4 12 1 65 11 117 24 52 13 98 24 101 25 4 1 14 -38 23 -85z m7560
42 c37 -34 40 -34 36 -3 -1 14 4 18 22 15 21 -3 23 -7 20 -52 -1 -27 -4 -52
-7 -54 -9 -10 -69 19 -98 48 -43 42 -90 39 -108 -7 -24 -63 26 -104 97 -79 43
15 94 11 94 -8 0 -6 -3 -28 -6 -48 -5 -31 -11 -38 -30 -38 -32 0 -39 17 -17
42 13 15 14 19 3 15 -90 -35 -126 -33 -166 10 -18 19 -24 37 -24 70 0 79 38
122 107 123 34 0 48 -6 77 -34z m-5465 -83 c-79 -83 -99 -124 -99 -204 0 -44
24 -92 73 -146 30 -34 5 -28 -31 7 -50 47 -66 87 -67 160 0 48 5 74 20 99 19
32 156 161 171 161 4 0 -27 -35 -67 -77z m-352 -25 c-29 -43 -57 -147 -57
-205 0 -34 10 -87 24 -128 14 -41 18 -61 10 -50 -18 24 -44 110 -44 142 0 14
-4 21 -10 18 -16 -10 -11 55 8 110 19 56 71 149 79 142 2 -3 -2 -16 -10 -29z
m1415 -192 c346 -177 480 -237 673 -302 166 -55 183 -65 69 -38 -276 64 -525
179 -1037 482 -85 50 -102 67 -25 24 31 -17 175 -92 320 -166z m-1054 107
c-18 -40 -19 -55 -11 -93 6 -25 14 -54 18 -65 8 -20 8 -20 -13 -1 -41 35 -41
129 -1 180 29 37 31 32 7 -21z m847 -93 c220 -133 335 -189 630 -304 137 -54
162 -72 54 -40 -224 66 -706 309 -817 412 -42 38 -52 43 133 -68z m4534 38
c52 -15 97 -30 99 -33 3 -3 0 -15 -5 -27 -8 -16 -41 -36 -107 -63 -53 -22 -96
-42 -96 -45 0 -4 34 -16 75 -28 72 -21 84 -32 67 -59 -6 -10 -30 -6 -103 16
-52 16 -103 31 -114 33 -15 3 -19 10 -17 28 5 34 15 42 107 79 44 18 84 36 88
40 4 4 -27 18 -69 30 -59 17 -74 25 -70 37 3 9 6 20 6 25 0 6 9 7 23 3 12 -4
64 -20 116 -36z m-7532 6 c90 -6 103 -9 109 -26 3 -11 2 -24 -3 -28 -18 -18
-198 -150 -204 -150 -4 0 -9 10 -13 23 -4 16 1 28 20 43 24 20 26 25 18 60 -8
34 -13 38 -44 42 -19 2 -36 4 -36 5 -1 1 -5 13 -9 26 -7 22 -5 23 26 18 19 -3
80 -9 136 -13z m2680 -117 c65 -40 145 -90 178 -110 33 -20 56 -37 51 -37 -8
0 -333 196 -350 212 -27 23 16 0 121 -65z m-2493 -165 c21 -56 37 -104 35
-107 -2 -2 -16 -6 -30 -10 -25 -6 -26 -5 -26 35 0 22 -3 43 -6 46 -3 3 -49
-10 -103 -30 -53 -20 -99 -35 -100 -33 -2 2 -5 13 -6 26 -3 20 7 26 80 51 45
16 87 32 93 35 12 8 1 47 -17 58 -8 4 -14 12 -14 18 0 12 43 29 51 20 3 -3 22
-52 43 -109z m2691 -40 c346 -199 735 -356 900 -363 75 -3 119 0 112 8 -4 3
-73 26 -155 50 -81 24 -132 41 -114 38 18 -2 85 -12 150 -20 64 -9 132 -18
149 -21 38 -6 24 33 148 -404 42 -146 78 -273 81 -283 12 -39 19 -3 19 97 0
58 1 106 3 106 2 0 62 -18 134 -40 273 -84 544 -142 883 -191 121 -17 234 -37
250 -44 18 -7 37 -26 47 -46 18 -38 62 -179 56 -183 -1 -1 -37 -17 -78 -35
-77 -33 -179 -96 -310 -190 -89 -64 -163 -99 -365 -174 -439 -162 -935 -224
-1405 -176 -129 13 -293 39 -303 49 -4 4 16 10 45 14 101 12 218 33 224 39 9
9 -88 61 -213 113 -62 26 -111 49 -110 51 2 1 62 -18 135 -42 137 -47 172 -54
172 -32 0 22 -60 53 -292 153 -126 53 -226 99 -224 101 2 2 102 -30 222 -72
202 -69 244 -79 244 -58 0 10 -149 95 -218 124 -29 12 -51 24 -48 26 4 4 84
-17 164 -43 55 -18 54 -18 50 9 -3 23 -34 42 -181 106 -43 19 -76 36 -74 38 2
2 53 -8 112 -22 86 -21 110 -23 116 -13 13 20 -26 44 -141 84 -245 87 -249 97
-10 24 235 -71 232 -54 -13 62 -81 39 -146 73 -144 75 2 2 24 -5 48 -16 314
-136 513 -215 599 -240 96 -27 304 -72 333 -71 7 1 -53 22 -133 49 -214 71
-424 154 -610 241 -152 70 -344 170 -329 170 4 0 56 -23 115 -51 152 -71 398
-170 533 -213 119 -39 352 -98 358 -92 4 4 -81 38 -372 149 -223 86 -311 124
-453 197 -112 57 -234 129 -221 130 4 0 62 -27 130 -61 231 -114 466 -208 648
-260 120 -33 131 -35 131 -14 0 8 -5 15 -10 15 -17 0 -386 149 -513 207 -182
83 -437 223 -437 239 0 2 60 -27 133 -65 141 -74 340 -161 494 -217 102 -37
322 -98 329 -91 2 2 -53 28 -124 57 -408 171 -621 273 -755 361 -76 50 -77 50
118 -45 88 -43 214 -100 280 -126 188 -75 468 -161 481 -148 2 3 -29 17 -68
33 -148 57 -357 149 -502 221 -145 73 -346 183 -346 190 0 2 62 -26 138 -62
225 -108 370 -170 492 -212 116 -40 289 -87 295 -80 2 2 -92 43 -208 92 -304
127 -628 292 -762 386 -41 30 -36 27 185 -82 237 -117 365 -174 490 -221 94
-34 278 -82 286 -74 3 3 -33 19 -78 37 -130 52 -381 166 -518 236 -129 66
-391 214 -378 214 4 0 92 -42 195 -94 203 -101 334 -159 483 -213 96 -35 289
-87 296 -81 2 2 -40 21 -94 42 -309 122 -608 270 -872 434 -124 76 -152 100
-60 50 408 -223 638 -329 855 -391 93 -27 174 -44 165 -34 -3 3 -50 23 -105
45 -192 76 -550 252 -705 347 -19 11 -108 61 -197 110 -89 49 -160 91 -158 93
2 2 62 -26 132 -63 319 -169 696 -355 778 -384 104 -38 244 -71 295 -70 19 0
28 3 20 6 -376 136 -610 247 -927 440 -68 41 -123 76 -123 78 0 1 132 -64 293
-145 517 -263 660 -317 802 -308 l50 3 -90 29 c-78 26 -220 79 -350 134 -157
65 -611 313 -685 374 -28 23 -37 27 185 -100z m4483 80 c31 -16 134 -54 179
-68 10 -3 10 -9 1 -29 -13 -29 -14 -29 -48 -10 -43 24 -56 18 -79 -37 -12 -28
-20 -53 -18 -54 2 -2 21 -10 43 -17 39 -14 51 -31 36 -54 -6 -9 -34 -2 -110
27 -57 22 -109 40 -117 40 -8 0 -12 6 -10 15 3 8 7 22 10 30 4 12 11 12 51 -5
26 -11 48 -19 50 -18 5 6 44 100 44 108 0 4 -20 13 -45 20 -44 12 -51 22 -39
54 8 20 7 20 52 -2z m-5578 -116 c0 -18 -53 39 -66 71 -8 18 -14 36 -14 40 0
11 79 -100 80 -111z m3556 -148 c22 -43 60 -89 93 -110 20 -14 22 -18 8 -18
-29 0 -104 86 -125 143 -11 29 -22 81 -26 117 l-6 65 19 -82 c11 -44 27 -96
37 -115z m-3103 -23 c6 -81 5 -87 -8 -65 -19 33 -29 121 -20 167 7 35 8 36 15
13 4 -14 10 -65 13 -115z m-1970 45 c38 -98 18 -140 -67 -140 -27 0 -39 6 -55
29 -12 16 -21 34 -21 39 0 20 -19 23 -56 7 -30 -12 -39 -13 -46 -3 -12 20 -10
48 5 48 6 0 55 20 107 44 52 24 97 44 100 45 3 1 18 -30 33 -69z m1886 -150
c1 -48 -24 -102 -56 -118 -10 -5 -33 -12 -51 -15 l-32 -7 16 25 c14 21 15 41
10 118 -4 50 -9 112 -13 137 -3 25 -2 42 2 38 7 -7 33 -208 35 -268 1 -25 1
-25 32 9 l31 35 -6 111 c-8 149 3 190 19 70 7 -49 13 -110 13 -135z m5213 114
c29 -21 58 -74 58 -105 0 -29 -26 -74 -56 -98 -48 -38 -139 -21 -182 34 -39
49 -23 141 30 180 30 22 115 16 150 -11z m-5422 12 c0 -2 7 -40 15 -83 18 -92
17 -83 6 -83 -5 0 -14 30 -20 68 -7 37 -14 75 -17 85 -3 9 -1 17 5 17 6 0 11
-2 11 -4z m-1601 -150 c0 -6 -50 -35 -110 -64 -116 -55 -111 -54 -122 -9 -1 4
45 31 103 60 91 46 107 51 118 38 6 -8 12 -20 11 -25z m41 -78 c0 -5 -20 -18
-45 -30 -25 -12 -45 -25 -45 -28 0 -4 33 -15 74 -25 62 -15 77 -23 91 -48 14
-23 15 -29 4 -25 -50 19 -134 38 -145 34 -8 -3 -14 -14 -14 -24 0 -21 -29
-113 -40 -125 -4 -4 -15 3 -24 18 -14 22 -15 29 -3 53 19 38 41 121 34 129 -3
3 -27 -7 -52 -22 -45 -26 -47 -26 -60 -8 -8 10 -14 20 -15 23 0 3 49 31 108
62 97 52 108 56 120 41 6 -9 12 -21 12 -25z m6848 -56 l112 -17 -16 -23 c-11
-16 -25 -23 -43 -22 -44 3 -48 1 -61 -30 -10 -25 -9 -33 8 -57 17 -24 18 -32
8 -50 -11 -21 -15 -18 -86 64 -104 120 -104 121 -90 138 15 18 25 18 168 -3z
m-1725 -287 c41 -126 74 -231 72 -233 -8 -9 -150 405 -168 493 l-7 30 14 -30
c8 -16 47 -133 89 -260z m-3074 5 c12 -113 24 -228 27 -256 3 -35 0 -64 -10
-87 -14 -34 -97 -124 -233 -251 -115 -108 -65 -35 71 103 101 103 137 146 146
176 10 33 8 80 -13 275 -21 206 -24 260 -12 248 2 -2 13 -95 24 -208z m-1924
129 c4 -11 5 -21 3 -23 -1 -1 -20 -11 -40 -21 -21 -11 -38 -22 -38 -24 0 -7
62 -101 67 -101 2 0 21 11 41 25 34 23 38 24 50 8 17 -24 15 -31 -10 -44 -13
-7 -57 -34 -97 -62 -57 -37 -79 -47 -90 -40 -27 17 -24 39 8 53 53 21 56 34
25 85 -16 25 -32 45 -35 45 -3 0 -23 -12 -45 -26 -36 -25 -39 -25 -51 -8 -18
25 -16 31 10 45 12 7 55 34 96 61 84 54 97 57 106 27z m5354 -207 c51 -63 90
-116 87 -119 -3 -3 -12 0 -20 6 -18 15 -166 218 -166 228 0 3 2 4 3 2 2 -2 45
-55 96 -117z m1087 48 c24 -61 34 -75 76 -102 50 -33 58 -48 33 -68 -11 -9
-23 -5 -61 24 -44 34 -51 36 -120 36 -41 0 -74 3 -74 8 0 4 7 15 15 26 12 15
22 17 59 12 53 -8 58 2 30 59 -12 26 -13 38 -4 54 6 12 12 21 14 21 3 0 17
-32 32 -70z m-75 -193 c99 -66 81 -206 -28 -227 -82 -14 -163 49 -163 128 0
101 106 156 191 99z m-6119 -8 c33 -15 68 -70 68 -107 0 -45 -18 -78 -59 -106
-60 -41 -121 -38 -167 8 -29 29 -34 41 -34 83 0 53 17 81 65 113 33 22 91 26
127 9z m4848 -54 c0 -5 -5 -3 -10 5 -5 8 -10 20 -10 25 0 6 5 3 10 -5 5 -8 10
-19 10 -25z m1166 -215 c38 -29 39 -30 20 -55 -13 -18 -19 -14 -105 59 -91 79
-101 92 -79 114 8 8 25 -1 70 -41 33 -29 75 -63 94 -77z m-5870 6 c-9 -36 -16
-68 -16 -72 0 -3 35 -3 78 1 71 6 79 5 97 -15 19 -21 19 -21 -15 -48 -19 -15
-61 -52 -93 -83 -51 -49 -60 -55 -73 -42 -7 8 -14 17 -14 21 0 3 26 33 58 66
31 32 49 56 40 53 -9 -3 -44 -9 -77 -13 -70 -8 -69 -9 -46 80 9 33 14 60 12
62 -1 2 -29 -22 -61 -52 -56 -54 -58 -55 -78 -38 -19 18 -17 20 69 104 l88 86
24 -22 24 -22 -17 -66z m5753 -30 c45 -43 81 -82 81 -86 0 -4 -7 -13 -16 -20
-13 -11 -24 -5 -75 46 -32 32 -59 54 -59 49 0 -6 7 -37 15 -70 21 -88 24 -84
-57 -69 -40 6 -75 10 -77 9 -2 -2 23 -29 55 -59 56 -52 58 -55 42 -72 -17 -17
-21 -14 -90 51 -40 38 -81 76 -92 86 -18 17 -18 18 1 38 19 20 23 21 91 9 39
-6 73 -10 76 -7 2 2 -3 35 -11 72 -14 64 -14 69 3 88 9 11 21 18 25 17 4 -2
44 -38 88 -82z m-225 -237 c43 -50 77 -91 75 -92 -2 -2 -12 -8 -21 -15 -14
-11 -21 -8 -50 23 l-33 35 -45 -39 -45 -39 34 -36 c29 -30 32 -38 21 -51 -18
-21 -35 -19 -53 8 -9 12 -43 51 -76 87 -58 63 -59 66 -42 84 18 18 20 17 52
-18 l34 -36 45 39 45 39 -34 36 c-29 30 -32 38 -21 51 7 8 18 15 24 14 6 0 46
-41 90 -90z m-5245 67 c9 -10 4 -31 -20 -87 -17 -41 -38 -95 -47 -121 -17 -53
-19 -54 -45 -33 -17 12 -17 17 -6 48 12 33 11 36 -17 60 -27 23 -31 24 -56 11
-23 -12 -31 -12 -48 -2 -11 7 -20 15 -19 18 0 7 221 118 235 119 6 1 17 -5 23
-13z m1691 -96 c8 -5 11 -10 5 -10 -5 0 -17 5 -25 10 -8 5 -10 10 -5 10 6 0
17 -5 25 -10z m6 -97 c129 -47 232 -88 230 -90 -1 -2 -70 21 -152 50 -82 30
-191 69 -241 87 -51 18 -93 34 -93 36 0 10 39 -2 256 -83z m64 71 c23 -9 39
-18 37 -20 -2 -3 -24 4 -48 15 -54 24 -45 27 11 5z m3234 -38 c16 -25 9 -40
-16 -31 -7 2 -23 -3 -36 -13 l-23 -18 67 -84 c63 -78 66 -84 49 -96 -10 -8
-21 -14 -25 -14 -3 0 -25 26 -48 58 -76 103 -78 105 -101 90 -12 -7 -21 -20
-21 -30 0 -9 -5 -20 -11 -23 -12 -8 -40 24 -36 41 2 11 166 142 178 143 4 1
14 -10 23 -23z m-4806 -8 c7 -9 -2 -49 -29 -132 -22 -66 -41 -122 -44 -124 -4
-4 -174 129 -175 138 0 9 204 128 221 129 9 1 21 -5 27 -11z m1608 -146 c-6
-6 -159 28 -169 38 -5 4 33 -2 82 -13 50 -11 89 -22 87 -25z m-1408 5 c8 -9 2
-47 -21 -137 -17 -69 -33 -126 -34 -128 0 -2 -11 2 -23 8 -18 10 -21 17 -15
50 6 34 3 40 -25 60 -29 21 -32 21 -56 5 -26 -17 -64 -12 -63 8 0 13 197 146
215 147 6 0 16 -6 22 -13z m4380 1 c19 -19 15 -25 -33 -49 -25 -12 -45 -26
-45 -31 0 -4 21 -14 46 -20 l46 -13 -6 -52 c-3 -29 -3 -53 1 -53 14 1 60 44
66 63 9 23 22 21 40 -7 15 -23 14 -24 -57 -74 -40 -28 -79 -52 -87 -54 -11 -2
-14 13 -14 72 l0 75 -60 15 c-33 8 -60 20 -60 27 0 10 130 111 146 112 3 1 10
-4 17 -11z m-2931 -14 c-3 -3 -12 -4 -19 -1 -8 3 -5 6 6 6 11 1 17 -2 13 -5z
m73 -14 c20 -6 21 -8 5 -8 -11 0 -31 4 -45 8 -20 6 -21 8 -5 8 11 0 31 -4 45
-8z m2729 -196 c49 -83 60 -108 50 -115 -25 -15 -38 -10 -55 23 -9 17 -36 62
-61 101 -42 65 -43 70 -26 83 10 7 20 13 23 13 3 0 34 -47 69 -105z m-135 49
c4 -9 3 -20 -2 -25 -6 -6 10 -45 41 -100 40 -72 47 -92 36 -99 -26 -16 -34 -9
-79 77 -25 47 -47 87 -50 89 -3 2 -29 -10 -58 -26 l-51 -30 31 -57 c17 -31 40
-69 50 -84 23 -34 23 -43 -4 -55 -20 -9 -25 -2 -67 79 -32 60 -52 88 -64 88
-19 0 -37 32 -21 37 6 2 57 30 114 62 58 33 108 60 111 60 4 1 10 -7 13 -16z
m-3767 -45 c42 -29 57 -66 48 -118 -12 -73 -101 -135 -161 -114 -100 37 -121
146 -43 223 39 40 105 43 156 9z m144 -78 c18 -10 16 -17 -36 -120 -30 -61
-58 -110 -61 -110 -3 0 -13 4 -23 9 -16 9 -12 20 36 120 30 61 56 111 59 111
3 0 14 -5 25 -10z m3349 -19 c0 -5 3 -16 6 -25 4 -11 0 -16 -15 -16 -32 0 -91
-32 -91 -49 1 -37 15 -42 58 -21 24 12 47 18 52 15 21 -13 8 -36 -30 -51 -22
-9 -40 -20 -40 -26 0 -8 17 -45 25 -55 5 -7 87 40 92 52 7 20 29 19 37 -1 9
-23 7 -44 -4 -44 -5 0 -42 -16 -81 -35 -40 -19 -73 -34 -74 -33 -5 7 -105 221
-105 225 0 5 143 71 158 72 6 1 12 -3 12 -8z m-3260 -42 c0 -5 -9 -28 -20 -49
-11 -22 -16 -40 -10 -40 6 0 38 11 72 25 71 29 78 30 103 11 16 -12 12 -16
-53 -40 -40 -15 -72 -31 -72 -34 0 -4 11 -34 25 -67 34 -83 33 -96 -4 -82 -21
8 -30 19 -34 41 -3 17 -15 54 -27 81 l-23 50 -26 -57 c-23 -51 -28 -56 -46
-46 -29 16 -29 16 -18 30 5 7 20 38 33 68 62 148 58 142 80 130 11 -6 20 -15
20 -21z m3140 -270 c0 -4 -11 -10 -24 -13 -17 -4 -49 8 -115 45 -51 28 -94 49
-97 47 -2 -3 9 -37 25 -77 27 -68 28 -72 11 -81 -25 -14 -40 -13 -40 3 -1 10
-50 142 -74 198 -5 12 1 19 21 28 26 11 36 8 103 -29 40 -22 79 -45 87 -52 25
-20 24 -1 -2 67 -14 37 -25 69 -25 72 0 2 10 7 22 12 21 8 25 1 65 -103 24
-61 43 -114 43 -117z m-2797 154 c95 -48 54 -218 -56 -238 -78 -15 -156 62
-141 139 19 104 103 146 197 99z m143 -59 c16 -4 33 -33 65 -106 l42 -101 18
64 c10 35 18 72 19 82 0 18 13 21 41 9 14 -6 12 -20 -16 -122 -45 -159 -58
-159 -133 0 l-49 104 -19 -77 c-9 -42 -20 -81 -24 -86 -8 -14 -52 -2 -48 13
40 150 64 226 73 226 5 0 20 -3 31 -6z m2307 -95 c43 -55 75 -104 72 -110 -11
-17 -44 -9 -64 17 -19 24 -23 25 -55 14 -34 -11 -46 -26 -46 -60 0 -17 -35
-38 -46 -28 -6 6 14 247 22 259 15 25 45 1 117 -92z m-236 45 c3 -9 0 -20 -7
-24 -11 -7 -11 -23 4 -92 9 -46 19 -91 22 -100 5 -16 -31 -36 -43 -24 -3 3
-14 47 -24 97 -11 51 -21 94 -23 97 -3 2 -30 -2 -60 -9 -65 -14 -65 -12 -35
-129 16 -67 18 -85 7 -91 -26 -17 -37 -8 -47 41 -6 28 -16 72 -22 99 -7 35
-16 50 -30 54 -10 3 -19 12 -19 20 0 10 28 21 98 37 53 12 111 25 127 30 43
12 45 12 52 -6z m-1687 -43 c43 -22 60 -53 60 -109 0 -81 -48 -132 -125 -132
-50 0 -89 23 -109 64 -21 45 -20 71 4 120 34 72 101 94 170 57z m148 -17 c15
-5 33 -27 54 -68 17 -33 32 -63 34 -65 2 -2 28 22 56 53 48 52 56 57 81 51 23
-6 27 -12 23 -29 -2 -11 -10 -67 -17 -124 -10 -82 -15 -102 -26 -97 -8 3 -19
5 -25 5 -9 0 -4 100 8 143 9 31 -11 18 -56 -38 -25 -29 -48 -54 -51 -55 -3 0
-21 32 -39 71 -33 67 -35 69 -41 42 -4 -15 -10 -54 -14 -85 -5 -49 -9 -57 -25
-55 -11 2 -22 6 -25 8 -7 7 26 249 34 249 3 0 16 -3 29 -6z m1066 -78 c-32
-60 -34 -67 -26 -125 5 -33 6 -63 4 -66 -3 -3 -16 -5 -29 -5 -21 0 -23 4 -23
46 0 55 -18 96 -66 148 -19 21 -34 40 -32 41 9 9 58 16 58 8 0 -5 12 -24 28
-42 l27 -33 23 46 c18 35 29 46 47 46 23 0 23 0 -11 -64z m-737 -38 c-4 -46
-7 -102 -7 -125 0 -41 -1 -43 -31 -43 -27 0 -30 3 -26 23 3 12 9 68 13 125 6
101 7 102 32 102 l25 0 -6 -82z m89 17 c-4 -30 -3 -55 2 -55 4 0 32 24 61 54
50 51 68 59 108 47 2 -1 -23 -26 -54 -57 l-56 -55 58 -59 c31 -32 55 -62 51
-68 -10 -17 -57 -4 -74 20 -9 13 -35 41 -57 63 l-40 39 -3 -62 c-3 -59 -4 -62
-28 -62 l-26 0 4 125 3 125 28 0 28 0 -5 -55z m414 28 c55 -49 57 -139 4 -194
-71 -74 -198 -30 -204 71 -4 68 0 82 34 116 30 30 40 34 85 34 41 0 56 -5 81
-27z"/>
<path d="M4851 8717 c-55 -21 -76 -58 -76 -132 0 -53 4 -67 24 -89 32 -34 90
-49 169 -44 54 3 67 8 94 36 27 26 32 40 35 89 5 71 -10 102 -58 125 -48 24
-145 31 -188 15z"/>
<path d="M4114 8669 c-95 -22 -135 -100 -100 -192 21 -55 58 -77 128 -77 74 0
126 17 161 51 28 28 29 34 25 95 -3 56 -8 69 -35 96 -26 26 -41 32 -85 34 -29
2 -71 -1 -94 -7z"/>
<path d="M6335 8332 c-38 -41 -71 -78 -73 -82 -3 -8 137 -64 144 -57 3 2 3 51
2 109 l-3 105 -70 -75z"/>
<path d="M3371 8482 c-25 -9 -60 -31 -78 -48 -27 -26 -33 -39 -33 -73 0 -90
51 -151 126 -151 60 0 148 35 179 71 43 52 27 152 -33 199 -31 25 -99 25 -161
2z m153 -98 c9 -34 6 -37 -79 -67 -38 -14 -77 -28 -86 -32 -12 -5 -20 2 -28
26 -6 18 -8 35 -5 38 11 11 149 60 170 60 15 1 24 -7 28 -25z"/>
<path d="M5975 7927 c-10 -30 -76 -480 -72 -491 10 -24 267 19 267 45 0 5 -38
9 -85 9 -50 0 -85 4 -85 10 0 6 12 10 28 10 32 0 216 27 252 36 23 7 21 8 -15
15 -22 4 -59 8 -82 8 -23 1 -45 6 -49 13 -10 16 239 4 341 -17 173 -36 341
-114 437 -203 15 -14 31 -23 34 -19 4 4 -26 40 -67 80 -124 124 -265 177 -549
207 -154 16 -190 21 -190 30 0 4 28 11 63 14 202 21 204 23 35 52 -60 10 -108
21 -108 25 0 4 52 10 115 14 63 4 117 11 120 14 2 4 -40 20 -93 35 -53 14
-141 49 -195 76 -66 33 -99 45 -102 37z"/>
<path d="M6020 7423 c-122 -16 -143 -24 -138 -57 3 -18 11 -21 54 -24 59 -3
131 19 214 66 l55 32 -35 -1 c-19 -1 -87 -8 -150 -16z"/>
<path d="M6305 7396 c-27 -7 -80 -25 -116 -39 -58 -24 -79 -27 -181 -27 -80 0
-119 -4 -125 -12 -6 -7 -13 -33 -16 -58 -3 -25 -19 -132 -36 -239 -17 -107
-29 -196 -26 -199 12 -12 155 22 172 40 17 19 17 20 -2 34 -10 8 -30 14 -44
15 -17 0 -1 9 42 24 103 35 104 42 4 52 -37 3 -64 9 -62 13 3 4 26 13 51 19
42 11 114 65 102 77 -3 2 -24 -3 -48 -11 -45 -16 -111 -21 -94 -7 5 4 32 14
59 21 49 12 127 72 113 87 -4 3 -28 -1 -54 -10 -26 -9 -66 -16 -88 -15 -36 0
-29 4 63 35 58 19 126 48 153 65 127 82 280 79 458 -8 180 -88 254 -239 217
-445 -7 -43 -12 -78 -10 -78 3 0 17 29 33 64 92 202 29 432 -145 536 -96 57
-176 80 -280 79 -49 0 -112 -6 -140 -13z m-277 -136 c-15 -4 -51 -10 -80 -13
l-53 -6 60 14 c68 15 117 18 73 5z"/>
<path d="M7387 7296 c-119 -40 -107 -45 89 -39 208 7 258 -2 387 -68 43 -22
81 -38 83 -36 3 2 -20 27 -50 54 -114 105 -345 145 -509 89z"/>
<path d="M6367 7110 c-74 -19 -181 -87 -280 -179 -21 -20 -45 -40 -53 -44 -15
-8 -20 -37 -6 -37 5 0 46 10 92 21 72 18 104 21 215 17 115 -5 140 -9 220 -38
80 -30 97 -40 158 -102 37 -37 70 -68 73 -68 14 0 -5 138 -26 193 -32 84 -104
174 -168 210 -59 33 -155 44 -225 27z"/>
<path d="M7465 7111 c-94 -25 -201 -110 -243 -194 -33 -66 -61 -188 -72 -312
-12 -137 -13 -372 -1 -379 13 -8 21 -74 12 -99 -7 -18 -17 -22 -57 -24 -27 0
-64 -4 -81 -8 -44 -10 -68 -2 -133 40 -59 38 -115 46 -165 23 -19 -8 -31 -8
-50 0 -36 17 -34 70 7 149 17 34 28 66 24 70 -14 14 -102 -92 -114 -137 -24
-94 47 -180 149 -180 10 0 41 -16 70 -36 76 -52 118 -62 215 -54 100 9 148 31
182 83 35 52 36 112 3 186 -36 85 -37 143 -2 354 33 200 47 241 108 308 97
107 292 136 442 66 59 -28 128 -97 169 -171 19 -32 36 -56 38 -53 10 9 -26
131 -51 173 -37 63 -112 131 -183 166 -55 27 -77 32 -151 35 -47 1 -99 -1
-116 -6z"/>
<path d="M7333 6868 c-26 -30 -53 -70 -53 -81 0 -10 90 85 90 96 0 14 -17 7
-37 -15z"/>
<path d="M7429 6821 c-88 -34 -181 -130 -195 -200 l-6 -30 63 20 c72 22 182
27 244 10 56 -15 151 -74 232 -145 66 -57 68 -58 71 -34 10 82 -71 273 -141
333 -74 63 -178 81 -268 46z"/>
<path d="M5800 6760 c0 -22 2 -40 5 -40 7 0 244 68 260 74 6 3 -52 5 -127 5
l-138 1 0 -40z"/>
<path d="M5930 6721 c-69 -10 -127 -18 -130 -19 -4 -1 -28 -253 -25 -260 2 -3
314 106 333 118 27 15 -16 13 -151 -10 -66 -12 -127 -19 -136 -18 -9 2 25 18
74 36 262 95 276 108 85 77 -167 -27 -174 -16 -20 34 203 65 198 73 -30 42z"/>
<path d="M5922 6455 c-68 -13 -130 -26 -138 -29 -8 -3 -14 -19 -14 -40 l0 -35
176 59 c97 33 179 62 182 65 12 12 -91 2 -206 -20z"/>
<path d="M5896 6358 c-61 -10 -116 -24 -123 -30 -17 -14 -17 -47 0 -54 31 -11
226 53 272 90 19 15 19 15 -10 15 -16 -1 -79 -10 -139 -21z"/>
<path d="M6439 6330 c-150 -44 -220 -86 -273 -163 -43 -63 -62 -115 -74 -205
-9 -62 -8 -220 1 -229 2 -2 7 30 10 72 11 131 70 265 153 348 20 20 73 55 118
78 168 87 250 142 204 138 -7 -1 -70 -18 -139 -39z"/>
<path d="M5910 6269 c-80 -15 -145 -28 -146 -29 -7 -3 2 -70 10 -70 42 0 261
83 301 114 l20 15 -20 0 c-11 0 -85 -14 -165 -30z"/>
<path d="M6035 6210 c-16 -5 -83 -20 -149 -35 l-119 -28 7 -72 c10 -115 33
-256 43 -266 14 -14 180 52 199 79 8 12 13 26 10 31 -3 4 -36 2 -73 -5 -94
-18 -108 -16 -40 6 63 20 92 40 100 71 6 23 1 23 -98 3 -42 -9 -78 -14 -80
-12 -2 2 46 26 106 53 61 27 113 53 115 57 8 13 -96 8 -164 -6 -69 -15 -72 -8
-7 13 67 22 162 72 186 97 24 26 17 29 -36 14z"/>
<path d="M6287 6122 c-34 -38 -9 -184 53 -310 186 -377 694 -477 927 -183 51
66 113 184 113 217 0 32 -33 32 -80 1 -100 -67 -240 -95 -376 -77 -258 34
-450 138 -552 300 -48 76 -58 82 -85 52z"/>
<path d="M5930 5821 c-41 -15 -81 -29 -89 -32 -12 -4 -10 -23 14 -108 15 -56
34 -105 41 -108 8 -3 37 10 65 28 56 35 53 47 -7 30 -50 -14 -53 -8 -8 16 38
19 63 47 53 58 -3 3 -25 -2 -49 -10 -63 -22 -62 -19 8 26 35 22 61 43 59 46
-5 4 -71 -12 -134 -33 -10 -4 16 16 58 44 119 77 116 88 -11 43z"/>
<path d="M6553 5407 c7 -23 108 -75 186 -96 75 -20 210 -29 225 -14 4 4 -37
19 -91 34 -54 14 -149 40 -211 57 -72 19 -112 26 -109 19z"/>
<path d="M4804 5106 c-62 -15 -214 -87 -197 -93 6 -2 49 5 95 16 45 10 84 18
86 16 2 -1 -60 -58 -136 -126 -84 -75 -136 -128 -131 -133 5 -6 2 -17 -8 -28
-22 -24 -4 -24 70 2 75 27 129 25 202 -6 42 -18 88 -28 150 -32 l90 -7 51 -52
c28 -29 57 -53 66 -53 14 0 12 8 -9 51 -31 65 -16 93 16 30 12 -22 25 -41 30
-41 16 0 20 13 10 37 -7 20 -6 28 6 37 15 11 14 14 -4 30 -31 28 -25 40 8 17
15 -11 31 -18 34 -15 3 3 -8 28 -24 56 -17 28 -28 52 -26 54 2 3 22 -11 43
-31 55 -49 71 -47 35 3 -25 36 -81 131 -81 139 0 3 9 -2 20 -12 27 -24 26 -4
-2 46 -24 44 -77 82 -134 98 -51 14 -196 13 -260 -3z"/>
<path d="M6495 4531 c-21 -9 -14 -11 78 -26 30 -6 31 -5 13 10 -11 8 -25 15
-32 15 -7 0 -18 2 -26 4 -7 3 -22 1 -33 -3z"/>
<path d="M850 4204 c-73 -31 -53 -116 28 -122 34 -3 47 2 67 22 61 61 -9 136
-95 100z m55 -60 c5 -36 4 -42 -13 -46 -17 -5 -21 1 -27 40 -5 32 -3 47 7 53
18 11 25 1 33 -47z"/>
<path d="M980 3660 c0 -22 20 -26 38 -8 19 19 14 28 -13 28 -18 0 -25 -5 -25
-20z"/>
<path d="M6090 2185 c-14 -8 -68 -40 -120 -70 -180 -107 -284 -152 -644 -284
-209 -77 -500 -200 -493 -208 5 -5 236 57 387 104 297 91 573 218 784 361 122
82 156 112 124 112 -7 0 -24 -7 -38 -15z"/>
<path d="M4350 2081 c0 -26 108 -82 200 -104 65 -16 175 -25 185 -15 3 3 -7 8
-22 11 -15 4 -103 31 -195 61 -93 30 -168 51 -168 47z"/>
<path d="M1188 3228 c-31 -11 -33 -16 -16 -53 8 -18 19 -25 40 -25 33 0 44 18
31 57 -11 32 -19 35 -55 21z"/>
<path d="M8245 3155 c-29 -28 -31 -51 -9 -83 36 -52 113 -48 132 7 13 37 -8
76 -49 90 -43 15 -46 14 -74 -14z m88 -12 c2 -5 -4 -27 -15 -50 -13 -29 -23
-40 -33 -37 -19 8 -19 13 0 58 14 33 38 47 48 29z"/>
<path d="M8140 2895 c0 -3 9 -16 20 -28 18 -18 22 -20 30 -7 14 22 12 27 -12
34 -29 7 -38 7 -38 1z"/>
<path d="M7774 2392 c-15 -9 -34 -47 -34 -66 0 -8 12 -28 26 -45 40 -48 115
-40 128 14 15 61 -71 130 -120 97z"/>
<path d="M1649 2351 c-34 -35 -38 -72 -9 -101 30 -30 76 -26 111 9 34 35 36
59 8 95 -28 36 -72 35 -110 -3z"/>
<path d="M2095 1885 c-18 -14 -18 -16 -2 -32 15 -15 17 -15 27 11 16 42 10 47
-25 21z"/>
<path d="M2262 1699 c-28 -17 -52 -34 -52 -38 0 -7 55 -51 64 -51 6 0 48 111
44 116 -2 1 -27 -11 -56 -27z"/>
<path d="M2499 1570 c-20 -17 -22 -21 -9 -30 23 -15 27 -12 33 18 7 35 5 36
-24 12z"/>
<path d="M2805 1375 c-31 -30 -34 -84 -6 -109 28 -25 79 -17 104 16 57 77 -31
161 -98 93z"/>
<path d="M3381 1114 c-38 -49 -19 -116 36 -127 64 -12 114 100 61 137 -34 24
-73 20 -97 -10z"/>
<path d="M5870 1012 c0 -34 5 -38 30 -22 13 8 12 13 -7 32 l-23 22 0 -32z"/>
<path d="M3925 965 c-50 -49 -24 -135 41 -135 66 0 96 98 43 143 -29 24 -55
21 -84 -8z"/>
<path d="M4876 888 c-40 -56 3 -147 62 -134 57 14 78 71 45 127 -14 24 -24 29
-55 29 -27 0 -41 -6 -52 -22z"/>
</g>
</svg>
