<?xml version="1.0" encoding="UTF-8"?>
<!-- Generator: visioncortex VTracer 0.6.3 -->
<svg version="1.1" xmlns="http://www.w3.org/2000/svg" width="1280" height="1280">
<path d="M0 0 C422.4 0 844.8 0 1280 0 C1280 422.4 1280 844.8 1280 1280 C857.6 1280 435.2 1280 0 1280 C0 857.6 0 435.2 0 0 Z " fill="#000100" transform="translate(0,0)"/>
<path d="M0 0 C5.99 4.97 10.57 11.56 15.12 17.81 C15.94 18.92 15.94 18.92 16.76 20.05 C21.46 26.61 25.56 33.44 29.56 40.44 C30.05 41.3 30.05 41.3 30.56 42.17 C39.36 57.55 46.59 72.97 53.16 89.42 C54.33 92.32 55.57 95.19 56.81 98.06 C61.9 110.25 65.74 123.06 69.12 135.81 C69.39 136.8 69.66 137.78 69.93 138.79 C74.84 158.36 80.75 186.5 69.88 204.86 C68.58 206.91 67.25 208.93 65.9 210.95 C57.77 223.11 55.89 234.78 55.88 249.19 C55.87 249.87 55.87 250.55 55.87 251.25 C55.89 261.14 56.34 270.25 59.12 279.81 C59.51 281.23 59.88 282.64 60.26 284.05 C62.32 291.57 64.75 298.78 67.88 305.92 C69.22 309.04 70.43 312.19 71.62 315.38 C73.9 321.31 76.42 327.07 79.12 332.81 C79.63 333.89 79.63 333.89 80.14 334.98 C84.37 343.98 88.62 352.95 93.12 361.81 C102.95 381.23 112.68 400.75 121.12 420.81 C121.81 422.43 121.81 422.43 122.51 424.09 C123.73 426.99 124.93 429.9 126.12 432.81 C126.45 433.58 126.77 434.35 127.11 435.14 C129.36 440.56 131.3 446.07 133.19 451.62 C133.43 452.34 133.68 453.05 133.93 453.78 C137.74 465.15 139.63 475.99 139.52 487.97 C139.5 490.07 139.52 492.18 139.54 494.28 C139.55 504.24 138.92 512.76 131.84 520.25 C117.68 533.13 95.56 534.15 77.4 535.56 C75.1 535.78 75.1 535.78 72.75 536.31 C69.68 536.9 66.72 537.06 63.61 537.21 C62.29 537.27 60.98 537.34 59.62 537.41 C58.92 537.44 58.22 537.48 57.5 537.51 C42.98 538.25 28.53 539.43 14.06 540.88 C12.72 541.01 12.72 541.01 11.36 541.14 C8.83 541.39 6.3 541.65 3.78 541.91 C3.02 541.99 2.25 542.06 1.47 542.14 C-2 542.24 -2 542.24 -4.88 543.81 C-6.72 544.09 -8.58 544.33 -10.44 544.56 C-25.1 546.78 -40.47 551.25 -50.69 562.69 C-53.07 565.45 -53.07 565.45 -52.88 567.81 C-52.17 567.8 -51.47 567.78 -50.74 567.76 C-37.02 567.5 -24.24 567.62 -10.88 570.81 C-9.3 571.12 -7.73 571.43 -6.16 571.73 C-0.51 572.85 5.05 574.24 10.62 575.69 C11.59 575.93 12.56 576.17 13.56 576.43 C19.99 578.09 26.01 580.25 32.12 582.81 C33.93 583.52 35.74 584.23 37.54 584.93 C57.05 592.7 75.17 602.41 92.12 614.81 C93.36 615.68 94.6 616.55 95.84 617.41 C97.1 618.29 98.36 619.18 99.62 620.06 C100.2 620.46 100.78 620.86 101.37 621.28 C110.42 627.69 110.42 627.69 112.12 632.81 C109.44 634.25 106.75 635.69 104.06 637.12 C103.31 637.53 102.56 637.93 101.78 638.35 C69.91 655.32 33.23 652.24 -1.56 649.53 C-11.01 648.82 -20.42 648.63 -29.9 648.63 C-32.44 648.62 -34.98 648.61 -37.51 648.59 C-67.9 648.48 -95.74 656.71 -118.88 676.81 C-120.1 677.86 -120.1 677.86 -121.36 678.93 C-131.46 687.75 -139.59 695.91 -143.88 708.81 C-144.33 710.13 -144.33 710.13 -144.8 711.47 C-150.73 728.78 -153.36 745.69 -153.38 763.94 C-153.38 765.03 -153.38 765.03 -153.39 766.15 C-153.42 780.66 -151.55 793.73 -144.88 806.81 C-144.53 807.64 -144.18 808.47 -143.83 809.32 C-138.19 822.33 -126.61 830.57 -113.94 836.06 C-104.42 839.57 -94.88 840.17 -84.81 840.12 C-83.63 840.12 -82.45 840.12 -81.23 840.11 C-72.22 840 -63.66 839.12 -54.86 837.24 C-52.88 836.81 -50.89 836.43 -48.9 836.05 C-42.05 834.73 -35.25 833.26 -28.46 831.66 C-26.08 831.1 -23.69 830.54 -21.3 830 C-9.23 827.22 2.73 824.04 14.69 820.81 C51.71 810.84 51.71 810.84 62.67 809.21 C65.05 808.86 65.05 808.86 67.02 808.32 C81.57 804.79 102.84 803.05 117.12 807.81 C124.27 808.53 129.5 807.2 135.57 803.2 C138.87 800.12 140.43 796.87 142.31 792.81 C142.65 792.1 143 791.39 143.35 790.66 C144 789.3 144.65 787.94 145.29 786.58 C146.21 784.64 147.15 782.72 148.12 780.81 C151.96 782.05 153.47 784.4 155.31 787.89 C159.72 798.25 156.81 810.54 153.19 820.62 C149.75 828.63 142.4 838.48 134.12 841.81 C130.52 842.03 126.97 841.76 123.38 841.5 C76.66 838.97 30.27 842.82 -15.72 851.16 C-18.6 851.68 -21.49 852.2 -24.38 852.71 C-42.59 855.2 -42.59 855.2 -59.88 860.81 C-49.88 863.37 -40.37 864.37 -30.1 864.65 C-27.87 864.81 -27.87 864.81 -24.86 865.3 C-19.59 866.08 -14.28 866.08 -8.97 866.21 C-6.59 866.28 -4.21 866.35 -1.83 866.42 C1.87 866.52 5.57 866.62 9.28 866.71 C31.53 867.25 52.99 869.48 74.12 876.81 C74.76 877.01 75.39 877.21 76.05 877.42 C79.42 878.62 80.94 879.5 82.8 882.6 C83.15 883.68 83.51 884.76 83.88 885.88 C84.27 887.04 84.66 888.2 85.06 889.39 C85.41 890.52 85.76 891.65 86.12 892.81 C86.43 893.74 86.74 894.66 87.06 895.61 C89.85 904.25 90.33 912.67 90.38 921.69 C90.41 923.08 90.41 923.08 90.44 924.5 C90.52 939.29 84.12 952.13 74.12 962.81 C68.34 968.14 62.16 972.35 55.12 975.81 C54.14 976.31 53.15 976.8 52.13 977.31 C38.3 983.97 24.11 987.03 9.12 989.81 C8 990.03 6.87 990.25 5.7 990.47 C-9.82 993.3 -25.59 992.97 -41.31 992.94 C-44.93 992.94 -48.56 992.94 -52.18 992.95 C-98.66 992.97 -145.01 984.46 -182.88 955.81 C-183.78 955.13 -184.69 954.45 -185.62 953.74 C-196.1 945.5 -205.78 935.94 -213.89 925.36 C-216.25 922.33 -218.75 919.42 -221.25 916.5 C-231.79 904.12 -241.28 890.92 -250.88 877.81 C-251.3 877.23 -251.73 876.65 -252.17 876.05 C-271.55 849.6 -288.85 821.91 -305.29 793.55 C-306.61 791.27 -307.94 788.99 -309.27 786.71 C-313.14 780.06 -316.71 773.32 -320.09 766.4 C-321.61 763.3 -323.17 760.26 -324.92 757.28 C-326.85 753.86 -328.37 750.43 -329.88 746.81 C-330.95 744.5 -332.03 742.18 -333.12 739.88 C-335.98 733.8 -338.72 727.68 -341.39 721.52 C-343.04 717.7 -344.75 713.9 -346.5 710.12 C-348.77 705.18 -350.71 700.14 -352.63 695.05 C-353.79 692.05 -355 689.08 -356.25 686.12 C-361.73 673.03 -366.66 659.82 -371.03 646.31 C-372.53 641.72 -374.09 637.2 -375.93 632.73 C-377.94 627.8 -379.42 622.81 -380.81 617.69 C-382.56 611.4 -384.37 605.15 -386.38 598.94 C-389.65 588.69 -392.23 578.24 -394.88 567.81 C-395.06 567.09 -395.24 566.37 -395.43 565.63 C-397.94 555.79 -400.3 545.91 -402.66 536.04 C-403.93 530.69 -405.24 525.35 -406.62 520.03 C-408.2 513.9 -409.38 507.87 -410.25 501.61 C-411.09 496.51 -412.2 491.48 -413.31 486.44 C-413.53 485.43 -413.76 484.43 -413.98 483.39 C-414.42 481.42 -414.85 479.46 -415.29 477.49 C-417.4 467.85 -419.18 458.18 -420.68 448.43 C-421.68 441.96 -422.79 435.51 -423.94 429.06 C-425.3 421.35 -426.52 413.64 -427.48 405.87 C-427.74 403.87 -428.03 401.88 -428.36 399.89 C-429.17 395.03 -429.75 390.15 -430.38 385.27 C-430.78 382.05 -430.78 382.05 -431.36 379.87 C-431.9 377.72 -432.25 375.59 -432.56 373.39 C-432.68 372.54 -432.8 371.69 -432.93 370.81 C-433.05 369.9 -433.18 369 -433.31 368.06 C-433.51 366.66 -433.51 366.66 -433.71 365.23 C-434.51 359.57 -435.25 353.92 -435.94 348.25 C-436.48 343.79 -437.09 339.36 -437.88 334.94 C-438.76 329.87 -439.34 324.8 -439.88 319.69 C-440.37 315.01 -440.86 310.41 -441.88 305.81 C-443.23 299.67 -443.76 293.42 -444.41 287.18 C-445.1 280.64 -445.96 274.12 -446.88 267.61 C-448.2 258.13 -449.4 248.63 -450.5 239.12 C-450.62 238.06 -450.75 237 -450.87 235.91 C-451.43 231.02 -451.95 226.13 -452.37 221.23 C-452.69 217.64 -453.08 214.07 -453.56 210.5 C-455.41 196.69 -456.47 182.92 -457.17 169.01 C-457.25 167.51 -457.32 166 -457.4 164.49 C-457.44 163.75 -457.47 163.01 -457.51 162.24 C-457.75 157.69 -458.08 153.15 -458.48 148.61 C-461.36 115.5 -461.59 80.11 -452.56 47.94 C-452.29 46.97 -452.02 46 -451.74 45 C-447.7 31.7 -439.37 19.42 -427.34 12.11 C-394.57 -5.18 -353.2 2.32 -317.88 5.81 C-316.93 5.91 -315.99 6 -315.01 6.09 C-311.03 6.49 -307.04 6.9 -303.05 7.31 C-294.33 8.21 -285.63 9.01 -276.88 9.54 C-274.01 9.72 -271.17 9.97 -268.31 10.25 C-240.08 12.99 -211.73 14 -183.38 14 C-182.4 14 -181.43 14 -180.43 14 C-177.69 14 -174.96 13.99 -172.22 13.98 C-171.4 13.98 -170.58 13.98 -169.74 13.98 C-165.67 14.04 -165.67 14.04 -161.88 12.81 C-159.32 12.76 -156.79 12.76 -154.24 12.8 C-145.8 12.86 -137.43 12.57 -129 12.06 C-128.29 12.02 -127.58 11.98 -126.84 11.94 C-110.45 10.96 -94.17 9.1 -77.88 7.06 C-75.84 6.81 -73.79 6.56 -71.74 6.31 C-63.59 5.32 -55.48 4.2 -47.38 2.88 C-46.31 2.7 -45.24 2.53 -44.15 2.35 C-36.77 1.15 -29.42 -0.15 -22.08 -1.57 C-6.75 -4.51 -6.75 -4.51 0 0 Z " fill="#FAFCFC" transform="translate(470.875,110.1875)"/>
<path d="M0 0 C16.2 14.66 23.23 40.67 26.23 61.44 C26.63 63.83 27.11 66.15 27.66 68.52 C28.92 74.11 29.8 79.75 30.66 85.41 C30.84 86.55 31.01 87.69 31.19 88.86 C32.81 99.65 34.15 110.46 35.37 121.3 C35.72 124.33 36.08 127.35 36.44 130.37 C38.41 147.1 39.86 163.88 41.28 180.67 C41.44 182.56 41.6 184.46 41.76 186.35 C41.84 187.27 41.92 188.2 42 189.16 C42.54 195.43 43.14 201.68 43.79 207.94 C44.59 215.8 45.23 223.66 45.73 231.54 C46.38 241.68 47.13 251.82 47.92 261.95 C48.82 273.61 49.68 285.28 50.53 296.94 C50.79 300.51 51.05 304.07 51.31 307.64 C51.48 309.97 51.65 312.3 51.82 314.64 C51.91 315.75 51.99 316.87 52.07 318.02 C52.62 325.73 53.09 333.44 53.48 341.15 C53.7 344.01 54.16 346.62 54.73 349.41 C54.9 351.54 55.04 353.66 55.16 355.79 C55.23 357.06 55.3 358.34 55.37 359.66 C55.41 360.34 55.45 361.02 55.49 361.72 C56.17 374.3 57.03 386.86 58.03 399.42 C58.23 401.87 58.42 404.32 58.61 406.77 C59.15 413.5 59.69 420.23 60.36 426.95 C63.29 457.3 62.57 488.07 59.91 518.41 C59.79 519.83 59.79 519.83 59.66 521.28 C58.72 531.77 57.55 542.22 56.21 552.66 C56.1 553.59 55.98 554.52 55.86 555.48 C55.16 560.76 54.26 565.95 53.18 571.17 C52.6 574.05 52.13 576.95 51.68 579.86 C48.98 597 45.57 613.83 41.59 630.72 C40.76 634.28 39.95 637.84 39.16 641.41 C36.33 654.02 33.16 666.46 29.48 678.85 C28.18 683.28 26.92 687.72 25.66 692.16 C23.42 700.03 21.14 707.89 18.82 715.73 C18.16 717.97 17.5 720.2 16.86 722.44 C15.66 726.57 14.32 730.4 12.54 734.32 C11.02 738.25 10.05 742.36 8.98 746.43 C7.7 750.84 5.84 754.99 4.05 759.21 C1.48 765.43 -0.67 771.8 -2.88 778.15 C-5.01 784.17 -7.37 789.98 -10.07 795.77 C-11.97 799.94 -13.61 804.21 -15.27 808.48 C-17.68 814.58 -20.15 820.54 -23.21 826.36 C-24.26 828.39 -25.18 830.44 -26.09 832.54 C-28.91 838.99 -32.15 845.24 -35.32 851.52 C-36.13 853.12 -36.92 854.73 -37.7 856.34 C-45.09 871.45 -53.25 886.22 -62.27 900.41 C-63.23 901.95 -64.19 903.49 -65.15 905.04 C-70.57 913.73 -76.04 922.28 -82.27 930.41 C-83.15 931.56 -83.15 931.56 -84.04 932.72 C-85.77 934.97 -87.52 937.19 -89.27 939.41 C-89.89 940.2 -90.5 940.99 -91.14 941.81 C-95.44 947.28 -99.96 952.47 -104.68 957.58 C-106.69 959.78 -108.64 962 -110.57 964.26 C-114.29 968.52 -118.27 972.43 -122.4 976.29 C-123.52 977.34 -123.52 977.34 -124.66 978.41 C-130.38 983.7 -136.23 988.61 -142.56 993.17 C-144.42 994.52 -146.25 995.89 -148.08 997.27 C-159.2 1005.47 -170.99 1012.11 -183.27 1018.41 C-184.22 1018.9 -184.22 1018.9 -185.19 1019.41 C-217.9 1036.06 -255.01 1041.63 -291.29 1041.54 C-294.01 1041.54 -296.73 1041.54 -299.45 1041.55 C-326.96 1041.56 -352.68 1041.32 -373.96 1021.35 C-379.66 1015.4 -383.68 1008.79 -387.27 1001.41 C-387.79 1000.36 -387.79 1000.36 -388.31 999.29 C-389.34 997.14 -390.35 994.97 -391.34 992.79 C-391.65 992.11 -391.96 991.44 -392.28 990.74 C-393.41 988.14 -394.3 986.01 -394.16 983.15 C-387.87 970.78 -367.49 963.23 -355.27 958.41 C-354.63 958.16 -353.98 957.9 -353.31 957.64 C-339.7 952.41 -325.66 949.52 -311.27 947.41 C-309.64 947.17 -308 946.92 -306.36 946.67 C-293.04 944.66 -293.04 944.66 -286.45 943.73 C-260.88 940.05 -234.93 932.7 -214.88 915.63 C-213.27 914.41 -213.27 914.41 -211.27 914.41 C-211.6 913.75 -211.93 913.09 -212.27 912.41 C-230.98 912.19 -248.78 914.85 -267.04 918.74 C-272.48 919.87 -277.94 920.89 -283.4 921.91 C-291.73 923.49 -300 925.23 -308.27 927.1 C-316.77 929.02 -325.18 930.28 -333.85 931.05 C-337.25 931.29 -337.25 931.29 -340.27 932.41 C-341.76 932.51 -343.26 932.55 -344.75 932.56 C-345.66 932.57 -346.56 932.57 -347.5 932.58 C-348.96 932.58 -348.96 932.58 -350.46 932.58 C-351.47 932.59 -352.49 932.59 -353.53 932.59 C-355.68 932.6 -357.83 932.6 -359.98 932.6 C-363.23 932.6 -366.49 932.62 -369.75 932.64 C-371.84 932.64 -373.93 932.64 -376.02 932.64 C-376.99 932.65 -377.95 932.66 -378.94 932.67 C-387.8 932.64 -396.15 930.96 -404.76 928.98 C-406.72 928.54 -408.69 928.13 -410.66 927.73 C-417.13 926.41 -423.19 924.97 -429.27 922.41 C-429.27 921.75 -429.27 921.09 -429.27 920.41 C-429.93 920.41 -430.59 920.41 -431.27 920.41 C-431.47 918.77 -431.65 917.12 -431.84 915.48 C-431.99 914.1 -431.99 914.1 -432.15 912.7 C-432.19 911.95 -432.23 911.19 -432.27 910.41 C-431.94 910.08 -431.61 909.75 -431.27 909.41 C-431.19 908.42 -431.11 907.43 -431.02 906.41 C-429.9 898.09 -424.43 891.73 -418.27 886.41 C-417.49 885.73 -416.71 885.05 -415.9 884.35 C-411.75 882.87 -408.41 884.27 -404.27 885.41 C-402.65 885.76 -401.03 886.1 -399.4 886.41 C-398.56 886.58 -397.73 886.74 -396.87 886.91 C-395.59 887.16 -395.59 887.16 -394.27 887.41 C-393.39 887.59 -392.5 887.77 -391.58 887.95 C-386.02 889.02 -380.53 889.75 -374.88 890.17 C-372.27 890.41 -372.27 890.41 -369.76 890.92 C-365.11 891.58 -360.53 891.58 -355.83 891.58 C-354.82 891.59 -353.82 891.59 -352.78 891.59 C-350.65 891.6 -348.53 891.6 -346.4 891.6 C-343.18 891.6 -339.96 891.62 -336.74 891.64 C-326.71 891.67 -317.12 891.55 -307.27 889.41 C-305.9 889.21 -304.52 889.02 -303.14 888.85 C-301.96 888.71 -300.79 888.56 -299.59 888.41 C-298.41 888.27 -297.23 888.13 -296.01 887.98 C-279.88 885.55 -263.21 880.93 -248.27 874.41 C-247.12 873.91 -245.97 873.41 -244.79 872.9 C-222.87 863.12 -204.01 850.52 -186.27 834.41 C-185.5 833.72 -184.73 833.02 -183.94 832.3 C-153.94 803.71 -139.26 762.54 -135.54 722.21 C-135.3 719.67 -135.01 717.13 -134.71 714.59 C-133.36 702.61 -134.45 690.4 -135.27 678.41 C-129.94 675.7 -125.33 673.97 -119.32 673.69 C-116.97 673.37 -115.32 672.57 -113.27 671.41 C-113.6 670.42 -113.93 669.43 -114.27 668.41 C-135.37 667.61 -148.26 671.73 -163.96 686.22 C-168.41 690.44 -172.7 694.71 -176.71 699.35 C-206.56 733.77 -249.49 751.66 -293.79 758.04 C-296.57 758.46 -299.35 758.95 -302.12 759.43 C-338.86 765.56 -378.12 763.48 -415.15 761.54 C-415.92 761.5 -416.69 761.46 -417.48 761.42 C-425.54 760.99 -433.41 760.34 -441.27 758.41 C-438.62 756.64 -437.26 756.01 -434.28 755.3 C-433.5 755.11 -432.72 754.91 -431.91 754.72 C-431.08 754.51 -430.25 754.31 -429.4 754.1 C-417.49 751.07 -406.48 746.7 -395.39 741.42 C-392.82 740.2 -390.26 739 -387.69 737.8 C-385.66 736.84 -383.62 735.88 -381.59 734.91 C-380.62 734.46 -379.66 734.01 -378.67 733.55 C-373.1 730.9 -367.78 728.04 -362.54 724.78 C-360.2 723.37 -357.82 722.1 -355.4 720.85 C-323.61 703.63 -288.4 678.81 -274.27 644.41 C-277.92 645.95 -280.26 648.17 -283.09 650.91 C-293.93 660.88 -305.45 667.48 -319.27 672.41 C-320.15 672.78 -321.02 673.15 -321.92 673.52 C-349.38 684.78 -383.02 683.66 -412.23 684.77 C-413.65 684.82 -413.65 684.82 -415.09 684.88 C-416.87 684.95 -418.64 685.01 -420.41 685.07 C-425.1 685.25 -429.63 685.73 -434.27 686.41 C-439.13 686.7 -443.98 686.74 -448.84 686.79 C-450.12 686.83 -451.4 686.86 -452.72 686.9 C-464.79 687.01 -475.66 684.54 -484.92 676.36 C-488.14 671.74 -487.36 665.92 -487.02 660.54 C-487 659.87 -486.97 659.2 -486.94 658.51 C-486.63 653.35 -485.24 649.16 -483.27 644.41 C-482.75 643.03 -482.24 641.64 -481.73 640.26 C-478.66 632.09 -475.32 624.21 -471.33 616.46 C-468.4 610.75 -465.78 604.93 -463.2 599.05 C-461.13 594.33 -458.99 589.64 -456.77 584.98 C-450.95 572.61 -445.65 560.05 -441.26 547.11 C-440.2 543.97 -439.06 540.94 -437.73 537.9 C-436.21 534.25 -435.18 530.68 -434.21 526.85 C-433.32 523.35 -432.43 519.89 -431.28 516.46 C-430.06 512.76 -429.15 509.02 -428.27 505.23 C-428.1 504.47 -427.92 503.71 -427.74 502.94 C-423.65 485.06 -421.93 467.41 -422.01 449.1 C-422.02 446.42 -422.01 443.73 -422 441.05 C-421.99 426.35 -422.88 411.76 -426.27 397.41 C-426.46 396.59 -426.65 395.76 -426.85 394.91 C-431.7 374.3 -438.14 353.97 -448.25 335.31 C-449.33 333.31 -450.38 331.31 -451.42 329.3 C-455.27 321.91 -459.26 314.62 -463.34 307.35 C-467.56 299.81 -471.5 292.15 -475.3 284.39 C-476.29 282.38 -477.29 280.38 -478.3 278.39 C-482.23 270.61 -486.04 262.79 -489.68 254.88 C-490.67 252.73 -491.67 250.59 -492.68 248.45 C-495.34 242.78 -497.47 237.09 -499.37 231.12 C-500.28 228.24 -500.28 228.24 -501.84 224.91 C-503.9 219.89 -505.04 214.69 -506.27 209.41 C-506.44 208.76 -506.62 208.1 -506.79 207.43 C-510.32 192.62 -511.29 176.79 -503.59 163.1 C-487.83 139.31 -456.3 133.36 -430.27 127.41 C-428.97 127.11 -427.67 126.8 -426.38 126.49 C-423.35 125.77 -420.31 125.09 -417.27 124.41 C-416.3 124.19 -415.33 123.97 -414.34 123.75 C-408.72 122.5 -403.1 121.37 -397.44 120.36 C-376.02 116.53 -354.89 111.68 -333.81 106.31 C-331.24 105.66 -328.66 105.02 -326.08 104.39 C-319.8 102.86 -313.58 101.29 -307.48 99.13 C-304.77 98.25 -302.04 97.58 -299.27 96.91 C-294.94 95.86 -290.76 94.63 -286.55 93.16 C-283.98 92.32 -281.39 91.61 -278.77 90.91 C-274.7 89.82 -270.71 88.6 -266.72 87.23 C-262.74 85.9 -258.71 84.75 -254.68 83.57 C-251.99 82.66 -249.53 81.65 -246.96 80.47 C-241.58 78.03 -236.04 76.38 -230.38 74.7 C-225.56 73.24 -221.04 71.48 -216.47 69.38 C-213.02 67.86 -209.47 66.68 -205.9 65.48 C-200.09 63.48 -194.5 61.26 -188.95 58.63 C-185.93 57.26 -182.87 56.08 -179.77 54.91 C-174.75 53.02 -169.88 50.92 -165.01 48.66 C-162.17 47.36 -159.29 46.16 -156.4 44.98 C-151.12 42.8 -145.94 40.46 -140.77 38.04 C-130.58 33.3 -120.3 28.73 -110.04 24.15 C-103.48 21.21 -96.92 18.26 -90.4 15.23 C-85.51 12.96 -80.59 10.81 -75.59 8.79 C-74.86 8.49 -74.14 8.2 -73.39 7.9 C-71.97 7.32 -70.56 6.74 -69.14 6.17 C-67.59 5.54 -66.04 4.9 -64.5 4.26 C-44.46 -4.01 -19.73 -13.77 0 0 Z " fill="#FAFCFC" transform="translate(1195.2734375,125.5859375)"/>
<path d="M0 0 C12.42 11.38 19.42 32.35 20.41 48.85 C20.57 71.49 11.95 89.9 -3.75 106.06 C-4.3 106.67 -4.85 107.28 -5.42 107.91 C-23.11 127 -49.85 135.91 -74.75 140.06 C-75.38 140.23 -76 140.4 -76.64 140.57 C-107.9 147.78 -154.48 138.86 -181.75 122.06 C-183.09 119.53 -182.79 118.22 -182.22 115.42 C-178.37 103.3 -174.1 91.13 -167.21 80.37 C-165.63 77.87 -164.26 75.3 -162.88 72.68 C-154.07 56.43 -142.47 42.35 -129.75 29.06 C-128.8 28.04 -128.8 28.04 -127.82 27 C-95.94 -6.1 -41.57 -29.3 0 0 Z " fill="#000100" transform="translate(1096.75390625,384.94140625)"/>
<path d="M0 0 C1.26 -0.01 1.26 -0.01 2.55 -0.01 C5 -0.01 7.43 0.05 9.88 0.12 C10.61 0.13 11.34 0.14 12.1 0.15 C16 0.36 17.69 0.95 20.57 3.64 C23.33 7.52 25.61 11.71 27.81 15.94 C28.25 16.77 28.68 17.6 29.13 18.46 C39.4 38.63 43.41 59.53 42.88 82.12 C42.89 83.16 42.91 84.2 42.93 85.26 C42.83 90.81 42.38 94.31 38.44 98.38 C36.95 99.66 35.42 100.91 33.88 102.12 C33.13 102.76 32.38 103.39 31.61 104.04 C16.09 116.92 -0.9 127.52 -19.12 136.12 C-20.1 136.59 -21.07 137.05 -22.07 137.53 C-41.82 146.33 -63 150.34 -84.5 150.44 C-86.25 150.45 -86.25 150.45 -88.03 150.45 C-115.27 150.23 -140.96 140.52 -162.65 124.23 C-165.36 120.37 -164.25 116.23 -163.75 111.76 C-159.74 89.23 -146.33 69.92 -129.12 55.12 C-128.47 55.12 -127.81 55.12 -127.12 55.12 C-126.8 54.13 -126.47 53.14 -126.12 52.12 C-124.18 50.45 -122.25 48.9 -120.19 47.38 C-119.6 46.93 -119.01 46.49 -118.4 46.03 C-113.39 42.28 -108.32 38.62 -103.12 35.12 C-102.3 34.56 -101.47 34 -100.62 33.42 C-93.46 28.69 -85.95 24.89 -78.24 21.16 C-76.73 20.42 -75.23 19.67 -73.74 18.91 C-50.91 7.28 -25.72 -0.12 0 0 Z " fill="#000100" transform="translate(344.125,332.875)"/>
<path d="M0 0 C0.83 0.24 1.67 0.48 2.52 0.73 C4.72 1.41 6.85 2.17 9 3 C9.71 3.26 10.43 3.53 11.16 3.8 C20.75 7.65 29.93 13.81 35 23 C36.78 27.96 38.06 33.01 39.31 38.12 C39.66 39.48 40.01 40.84 40.36 42.2 C44.36 57.84 47.1 75.5 41 91 C39.22 90.83 39.22 90.83 37 90 C35.25 87.7 35.25 87.7 33.44 84.69 C20.16 63.96 0.39 52.11 -21.56 42.11 C-23.26 41.34 -24.95 40.56 -26.64 39.77 C-32.15 37.22 -37.7 34.91 -43.38 32.77 C-70.78 22.44 -70.78 22.44 -81 12 C-80.77 10.12 -80.77 10.12 -80 8 C-76.93 6.11 -73.41 5.15 -70 4 C-69.05 3.66 -68.09 3.32 -67.11 2.96 C-46.17 -4.09 -21.34 -6.41 0 0 Z " fill="#010201" transform="translate(1107,667)"/>
<path d="M0 0 C-2.96 1.54 -6 2.86 -9.08 4.16 C-22.33 9.78 -34.89 16.71 -47.49 23.66 C-50.17 25.09 -52.89 26.42 -55.62 27.75 C-62.93 31.37 -69.88 35.54 -76.87 39.72 C-78.91 40.94 -80.95 42.16 -83 43.36 C-90.84 48 -98.5 52.83 -106 58 C-106.66 58.45 -107.32 58.91 -107.99 59.37 C-116.97 65.57 -125.73 71.87 -134 79 C-134.85 79.73 -135.7 80.45 -136.57 81.2 C-145.7 89.2 -153.28 97.91 -160 108 C-160.58 108.83 -161.16 109.67 -161.75 110.52 C-173.19 127.19 -182.84 145 -192 163 C-195.37 159.48 -195.45 156.19 -195.43 151.55 C-195.44 150.82 -195.44 150.09 -195.45 149.34 C-195.46 147.78 -195.45 146.23 -195.45 144.68 C-195.44 142.36 -195.47 140.05 -195.5 137.74 C-195.57 122.64 -192.6 108.67 -186 95 C-185.58 94.11 -185.16 93.23 -184.73 92.31 C-178.85 80.67 -170.32 69.99 -160 62 C-159.02 61.24 -158.04 60.47 -157.03 59.68 C-142.92 49 -127.23 41.12 -110.79 34.72 C-108.34 33.73 -105.95 32.63 -103.56 31.5 C-79.52 20.49 -53.65 12.53 -28.16 5.6 C-26.06 5.02 -23.96 4.41 -21.86 3.79 C-20.63 3.43 -19.4 3.06 -18.12 2.69 C-17.1 2.38 -16.07 2.08 -15.01 1.76 C-10.03 0.5 -5.14 -0.16 0 0 Z " fill="#010201" transform="translate(1088,299)"/>
<path d="M0 0 C3 1 3 1 4.62 3.44 C7.82 11.72 7.46 18.87 4 27 C-2.25 39.99 -12.62 50.43 -24 59 C-24.92 59.73 -25.85 60.45 -26.8 61.2 C-32.37 65.51 -38.1 69.44 -44.06 73.19 C-44.69 73.58 -45.31 73.97 -45.95 74.37 C-56.67 80.98 -67.95 86.6 -79.16 92.32 C-86.62 96.13 -93.96 100.07 -101.22 104.26 C-105.31 106.62 -109.44 108.81 -113.69 110.88 C-131.71 119.75 -149.33 129.44 -167 139 C-168 139.54 -168.99 140.08 -170.02 140.63 C-174.72 143.19 -179.4 145.77 -184 148.5 C-190.65 152.4 -197.4 156.1 -204.21 159.7 C-223.27 169.67 -223.27 169.67 -241.69 180.74 C-242.45 181.16 -243.21 181.57 -244 182 C-244.66 181.67 -245.32 181.34 -246 181 C-241.32 177.23 -241.32 177.23 -239 175.56 C-236.89 174 -236.89 174 -234.92 171.81 C-231.39 168.26 -227.35 165.43 -223.31 162.5 C-222.06 161.58 -222.06 161.58 -220.77 160.65 C-218.19 158.76 -215.59 156.88 -213 155 C-211.48 153.9 -209.97 152.79 -208.45 151.69 C-189.99 138.26 -171.31 125.18 -152 113 C-150.51 112.06 -149.03 111.12 -147.54 110.18 C-138.4 104.39 -129.24 98.63 -120 93 C-118.72 92.2 -118.72 92.2 -117.41 91.39 C-113.09 88.74 -108.74 86.34 -104.19 84.12 C-99.87 82.01 -95.81 79.7 -91.75 77.12 C-87.14 74.24 -82.5 71.64 -77.62 69.24 C-76.94 68.9 -76.25 68.55 -75.54 68.2 C-70.6 65.76 -65.62 63.39 -60.64 61.04 C-58.54 60.04 -56.45 59.05 -54.35 58.05 C-52.95 57.39 -51.54 56.73 -50.13 56.08 C-41.52 52.07 -33.86 47.84 -26.44 41.88 C-24.33 40.25 -22.37 39.18 -20 38 C-18.73 35.97 -18.73 35.97 -18 34 C-17.34 34 -16.68 34 -16 34 C-15.73 33.42 -15.46 32.84 -15.18 32.24 C-14 30 -12.68 28.17 -11.12 26.19 C-4.88 17.89 -2.41 9.97 0 0 Z " fill="#010201" transform="translate(396,217)"/>
<path d="M0 0 C0.99 0.5 0.99 0.5 2 1 C-11.96 14.05 -11.96 14.05 -17.84 19.46 C-19.99 21.44 -22.13 23.42 -24.27 25.4 C-25.45 26.49 -26.63 27.58 -27.82 28.67 C-38.58 38.62 -48.97 48.89 -59.27 59.31 C-64.15 64.24 -69.08 69.03 -74.36 73.54 C-86.43 84.25 -93.56 99.56 -100.09 114 C-100.9 115.79 -101.75 117.57 -102.59 119.34 C-106.54 127.65 -109.86 136.16 -113.13 144.75 C-114.04 147.09 -114.98 149.42 -115.92 151.75 C-118.77 158.84 -121.27 166.05 -123.82 173.25 C-124.2 174.32 -124.58 175.39 -124.98 176.49 C-125.32 177.45 -125.66 178.42 -126.01 179.41 C-126.88 181.7 -127.86 183.84 -129 186 C-130.6 180.36 -131.32 175.35 -131.25 169.5 C-131.24 168.72 -131.24 167.94 -131.23 167.14 C-130.89 146.69 -127.02 125.41 -118 107 C-117.39 105.72 -116.79 104.45 -116.18 103.17 C-104.3 78.48 -86.71 60.1 -65.13 43.64 C-63.49 42.38 -61.87 41.11 -60.25 39.83 C-51.52 32.99 -42.44 26.8 -33.19 20.69 C-31.72 19.72 -30.26 18.74 -28.8 17.77 C-27.38 16.83 -25.96 15.89 -24.54 14.95 C-23.58 14.31 -23.58 14.31 -22.6 13.66 C-19.33 11.5 -16.03 9.36 -12.72 7.25 C-11.76 6.64 -11.76 6.64 -10.78 6.02 C-9 5 -9 5 -6 4 C-5.01 3.34 -4.02 2.68 -3 2 C-2.01 1.34 -1.02 0.68 0 0 Z " fill="#020302" transform="translate(384,697)"/>
<path d="M0 0 C0 2 0 2 -2.14 4.2 C-3.09 5.13 -4.03 6.05 -5 7 C-6.43 8.63 -7.81 10.29 -9.2 11.96 C-17.36 21.76 -25.71 29.89 -37 36 C-38.68 36.92 -38.68 36.92 -40.4 37.86 C-52.12 44.22 -64.01 50.31 -76.19 55.73 C-78.86 56.94 -81.5 58.18 -84.14 59.43 C-91.36 62.85 -98.66 66.02 -106.04 69.07 C-111.08 71.16 -116.06 73.37 -121.02 75.64 C-126.54 78.16 -132.08 80.6 -137.62 83.06 C-138.79 83.58 -139.95 84.1 -141.15 84.63 C-143.4 85.63 -145.66 86.63 -147.92 87.62 C-149.86 88.49 -151.8 89.38 -153.73 90.3 C-154.53 90.67 -155.33 91.05 -156.15 91.43 C-156.83 91.76 -157.51 92.09 -158.21 92.43 C-160 93 -160 93 -163 92 C-161.71 91.33 -160.42 90.66 -159.12 90 C-158.41 89.63 -157.69 89.26 -156.95 88.88 C-155 88 -155 88 -153 88 C-152.5 87.01 -152.5 87.01 -152 86 C-151.22 85.69 -150.43 85.38 -149.62 85.06 C-147.02 84.21 -147.02 84.21 -145.59 82.56 C-143.8 80.8 -142.19 79.98 -139.9 78.95 C-139.11 78.58 -138.31 78.22 -137.49 77.84 C-136.65 77.46 -135.81 77.08 -134.94 76.69 C-128.92 73.91 -123.15 71.04 -117.54 67.5 C-114.34 65.61 -111.03 64 -107.69 62.38 C-99.17 58.21 -90.99 53.5 -82.79 48.75 C-79.26 46.72 -75.71 44.73 -72.12 42.81 C-65.27 39.12 -58.64 35.06 -52 31 C-50.99 30.39 -49.99 29.78 -48.95 29.15 C-43.5 25.77 -38.49 22.1 -33.53 18.04 C-10.44 -0.6 -10.44 -0.6 0 0 Z " fill="#020302" transform="translate(385,443)"/>
<path d="M0 0 C3 1 3 1 4 3 C1.07 4.37 -1.87 5.72 -4.81 7.06 C-5.65 7.45 -6.48 7.84 -7.34 8.24 C-8.14 8.61 -8.94 8.97 -9.77 9.35 C-10.51 9.69 -11.25 10.03 -12.01 10.38 C-14 11 -14 11 -17 10 C-15.71 9.33 -14.42 8.66 -13.12 8 C-12.41 7.63 -11.69 7.26 -10.95 6.88 C-9 6 -9 6 -7 6 C-6.67 5.34 -6.34 4.68 -6 4 C-4.33 3.33 -2.67 2.67 -1 2 C-0.67 1.34 -0.34 0.68 0 0 Z " fill="#303130" transform="translate(239,525)"/>
</svg>
