<?xml version="1.0" standalone="no"?>
<!DOCTYPE svg PUBLIC "-//W3C//DTD SVG 20010904//EN"
 "http://www.w3.org/TR/2001/REC-SVG-20010904/DTD/svg10.dtd">
<svg version="1.0" xmlns="http://www.w3.org/2000/svg"
 width="813.000000pt" height="813.000000pt" viewBox="0 0 813.000000 813.000000"
 preserveAspectRatio="xMidYMid meet">

<g transform="translate(0.000000,813.000000) scale(0.100000,-0.100000)"
fill="#000000" stroke="none">
<path d="M3795 8059 c-964 -69 -1854 -470 -2539 -1147 -659 -651 -1052 -1451
-1173 -2387 -22 -176 -25 -718 -5 -890 71 -591 251 -1138 530 -1605 678 -1139
1828 -1862 3135 -1970 210 -18 646 -8 842 19 1170 159 2185 794 2829 1770 794
1200 883 2720 236 4011 -38 76 -92 177 -121 225 l-51 88 80 311 c108 420 108
416 91 427 -8 5 -94 9 -191 9 -189 0 -372 12 -531 35 l-99 15 -106 93 c-285
249 -560 433 -887 594 -631 310 -1347 451 -2040 402z m404 -270 c93 -20 134
-74 135 -175 0 -120 -65 -174 -209 -174 -95 0 -150 21 -186 71 -33 46 -35 163
-3 205 55 75 143 99 263 73z m-393 -45 c42 -31 66 -86 67 -153 0 -77 -23 -117
-88 -151 -42 -21 -63 -25 -140 -25 -79 0 -94 3 -124 24 -93 67 -94 240 -1 295
52 30 80 35 172 33 70 -2 92 -6 114 -23z m794 1 c100 -14 184 -25 186 -25 2 0
2 -10 -1 -22 -13 -52 -41 -298 -34 -296 4 2 51 64 104 138 54 74 99 137 100
139 4 4 151 -30 164 -38 10 -6 55 -360 47 -368 -2 -2 -29 3 -60 12 -54 16 -56
18 -56 50 0 32 -3 34 -52 49 -88 25 -108 29 -108 20 0 -5 -8 -19 -18 -31 -16
-22 -19 -22 -72 -9 -30 8 -81 17 -112 21 l-57 6 5 32 c3 18 10 73 18 124 l13
91 -31 6 c-17 3 -54 8 -82 12 l-51 6 -12 -93 c-21 -169 -15 -156 -72 -149 -27
4 -51 8 -53 11 -3 2 4 61 15 129 10 69 19 141 19 161 0 30 6 49 16 49 1 0 84
-11 184 -25z m-1260 -78 c46 -30 70 -75 77 -140 10 -98 -42 -162 -158 -193
-149 -39 -247 16 -265 149 -8 56 8 106 46 142 66 63 235 87 300 42z m2251
-443 c140 -48 364 -125 499 -171 544 -187 752 -229 1198 -240 170 -4 242 -9
239 -17 -2 -6 -44 -159 -92 -341 -48 -181 -95 -355 -105 -385 -53 -158 -105
-465 -102 -600 l2 -65 -35 40 c-39 45 -42 40 -19 -27 8 -26 14 -64 12 -85 l-3
-38 -35 55 c-40 63 -50 51 -26 -31 9 -29 16 -68 16 -87 0 -35 0 -35 -52 39
-28 40 -53 68 -56 61 -2 -6 11 -43 28 -80 19 -42 30 -81 28 -98 -3 -28 -4 -27
-48 34 -24 35 -46 59 -48 54 -2 -6 6 -46 18 -90 23 -91 23 -92 12 -92 -4 0
-16 23 -27 52 l-18 52 -13 -61 c-7 -33 -20 -76 -30 -94 -18 -36 -85 -139 -90
-139 -1 0 9 28 24 63 23 53 27 76 27 162 0 92 -3 106 -32 167 -45 95 -131 183
-206 211 -30 11 -12 -29 49 -108 113 -149 134 -269 88 -495 -19 -90 -43 -138
-98 -199 -23 -25 -57 -65 -74 -88 -34 -44 -119 -93 -160 -93 -13 0 -33 5 -45
12 -12 6 -48 10 -80 9 -33 -1 -82 5 -115 16 -55 17 -136 19 -377 11 -71 -3
-129 22 -200 84 -51 45 -58 41 -19 -9 14 -19 23 -37 20 -40 -10 -10 -112 75
-157 132 -70 88 -57 54 25 -61 41 -60 73 -110 71 -112 -14 -14 -139 98 -203
183 -22 29 -22 28 2 -21 22 -46 51 -82 160 -203 24 -25 26 -31 10 -23 -30 16
-127 123 -184 204 -174 248 -281 662 -267 1033 7 195 71 688 199 1538 8 52 16
76 24 73 7 -3 126 -44 265 -92z m-2433 -1384 c17 -11 32 -22 32 -25 0 -2 -33
-2 -72 1 -51 4 -88 1 -121 -9 -60 -19 -59 -2 3 30 53 28 114 30 158 3z m456
14 c10 -4 -4 -16 -46 -39 -110 -58 -220 -147 -381 -308 -175 -176 -181 -174
-61 23 36 60 64 114 62 120 -2 7 -31 -17 -63 -52 -52 -56 -83 -109 -241 -419
-197 -384 -306 -622 -419 -909 -101 -256 -226 -603 -265 -735 -36 -123 -56
-159 -45 -80 16 108 186 589 453 1282 18 48 11 64 -17 39 -19 -18 -19 -17 -9
18 6 19 29 57 51 83 71 86 136 193 233 388 85 170 91 186 58 150 -79 -87 -146
-187 -233 -349 -80 -148 -128 -223 -137 -213 -2 2 14 49 36 105 45 115 46 119
25 102 -24 -20 -84 -125 -133 -229 -24 -53 -42 -86 -39 -73 8 33 -5 21 -81
-81 -252 -334 -408 -741 -438 -1142 -6 -72 -9 -85 -17 -67 -25 56 33 370 114
617 70 211 145 361 286 566 66 96 166 249 222 340 194 313 363 512 559 659 98
73 256 164 339 195 39 14 159 20 187 9z m223 -25 c-9 -6 -41 -18 -70 -29 -28
-10 -103 -37 -166 -59 -119 -43 -129 -38 -38 21 70 45 170 77 237 77 43 0 51
-2 37 -10z m38 -78 c-6 -5 -38 -21 -71 -35 -219 -91 -563 -373 -769 -631 -43
-55 -97 -123 -120 -151 -22 -28 -60 -73 -84 -100 l-44 -49 6 33 c11 56 82 196
148 293 71 103 237 282 344 369 155 127 329 224 465 259 81 21 140 27 125 12z
m-832 -18 c-21 -16 -36 -16 -98 2 l-50 14 83 -2 c69 -2 79 -4 65 -14z m1312
-33 c28 -14 60 -40 72 -59 37 -55 28 -67 -19 -27 -68 59 -136 79 -260 80 -58
1 -105 2 -104 3 1 2 20 10 42 18 63 24 207 16 269 -15z m-1509 -10 c106 -22
140 -37 59 -26 -134 18 -144 18 -194 1 -33 -11 -73 -36 -116 -76 -88 -80 -130
-99 -235 -109 -100 -9 -142 -27 -171 -73 -18 -28 -20 -29 -14 -7 24 88 75 120
190 120 105 0 168 29 227 104 44 56 89 86 129 86 15 0 71 -9 125 -20z m1429
-60 l40 -18 -91 -1 c-127 -1 -193 -17 -301 -72 -51 -26 -93 -46 -93 -44 0 7
144 117 172 131 66 34 200 36 273 4z m-608 -127 c-169 -167 -278 -290 -550
-620 -114 -139 -210 -253 -213 -253 -6 0 -20 -19 206 280 102 134 191 253 198
262 7 10 9 18 4 18 -5 0 -38 -35 -73 -77 -35 -42 -157 -185 -272 -318 -254
-293 -273 -317 -353 -452 -69 -117 -83 -113 -31 8 45 101 99 189 167 268 31
37 96 116 145 176 283 348 535 600 758 759 59 42 135 86 148 86 3 0 -57 -62
-134 -137z m-791 84 c12 -12 -1 -18 -72 -33 -42 -8 -115 -37 -186 -74 -65 -32
-118 -55 -118 -51 0 13 94 97 131 117 82 45 114 54 176 51 34 -2 65 -6 69 -10z
m-111 -106 c-20 -17 -232 -160 -285 -191 -47 -28 -91 -48 -162 -73 -10 -3 -15
-12 -12 -20 10 -27 97 -2 213 63 61 34 115 60 121 58 10 -3 -149 -122 -200
-148 -39 -21 -124 -13 -270 24 -74 19 -130 36 -125 37 6 2 62 3 125 4 141 1
189 17 329 113 114 78 229 142 256 142 11 0 15 -3 10 -9z m1705 -2 c153 -24
252 -103 274 -219 7 -34 6 -33 -23 16 -37 63 -89 110 -158 141 -54 25 -173 51
-248 54 l-40 2 45 7 c69 11 80 11 150 -1z m-4 -73 c68 -21 152 -78 187 -126
42 -60 32 -66 -25 -15 -135 118 -269 138 -468 70 -40 -14 -90 -25 -111 -25
-36 0 -205 58 -196 67 3 2 37 -6 77 -18 86 -26 136 -22 212 17 29 15 71 33 93
41 49 16 159 11 231 -11z m-20 -107 c44 -21 107 -79 69 -64 -74 29 -99 34
-170 35 -51 0 -107 -7 -153 -20 -39 -11 -84 -20 -99 -20 -23 1 -16 7 40 36
129 66 223 76 313 33z m-601 -40 c76 -14 120 -37 190 -99 76 -66 143 -90 272
-97 56 -3 100 -9 98 -13 -9 -15 -138 -33 -199 -28 -73 6 -101 20 -205 97 -95
70 -163 100 -244 107 -59 6 -94 -1 -202 -42 -18 -7 -19 -6 -6 10 20 24 67 47
126 62 64 16 98 16 170 3z m542 -61 c25 -10 16 -13 -82 -20 -60 -5 -121 -7
-135 -5 -21 2 -18 5 20 19 53 19 157 23 197 6z m-539 -47 c21 -11 80 -52 132
-92 52 -40 119 -83 150 -96 53 -23 53 -23 15 -17 -62 10 -122 39 -199 98 -123
94 -194 118 -283 98 -51 -12 -55 -6 -10 13 48 21 150 19 195 -4z m-1642 -21
c91 -19 127 -30 93 -30 -24 1 -225 48 -208 49 9 1 61 -8 115 -19z m285 -39
c-16 -29 -67 -68 -107 -81 -48 -16 -193 -7 -257 15 -26 10 -46 20 -43 22 3 3
41 0 85 -8 98 -15 173 -4 264 40 34 16 63 30 65 30 1 1 -2 -8 -7 -18z m1141
-22 c57 -12 139 -50 203 -95 22 -15 76 -47 120 -70 l80 -44 -56 0 c-73 0 -117
16 -212 78 -97 64 -159 84 -251 84 -54 0 -88 -6 -135 -25 l-63 -26 28 31 c65
68 168 92 286 67z m1080 -108 c26 -9 47 -9 72 -2 42 11 44 9 14 -19 -43 -40
-121 -16 -169 52 l-23 33 34 -26 c19 -14 52 -31 72 -38z m-1075 -11 c45 -20
255 -162 248 -168 -9 -9 -88 22 -145 58 -106 66 -149 84 -223 88 -96 6 -151
-12 -209 -68 -26 -25 -48 -45 -48 -43 0 14 33 62 57 84 83 77 212 97 320 49z
m887 8 c15 -24 65 -151 144 -368 42 -118 46 -133 52 -261 l7 -136 95 -239 c53
-131 99 -255 102 -275 10 -56 -8 -64 -128 -62 -69 2 -122 -3 -169 -15 -67 -17
-69 -16 -84 3 -14 20 -13 77 3 119 15 39 -34 -3 -55 -47 -30 -62 -28 -119 7
-158 24 -27 38 -32 112 -43 93 -13 101 -19 115 -98 l7 -36 -39 5 c-28 4 -56
-2 -103 -22 -42 -18 -85 -28 -122 -29 -67 -2 -104 -25 -114 -70 l-7 -29 54 6
c104 13 247 20 272 13 30 -7 44 -41 26 -63 -10 -11 -25 -14 -59 -10 -45 5 -45
5 -77 -44 -18 -27 -33 -53 -33 -58 0 -4 17 -11 38 -14 76 -13 152 -109 152
-193 0 -85 -60 -144 -145 -144 -128 0 -592 181 -937 366 -163 88 -416 238
-453 270 l-30 26 35 -20 c137 -76 361 -194 500 -261 165 -80 520 -234 526
-229 1 2 -115 66 -259 143 -143 77 -326 177 -406 223 -138 79 -351 210 -351
217 0 1 56 -26 123 -61 158 -81 468 -226 474 -221 11 11 -180 130 -449 281
-76 42 -138 81 -138 86 0 4 109 -43 241 -106 307 -146 333 -139 70 17 -105 63
-191 117 -191 122 0 13 52 -4 150 -50 91 -42 170 -68 170 -54 0 3 -54 41 -120
85 -104 68 -137 96 -114 96 3 0 48 -19 100 -42 127 -56 139 -40 26 37 -92 63
-93 78 -7 56 84 -21 100 -9 35 28 -47 26 -53 35 -45 61 5 15 12 18 36 13 29
-6 29 -5 18 21 -9 20 -10 39 -1 78 6 29 14 105 17 168 6 113 7 117 61 235 85
187 85 186 139 218 28 16 100 77 160 136 129 126 159 148 320 229 66 34 143
74 170 91 61 36 61 36 79 9z m-2271 -15 c136 -6 176 -23 53 -23 -71 0 -213 23
-225 37 -3 3 5 3 19 -1 14 -4 82 -10 153 -13z m-305 -78 c-63 -51 -108 -111
-146 -192 -23 -50 -26 -71 -27 -155 0 -64 -3 -90 -8 -75 -5 12 -7 67 -5 122 3
83 8 110 31 160 37 80 71 121 125 156 74 47 94 37 30 -16z m121 -13 c-64 -41
-136 -117 -166 -176 -14 -28 -32 -87 -39 -131 l-13 -80 3 90 c2 77 7 98 33
150 46 91 145 173 207 175 14 0 5 -9 -25 -28z m54 -60 c-26 -21 -63 -56 -82
-77 -36 -41 -91 -148 -91 -177 0 -10 -5 -18 -11 -18 -17 0 -2 94 22 141 29 57
76 107 133 140 72 41 87 36 29 -9z m67 -99 c-113 -108 -136 -144 -154 -247
l-13 -71 -8 48 c-24 149 124 351 268 366 5 1 -37 -42 -93 -96z m1450 60 c87
-24 80 -31 -31 -30 -159 3 -216 -29 -312 -172 -50 -76 -122 -99 -207 -66 l-35
13 61 0 c60 0 109 16 131 44 5 7 24 38 41 69 47 88 61 107 99 130 67 42 137
45 253 12z m-1105 -33 c6 -9 -177 -324 -195 -335 -9 -5 -2 20 41 160 18 58 19
58 13 15 -7 -57 8 -39 36 45 27 80 55 125 79 125 11 0 22 -4 26 -10z m1325
-54 c0 -10 -115 -37 -178 -42 -121 -10 -157 -28 -259 -126 -50 -49 -109 -96
-129 -104 -47 -20 -156 -21 -208 -2 l-39 14 79 1 c122 0 186 38 260 153 29 46
50 66 88 85 47 24 59 25 218 25 92 0 168 -2 168 -4z m-1028 -148 c-60 -95
-303 -434 -289 -403 28 63 218 363 249 394 49 49 68 53 40 9z m215 -14 c-3 -3
-12 -4 -19 -1 -8 3 -5 6 6 6 11 1 17 -2 13 -5z m3161 -68 c45 -14 116 -30 157
-35 117 -17 126 -24 178 -148 72 -172 186 -461 197 -504 15 -53 0 -109 -129
-503 -153 -463 -211 -657 -211 -703 0 -32 20 -75 105 -223 l105 -184 -75 -90
c-41 -50 -98 -118 -128 -150 l-53 -59 -50 64 c-45 58 -151 206 -167 236 -5 7
0 9 14 6 20 -6 20 -3 -6 38 -16 24 -45 70 -67 101 l-38 57 37 10 c21 5 55 13
76 18 65 14 46 24 -53 26 -113 3 -168 27 -240 103 -45 47 -45 48 -5 14 43 -36
121 -74 175 -85 l35 -7 -20 22 c-11 12 -38 34 -60 48 -45 28 -95 72 -95 84 0
4 23 -1 50 -12 58 -23 64 -13 15 24 -23 18 -35 35 -35 52 0 13 -18 57 -41 97
l-40 72 53 -51 c54 -52 88 -72 88 -52 0 9 -22 48 -79 138 -9 15 4 7 36 -22 45
-41 93 -63 93 -42 0 3 -20 35 -45 71 -26 36 -44 67 -42 69 2 2 25 -10 51 -26
43 -28 76 -38 76 -24 0 3 -9 17 -20 31 -26 34 -25 39 10 52 l31 10 -21 42
c-12 22 -17 38 -12 35 5 -3 15 -19 22 -36 12 -29 33 -39 44 -21 3 5 -1 25 -9
45 -19 46 -19 46 10 46 28 0 33 15 9 28 -14 8 -12 12 15 31 34 25 40 41 14 41
-29 0 -1 19 42 28 l40 10 -32 12 c-40 14 -41 24 -8 46 14 9 25 20 25 24 0 4
-24 12 -52 17 l-53 10 30 12 30 13 -30 24 c-16 13 -68 38 -115 55 -104 37
-170 73 -205 109 l-27 29 -32 -41 c-45 -59 -80 -82 -126 -83 -38 0 -40 -2 -40
-31 0 -27 -4 -31 -41 -40 -39 -9 -42 -12 -75 -89 -31 -72 -62 -115 -84 -115
-5 0 6 25 24 54 18 30 45 98 60 152 35 126 56 165 130 243 92 96 152 141 189
141 18 0 94 -28 172 -64 193 -88 392 -166 422 -166 39 0 24 19 -70 92 -60 45
-96 67 -115 66 -15 0 -106 37 -202 81 -96 44 -188 81 -204 81 -16 0 -49 -12
-74 -26 l-45 -27 64 93 c74 106 119 150 156 150 14 0 165 -59 337 -131 394
-166 404 -170 410 -160 6 10 -45 58 -146 140 -67 54 -97 90 -136 168 -19 37
-20 45 -8 75 7 18 16 48 20 67 l6 34 -56 -6 c-83 -9 -170 9 -243 49 -50 28
-66 32 -72 22 -5 -7 -9 -16 -9 -20 0 -15 -76 -57 -143 -79 -46 -16 -87 -39
-130 -75 -57 -48 -235 -149 -245 -139 -15 15 192 250 265 301 37 27 100 73
138 104 39 31 79 62 90 68 33 19 126 14 213 -12z m-4440 -229 c20 -38 59 -93
85 -123 27 -30 42 -54 35 -54 -25 0 -44 23 -98 117 -63 111 -97 194 -105 253
-4 33 1 22 20 -40 15 -47 43 -116 63 -153z m1715 202 c-10 -17 -42 -53 -71
-80 -85 -78 -182 -97 -301 -60 -54 17 -151 65 -151 76 0 2 33 -8 73 -22 57
-21 92 -26 167 -27 86 -1 99 2 141 26 25 15 68 47 95 72 58 53 72 58 47 15z
m117 5 c0 -3 -11 -29 -25 -57 -34 -72 -88 -133 -144 -161 -104 -53 -259 -60
-344 -16 -43 23 -149 101 -144 106 1 2 34 -13 72 -32 82 -40 170 -59 234 -49
94 14 147 43 242 131 83 76 109 95 109 78z m-670 -349 c91 -94 202 -155 284
-155 52 0 91 24 146 89 36 42 45 49 53 36 15 -27 -30 -104 -81 -136 -116 -74
-247 -40 -389 100 -49 48 -113 131 -113 146 0 11 53 -32 100 -80z m-773 43
c-3 -7 -5 -2 -5 12 0 14 2 19 5 13 2 -7 2 -19 0 -25z m727 -113 c118 -126 183
-168 280 -180 98 -13 223 40 267 112 11 18 31 66 43 106 l23 72 8 -38 c11 -55
-2 -118 -35 -170 -96 -151 -388 -149 -550 4 -30 28 -190 225 -190 234 0 16 58
-37 154 -140z m-737 73 c-3 -8 -6 -5 -6 6 -1 11 2 17 5 13 3 -3 4 -12 1 -19z
m4093 5 c0 -40 -16 -47 -49 -22 -41 30 -39 39 9 39 31 0 40 -4 40 -17z m-4365
-116 c14 -14 -63 1 -98 19 -34 18 -67 50 -67 65 0 10 144 -63 165 -84z m262
61 c-3 -8 -6 -5 -6 6 -1 11 2 17 5 13 3 -3 4 -12 1 -19z m649 -69 c31 -44 54
-82 52 -85 -3 -2 -29 31 -60 74 -66 94 -75 107 -60 98 6 -4 36 -43 68 -87z
m-980 -44 l69 -25 -47 4 c-26 2 -62 13 -80 25 -44 27 -27 26 58 -4z m774 -294
c11 -30 32 -72 47 -94 27 -38 69 -74 78 -65 2 2 -14 40 -35 83 -22 44 -42 96
-45 115 -6 32 -4 31 24 -21 37 -69 77 -110 134 -138 59 -29 80 -27 115 13 l30
34 20 -72 c36 -123 38 -151 11 -170 -34 -23 -105 -20 -166 8 -137 64 -306 375
-262 481 12 29 13 27 21 -44 5 -41 18 -100 28 -130z m-493 137 c-3 -7 -5 -2
-5 12 0 14 2 19 5 13 2 -7 2 -19 0 -25z m1133 -18 l55 -7 -60 -1 c-33 0 -78 3
-100 7 l-40 9 45 0 c25 0 70 -3 100 -8z m-1150 -171 c-5 -90 -10 -182 -10
-204 0 -59 -17 -25 -26 52 -5 46 0 97 17 192 13 72 25 129 27 127 1 -2 -2 -77
-8 -167z m1110 62 c44 -8 44 -9 -20 -9 -36 0 -74 3 -85 8 -27 11 42 12 105 1z
m-745 -184 c-8 -18 -51 -68 -94 -109 -99 -96 -124 -151 -125 -278 -1 -94 11
-128 68 -189 21 -22 24 -30 11 -23 -104 53 -135 247 -64 397 23 48 211 259
217 243 2 -4 -4 -22 -13 -41z m70 -64 c-10 -15 -53 -64 -96 -110 -65 -69 -81
-93 -95 -140 -19 -64 -12 -123 22 -199 10 -21 20 -43 22 -49 3 -5 -5 -2 -16 9
-37 33 -62 97 -62 162 0 87 38 158 145 272 84 89 117 112 80 55z m-1821 -37
c43 -18 66 -51 66 -97 0 -74 -78 -124 -154 -99 -46 15 -69 49 -69 101 0 45 22
74 68 95 38 17 49 17 89 0z m1834 -88 c-73 -71 -96 -108 -104 -172 -8 -56 8
-105 52 -157 38 -46 42 -54 17 -40 -26 13 -58 51 -77 88 -22 44 -21 148 3 193
18 33 161 163 170 154 2 -2 -25 -32 -61 -66z m5030 46 c65 -14 73 -19 70 -37
-2 -15 -28 -35 -92 -68 l-89 -47 34 -7 c91 -18 109 -26 109 -45 0 -25 5 -25
-112 2 -74 16 -98 25 -98 37 0 27 12 37 95 79 l80 40 -40 10 c-22 6 -54 13
-71 17 -26 5 -31 10 -26 27 5 22 2 22 140 -8z m-5387 -76 c-33 -58 -61 -153
-61 -205 0 -25 -3 -31 -16 -26 -33 12 9 153 73 246 37 53 38 46 4 -15z m1590
-282 c243 -121 434 -200 568 -237 110 -30 88 -37 -26 -9 -229 58 -517 188
-875 396 -109 64 -198 118 -198 120 0 2 69 -32 153 -77 83 -44 254 -131 378
-193z m-1225 205 c-20 -38 -20 -111 -1 -158 15 -36 15 -36 -4 -19 -46 42 -50
118 -10 183 26 41 37 37 15 -6z m854 -109 c192 -115 327 -181 545 -266 211
-83 222 -88 170 -80 -92 13 -381 137 -590 251 -135 74 -275 164 -296 190 -12
15 -12 16 1 8 8 -5 85 -51 170 -103z m-2591 46 c6 -29 14 -63 17 -74 4 -16 0
-23 -15 -27 -12 -3 -21 -2 -22 1 -8 95 -15 108 -49 97 -15 -5 -19 -12 -15 -23
17 -45 18 -72 1 -72 -17 0 -20 5 -30 53 -6 24 -10 26 -34 21 -15 -4 -28 -8
-29 -8 -7 -5 21 -81 34 -94 14 -14 13 -17 -7 -24 -13 -5 -26 -6 -29 -2 -3 3
-15 38 -27 77 l-21 72 91 26 c126 37 121 38 135 -23z m6671 -23 c16 -8 36 -28
44 -43 l15 -27 1 28 c0 27 6 32 33 21 13 -5 14 -11 3 -42 -7 -20 -20 -38 -29
-40 -8 -2 -33 13 -55 32 -47 42 -75 45 -98 11 -14 -21 -15 -30 -5 -52 11 -25
13 -25 81 -19 78 8 86 3 72 -49 -6 -20 -16 -31 -30 -33 -25 -4 -29 16 -9 37
10 12 8 13 -8 6 -11 -4 -37 -9 -57 -12 -32 -5 -41 -1 -68 25 -34 34 -38 67
-14 117 24 52 72 67 124 40z m-4480 -46 c27 -17 50 -33 50 -36 0 -4 -50 24
-95 54 -39 26 -4 12 45 -18z m-835 -172 l16 -32 -19 24 c-23 28 -42 87 -41
122 0 13 7 0 15 -29 7 -29 21 -67 29 -85z m996 70 c13 -10 6 -8 -17 5 -22 13
-52 31 -65 41 -13 10 -6 8 17 -5 22 -13 52 -31 65 -41z m124 -74 c11 -7 16
-13 12 -13 -9 0 -107 61 -107 67 0 4 50 -24 95 -54z m-2413 24 c4 -7 8 -14 7
-17 0 -3 -40 -38 -89 -77 -81 -66 -89 -71 -95 -52 -5 14 0 28 14 43 18 19 20
27 10 54 -8 25 -17 31 -42 34 -22 2 -33 9 -35 22 -4 18 1 19 109 12 69 -5 117
-12 121 -19z m2349 -70 c403 -231 744 -370 959 -392 67 -7 136 6 95 18 -11 3
-80 22 -153 43 -132 37 -169 53 -76 34 27 -5 100 -16 163 -24 64 -9 120 -21
128 -28 7 -8 55 -161 107 -342 52 -180 99 -333 105 -339 8 -8 11 19 11 102 0
101 2 112 16 107 45 -17 293 -88 399 -115 200 -49 451 -95 694 -126 151 -19
186 -33 205 -77 18 -41 56 -161 56 -175 0 -6 -35 -25 -77 -43 -77 -33 -181
-97 -319 -196 -208 -148 -714 -303 -1129 -345 -147 -14 -497 -14 -625 0 -152
18 -310 43 -310 50 0 3 53 15 118 25 142 22 154 25 146 37 -8 13 -140 79 -241
119 -46 19 -81 35 -79 37 2 2 39 -10 82 -26 43 -15 111 -38 151 -49 60 -17 72
-18 77 -6 9 22 -51 54 -296 160 -125 54 -226 100 -224 101 2 2 102 -31 222
-72 158 -55 224 -73 238 -67 17 7 11 14 -42 46 -33 20 -99 55 -146 77 -48 22
-86 41 -86 43 0 2 52 -12 116 -31 63 -20 118 -33 121 -29 3 3 -1 16 -10 29
-10 15 -59 43 -136 77 -66 30 -119 55 -117 57 2 2 51 -8 111 -23 80 -19 110
-23 119 -14 17 17 -26 44 -129 81 -158 56 -196 71 -193 75 2 2 78 -19 168 -46
235 -72 232 -55 -15 67 -82 41 -143 72 -135 69 21 -6 240 -97 401 -166 154
-66 262 -101 399 -129 184 -37 187 -32 15 27 -215 74 -352 128 -535 209 -134
60 -370 180 -370 188 0 2 39 -14 88 -37 299 -138 561 -235 780 -287 74 -18
135 -31 137 -29 3 2 -123 52 -278 112 -310 119 -487 196 -629 275 -134 75
-160 100 -43 43 250 -123 495 -222 673 -272 118 -34 132 -35 132 -17 0 6 -53
32 -118 56 -275 104 -568 240 -756 351 -47 28 -86 52 -86 54 0 2 84 -39 188
-90 218 -107 418 -188 587 -237 148 -43 210 -58 199 -48 -5 4 -115 52 -244
106 -129 54 -302 131 -385 172 -149 74 -327 174 -321 180 2 2 19 -5 37 -16 51
-30 331 -158 439 -201 167 -66 428 -146 452 -138 6 2 -34 21 -88 42 -231 91
-510 223 -706 333 -161 91 -129 79 164 -60 220 -105 498 -204 618 -221 33 -5
5 10 -110 57 -210 87 -340 146 -500 228 -129 65 -344 189 -365 210 -5 6 108
-48 251 -119 144 -71 320 -152 391 -181 115 -45 312 -101 353 -101 8 0 -50 28
-130 61 -194 81 -382 168 -510 236 -135 72 -330 183 -330 189 0 2 76 -34 169
-81 207 -103 335 -161 465 -210 101 -37 325 -100 332 -92 2 2 -40 21 -94 42
-271 106 -574 254 -801 391 -167 100 -202 129 -71 59 361 -193 624 -311 813
-364 176 -49 191 -45 47 14 -197 80 -465 214 -781 391 -154 86 -279 158 -279
161 0 2 69 -31 153 -75 582 -304 706 -362 862 -406 89 -25 233 -49 218 -36 -4
4 -55 24 -113 45 -159 57 -298 118 -480 211 -148 74 -439 241 -465 265 -5 6
145 -68 335 -164 462 -233 543 -265 711 -286 110 -14 111 -1 3 34 -171 56
-332 123 -529 220 -171 85 -495 269 -520 297 -5 6 6 2 25 -9 19 -12 78 -46
131 -76z m4194 49 c128 -49 126 -66 -16 -115 l-83 -29 34 -14 c19 -8 52 -20
72 -27 33 -11 37 -15 28 -32 -6 -10 -13 -19 -15 -19 -2 0 -39 14 -82 30 -42
17 -83 30 -90 30 -17 0 -23 13 -16 38 4 16 24 27 87 48 44 15 85 29 90 32 5 3
-20 16 -55 29 -74 28 -71 26 -63 47 8 21 4 21 109 -18z m-5271 -63 c21 -29 34
-53 29 -53 -16 0 -51 44 -68 85 -19 46 -13 41 39 -32z m-1191 -124 l35 -87
-24 -11 c-25 -11 -28 -7 -25 29 0 8 -3 21 -8 29 -7 12 -23 8 -91 -19 -68 -27
-83 -31 -91 -19 -14 23 -12 25 69 56 59 23 78 35 80 52 2 12 -3 24 -12 27 -21
8 -20 32 2 37 23 5 24 4 65 -94z m4770 -61 c9 -21 37 -61 64 -89 26 -29 39
-47 28 -41 -66 35 -124 137 -131 230 l-4 57 14 -60 c8 -33 21 -77 29 -97z
m-3096 -93 c-2 -12 -10 3 -21 39 -17 56 -17 122 2 150 7 12 25 -156 19 -189z
m-98 88 c1 -23 6 -65 12 -92 13 -60 1 -106 -35 -140 -21 -19 -85 -45 -93 -37
-2 1 4 17 13 35 13 27 14 42 5 95 -6 34 -10 92 -10 127 2 52 5 37 18 -79 9
-78 20 -143 26 -144 5 -1 18 11 30 26 18 25 20 40 18 159 -2 85 1 125 7 112 5
-11 9 -39 9 -62z m4889 -19 c2 -1 1 -12 -3 -23 -5 -18 -8 -19 -40 -5 -19 8
-39 14 -44 14 -7 0 -41 -69 -41 -85 0 -3 16 -11 35 -19 33 -14 46 -38 26 -50
-5 -3 -51 14 -103 37 -88 40 -94 44 -85 64 l10 22 38 -20 39 -19 20 40 c26 52
26 54 -15 69 -36 13 -39 18 -29 44 4 12 22 8 97 -26 51 -23 94 -42 95 -43z
m-5072 -56 c16 -74 17 -98 5 -98 -4 0 -11 19 -14 43 -3 23 -9 62 -13 87 -10
65 6 42 22 -32z m-1321 -28 c14 -27 25 -58 25 -69 0 -23 -45 -61 -72 -61 -19
0 -54 31 -73 64 -10 18 -12 18 -44 2 -36 -19 -36 -19 -44 9 -5 17 7 26 81 62
48 23 90 42 94 42 4 1 19 -21 33 -49z m6215 -75 c61 -31 78 -112 34 -164 -32
-39 -80 -49 -125 -26 -49 25 -69 54 -69 101 0 84 82 129 160 89z m-6146 -61
c8 -20 18 -13 -86 -69 -83 -44 -108 -49 -108 -22 0 10 163 106 181 107 4 0 10
-7 13 -16z m36 -59 c7 -9 11 -17 9 -19 -2 -1 -22 -13 -44 -26 l-40 -24 40 -12
c22 -7 52 -13 67 -13 25 -1 57 -35 45 -48 -4 -4 -47 5 -109 23 -12 4 -18 -4
-23 -28 -13 -62 -28 -108 -36 -108 -20 0 -27 38 -15 76 8 21 17 54 21 73 l7
34 -47 -27 c-44 -26 -47 -27 -60 -10 -11 16 -4 23 74 70 47 29 89 53 92 53 4
1 12 -6 19 -14z m4810 -419 c22 -60 38 -111 36 -113 -6 -6 -122 316 -150 418
-43 156 -28 135 24 -36 27 -88 67 -209 90 -269z m-3110 77 c13 -126 19 -239
15 -260 -6 -31 -31 -62 -138 -171 -141 -143 -169 -165 -160 -132 3 11 59 72
125 135 66 63 129 132 139 152 24 47 24 84 -1 313 -11 102 -19 196 -19 210 l1
25 8 -25 c5 -14 18 -125 30 -247z m4285 227 c53 -11 99 -20 101 -20 3 0 0 -9
-6 -20 -9 -17 -17 -20 -43 -15 -27 5 -34 2 -49 -22 -15 -26 -15 -29 2 -53 15
-21 16 -28 5 -43 -11 -15 -18 -9 -71 60 -75 98 -77 101 -70 119 7 18 15 18
131 -6z m-5873 -108 c-9 -7 -26 -19 -36 -25 -18 -13 -18 -15 9 -55 15 -23 30
-42 33 -42 3 0 20 11 38 25 32 24 33 25 43 6 9 -17 0 -27 -76 -81 -82 -58 -88
-61 -100 -43 -12 15 -12 20 4 30 60 40 58 36 28 81 -29 44 -29 44 -82 6 -20
-14 -22 -14 -32 4 -9 16 1 26 77 79 77 53 88 58 99 44 10 -13 9 -18 -5 -29z
m5012 -135 c48 -59 86 -113 84 -119 -3 -7 -43 39 -90 102 -134 182 -133 188 6
17z m623 -13 c16 -52 44 -86 91 -113 16 -9 16 -11 0 -27 -16 -16 -19 -15 -55
13 -28 22 -53 32 -97 37 -33 4 -62 9 -65 11 -13 14 24 29 64 26 l45 -2 -15 42
c-11 31 -12 45 -4 55 6 8 13 14 15 14 2 0 11 -25 21 -56z m-5376 -153 c23 -24
29 -38 29 -74 0 -37 -6 -51 -30 -76 -93 -93 -235 4 -175 119 33 64 126 81 176
31z m5293 0 c39 -26 55 -57 56 -104 0 -84 -102 -128 -168 -72 -60 51 -65 113
-12 166 34 35 81 38 124 10z m-794 -56 c0 -5 -5 -3 -10 5 -5 8 -10 20 -10 25
0 6 5 3 10 -5 5 -8 10 -19 10 -25z m-4391 -138 c-7 -32 -9 -60 -6 -63 3 -4 32
-2 64 4 49 8 61 8 76 -6 17 -15 13 -20 -60 -94 -69 -69 -79 -76 -92 -63 -14
13 -9 21 39 71 46 46 51 54 30 50 -14 -4 -47 -10 -73 -15 -42 -7 -47 -6 -43 8
2 9 7 32 11 51 4 19 9 44 12 55 3 13 -14 1 -50 -34 -49 -47 -58 -53 -72 -41
-14 12 -7 22 62 92 74 75 78 77 95 60 16 -16 17 -24 7 -75z m5051 -11 c64 -62
70 -71 56 -84 -14 -14 -22 -9 -83 48 -37 35 -72 67 -77 71 -10 9 12 41 25 37
4 -2 40 -34 79 -72z m-6 -147 c-14 -15 -19 -12 -64 35 -54 55 -57 53 -40 -34
4 -25 7 -46 6 -48 -2 -1 -31 4 -65 12 -33 8 -61 11 -61 8 0 -3 21 -28 47 -54
42 -43 46 -50 32 -63 -13 -13 -23 -6 -92 63 -76 78 -77 79 -57 97 17 15 25 16
64 6 83 -21 84 -20 74 50 -8 51 -7 64 7 79 16 17 20 15 90 -58 66 -69 72 -79
59 -93z m-4810 -5 c9 -3 16 -11 16 -17 0 -19 -73 -207 -80 -207 -19 0 -30 29
-21 53 8 20 5 29 -15 48 -21 20 -27 21 -48 9 -25 -13 -56 -8 -56 8 0 6 138 88
187 111 1 1 8 -2 17 -5z m4549 -91 c59 -72 64 -83 50 -94 -13 -12 -19 -9 -43
20 l-28 33 -41 -33 -41 -33 30 -31 c29 -30 30 -32 13 -48 -17 -15 -22 -11 -85
66 -59 73 -65 84 -52 97 13 13 18 11 43 -19 l28 -34 37 29 c43 34 44 43 11 74
-23 22 -24 25 -8 42 9 10 17 17 18 16 1 -2 32 -40 68 -85z m-4368 -53 c7 -11
-56 -220 -67 -220 -13 0 -147 105 -145 113 4 13 170 115 189 116 9 1 19 -3 23
-9z m4159 -42 c-3 -5 -13 -8 -23 -8 -10 0 -24 -7 -31 -15 -10 -12 -3 -27 38
-83 46 -63 49 -71 34 -85 -14 -15 -20 -10 -64 53 -27 38 -53 72 -58 75 -5 3
-19 -8 -31 -24 -22 -30 -23 -30 -37 -10 -8 11 -12 22 -11 23 2 2 40 29 83 60
72 51 80 54 92 39 7 -10 10 -21 8 -25z m-2924 2 c8 -5 11 -10 5 -10 -5 0 -17
5 -25 10 -8 5 -10 10 -5 10 6 0 17 -5 25 -10z m-35 -81 c107 -40 194 -74 192
-76 -5 -4 -397 133 -405 142 -14 14 34 -1 213 -66z m115 49 c10 -6 7 -7 -10
-2 -14 3 -32 11 -40 16 -10 6 -7 7 10 2 14 -3 32 -11 40 -16z m50 -18 c8 -5
11 -10 5 -10 -5 0 -17 5 -25 10 -8 5 -10 10 -5 10 6 0 17 -5 25 -10z m-1193
-44 c-3 -7 -15 -58 -28 -114 -21 -93 -24 -99 -42 -88 -14 8 -17 19 -14 42 4
26 1 33 -24 48 -26 15 -31 15 -52 1 -19 -12 -27 -13 -40 -2 -16 11 -7 20 75
78 73 52 97 64 111 57 10 -5 16 -15 14 -22z m3797 -38 c-3 -5 -13 -8 -22 -8
-9 0 -28 -9 -41 -19 l-25 -19 43 -13 43 -13 -6 -48 -7 -49 28 17 c15 10 35 27
44 37 16 20 17 20 28 -1 11 -20 6 -25 -58 -67 -38 -25 -73 -45 -76 -45 -4 0
-4 29 0 64 l6 65 -50 15 c-28 8 -56 18 -62 22 -6 3 22 28 62 55 66 43 74 46
85 31 7 -9 10 -20 8 -24z m-2489 -54 c24 -11 25 -13 5 -8 -14 4 -38 13 -55 20
-24 11 -25 13 -5 8 14 -4 39 -13 55 -20z m-230 -10 c6 -2 -8 -1 -30 2 -22 3
-44 10 -49 14 -8 8 53 -4 79 -16z m75 -14 c20 -6 21 -8 5 -8 -11 0 -31 4 -45
8 -20 6 -21 8 -5 8 11 0 31 -4 45 -8z m2513 -87 c45 -80 47 -87 31 -102 -9 -9
-18 -12 -20 -6 -2 6 -27 48 -54 94 -38 63 -47 87 -38 93 25 15 33 7 81 -79z
m-2456 71 c-3 -3 -12 -4 -19 -1 -8 3 -5 6 6 6 11 1 17 -2 13 -5z m40 -10 c-3
-3 -12 -4 -19 -1 -8 3 -5 6 6 6 11 1 17 -2 13 -5z m-936 -33 c24 -24 29 -38
29 -76 0 -40 -5 -52 -34 -81 -27 -27 -42 -34 -74 -34 -76 0 -127 74 -99 142
33 80 123 104 178 49z m982 22 c-7 -2 -19 -2 -25 0 -7 3 -2 5 12 5 14 0 19 -2
13 -5z m2250 -22 c-2 -12 15 -55 37 -96 40 -71 40 -74 20 -80 -26 -8 -20 -15
-64 73 -20 39 -38 72 -41 72 -2 0 -25 -10 -49 -22 l-45 -22 42 -78 c35 -66 39
-81 27 -88 -8 -6 -17 -10 -20 -10 -3 0 -22 34 -43 75 -20 41 -43 75 -51 75 -8
0 -16 6 -19 13 -4 13 180 118 198 113 6 -2 9 -13 8 -25z m-3115 -59 c10 -7 2
-31 -34 -105 -42 -87 -48 -95 -66 -86 -10 6 -18 14 -16 19 21 55 85 179 93
179 6 1 16 -3 23 -7z m61 -31 c13 -8 12 -15 -4 -50 -10 -23 -16 -43 -14 -45 3
-3 30 8 61 23 49 23 61 26 85 16 27 -11 26 -11 -40 -39 l-66 -29 15 -29 c27
-52 44 -108 33 -108 -21 0 -49 21 -49 38 0 9 -11 40 -24 67 l-24 50 -16 -37
c-9 -21 -16 -42 -16 -48 0 -12 -20 -13 -37 -2 -9 6 -1 33 29 105 23 53 44 97
47 97 3 0 12 -4 20 -9z m2821 -6 c0 -8 0 -18 1 -22 0 -4 -20 -13 -45 -21 -46
-15 -53 -25 -36 -52 8 -12 14 -12 46 3 30 15 39 16 45 5 14 -21 11 -24 -31
-37 -22 -6 -40 -14 -40 -17 0 -5 20 -45 25 -52 6 -7 83 38 88 50 7 17 28 -10
24 -30 -2 -12 -137 -78 -141 -70 -1 2 -20 46 -43 99 l-40 97 66 30 c78 36 81
36 81 17z m-147 -162 c19 -54 33 -101 30 -105 -10 -17 -52 -5 -123 37 -41 24
-76 42 -78 41 -1 -2 8 -33 22 -69 21 -56 22 -66 9 -71 -23 -9 -33 -7 -33 7 -1
6 -16 51 -34 99 l-33 87 26 9 c21 7 38 1 99 -36 40 -24 75 -42 78 -40 2 3 -5
31 -16 63 -16 46 -17 60 -8 67 7 4 16 8 19 8 4 0 22 -44 42 -97z m-2378 53
c40 -17 55 -42 55 -91 0 -68 -51 -125 -110 -125 -31 0 -76 29 -89 57 -25 56
-2 130 51 159 30 17 51 17 93 0z m134 -56 c10 -5 33 -43 52 -85 29 -68 49 -93
49 -64 0 6 7 35 15 64 14 45 19 52 36 48 13 -4 19 -12 16 -22 -2 -9 -15 -55
-28 -103 -31 -120 -47 -118 -108 12 -43 91 -43 91 -65 3 -9 -37 -17 -49 -34
-51 -12 -2 -22 -1 -22 3 0 24 55 205 62 205 5 0 17 -4 27 -10z m1975 -90 c36
-49 66 -92 66 -95 0 -14 -51 -2 -63 15 -11 16 -21 19 -45 14 -26 -5 -33 -12
-38 -39 -4 -21 -13 -35 -26 -38 -18 -5 -19 -1 -14 46 3 29 8 82 11 120 9 94
26 91 109 -23z m-188 39 c3 -6 1 -15 -6 -19 -9 -6 -9 -24 4 -85 9 -42 18 -81
21 -85 5 -9 -33 -25 -41 -18 -2 3 -12 42 -21 88 l-16 82 -46 -6 c-25 -3 -49
-10 -53 -14 -4 -4 1 -43 11 -87 21 -85 20 -95 -7 -95 -14 0 -21 18 -34 82 -10
49 -24 85 -33 90 -34 20 -13 34 83 54 119 26 129 27 138 13z m-1470 -9 c6 0
23 -11 38 -25 22 -20 26 -33 26 -76 0 -45 -4 -55 -34 -85 -47 -47 -95 -47
-142 0 -39 39 -45 86 -18 137 17 34 68 61 99 54 11 -3 25 -5 31 -5z m150 -38
c6 -4 24 -32 39 -62 l28 -54 41 47 c31 35 48 47 69 47 26 0 28 -3 23 -27 -3
-16 -8 -55 -11 -88 -9 -83 -13 -95 -36 -95 -18 0 -20 5 -14 48 3 26 8 57 11
70 2 12 2 22 0 22 -3 0 -25 -21 -49 -47 l-45 -47 -30 60 c-33 64 -37 62 -47
-27 -6 -51 -8 -56 -27 -51 -17 4 -19 10 -14 41 3 20 8 66 12 104 7 67 18 81
50 59z m932 -19 c-2 -5 -15 -30 -29 -58 -23 -43 -25 -57 -19 -102 6 -51 5 -53
-17 -53 -20 0 -23 5 -23 34 0 48 -14 80 -56 132 l-36 44 25 0 c17 0 33 -10 47
-30 28 -39 38 -38 56 5 10 24 21 35 35 35 11 0 19 -3 17 -7z m-664 -65 c-11
-138 -14 -148 -36 -148 -18 0 -20 4 -14 38 3 20 6 67 6 105 0 65 1 67 25 67
24 0 25 -1 19 -62z m433 36 c12 -7 27 -32 34 -53 30 -99 -56 -180 -146 -139
-58 26 -74 124 -30 177 37 43 91 49 142 15z m-353 -36 l-6 -53 52 53 c38 39
59 52 80 52 28 0 28 0 -23 -49 l-52 -50 48 -48 c26 -27 47 -52 47 -56 0 -4
-10 -7 -22 -7 -15 0 -38 18 -66 50 -24 28 -47 50 -53 50 -5 0 -9 -22 -9 -50 0
-43 -3 -50 -20 -50 -19 0 -20 7 -20 105 0 105 0 105 25 105 23 0 24 -2 19 -52z"/>
<path d="M4060 7687 c-16 -8 -28 -26 -34 -49 -17 -67 38 -115 117 -105 55 7
77 31 77 83 0 34 -5 47 -26 63 -31 24 -95 28 -134 8z"/>
<path d="M3623 7669 c-44 -13 -67 -50 -59 -91 10 -52 32 -68 91 -68 70 0 105
26 105 80 0 70 -58 103 -137 79z"/>
<path d="M4980 7530 c-18 -28 -31 -52 -29 -54 6 -5 82 -26 85 -23 6 6 -10 127
-16 127 -5 0 -22 -23 -40 -50z"/>
<path d="M3176 7587 c-21 -7 -48 -24 -59 -39 -18 -24 -19 -32 -8 -67 6 -23 20
-45 31 -51 48 -26 152 8 164 54 9 37 -17 94 -49 106 -31 12 -29 12 -79 -3z
m91 -62 c8 -21 3 -24 -58 -40 -41 -11 -55 -12 -61 -2 -13 21 -3 31 43 43 61
16 69 16 76 -1z"/>
<path d="M5335 7277 c-14 -64 -65 -424 -65 -458 0 -39 0 -40 33 -35 17 3 54 8
80 11 65 9 147 34 147 45 0 6 -38 10 -87 10 -49 0 -83 4 -77 9 5 4 70 16 144
26 74 10 141 21 149 25 8 5 -27 11 -82 15 -53 4 -97 11 -97 16 0 12 157 11
260 -2 194 -24 370 -92 509 -196 62 -47 71 -51 53 -26 -12 17 -50 56 -84 88
-104 97 -244 150 -453 174 -202 24 -265 33 -265 41 0 4 28 11 63 14 202 21
203 23 35 51 -60 10 -108 22 -108 26 0 4 54 10 120 14 66 4 120 11 120 14 0 4
-44 19 -97 34 -54 15 -141 50 -195 77 -95 48 -98 49 -103 27z"/>
<path d="M5405 6784 c-157 -20 -157 -20 -153 -52 3 -27 4 -27 73 -26 62 0 80
6 153 42 45 23 82 44 82 47 0 7 -28 5 -155 -11z"/>
<path d="M5655 6750 c-38 -10 -92 -28 -118 -39 -40 -17 -69 -21 -161 -21 -133
0 -151 -8 -144 -63 2 -20 1 -38 -2 -39 -3 -2 -18 -86 -34 -188 -15 -102 -30
-194 -33 -204 -5 -18 -1 -19 48 -13 80 10 126 25 134 44 8 21 -19 43 -54 44
-22 1 -21 2 9 10 50 14 110 41 110 50 0 4 -26 10 -57 14 -32 3 -65 7 -73 9 -8
1 16 12 53 25 44 15 73 31 84 47 21 33 13 37 -30 19 -20 -8 -53 -15 -74 -14
-43 0 -31 8 47 29 42 11 110 66 110 88 0 6 -23 2 -50 -9 -28 -10 -72 -19 -98
-19 -46 1 -45 1 53 34 55 18 137 52 181 76 69 36 93 44 156 48 90 5 174 -14
278 -65 154 -75 223 -178 224 -333 1 -47 -2 -107 -6 -135 l-8 -50 35 69 c58
117 57 247 -5 372 -89 182 -342 276 -575 214z m-260 -129 c-11 -5 -45 -11 -75
-14 l-55 -6 60 14 c69 15 99 17 70 6z"/>
<path d="M6780 6666 c-25 -7 -63 -22 -85 -34 l-40 -20 185 5 c209 7 241 1 387
-67 74 -34 81 -36 68 -16 -33 50 -145 111 -244 132 -80 17 -210 17 -271 0z"/>
<path d="M5710 6462 c-71 -24 -144 -71 -247 -161 -115 -100 -114 -103 42 -67
86 19 228 20 315 2 126 -27 179 -54 254 -128 39 -37 72 -68 73 -68 11 0 0 119
-16 169 -64 206 -241 313 -421 253z"/>
<path d="M6802 6461 c-29 -11 -68 -29 -86 -41 -85 -52 -153 -165 -181 -299
-25 -120 -46 -549 -26 -537 21 13 29 -98 9 -111 -7 -4 -31 -9 -53 -10 -22 -1
-57 -5 -77 -8 -50 -9 -72 -3 -138 40 -59 38 -95 43 -161 23 -34 -10 -42 -9
-59 7 -28 26 -25 60 15 143 19 40 31 72 27 72 -15 0 -101 -95 -111 -123 -21
-54 -14 -103 20 -142 28 -32 46 -40 129 -59 14 -3 55 -25 89 -48 63 -42 65
-43 147 -41 102 2 154 16 195 50 63 53 74 127 35 221 -13 31 -27 77 -31 102
-9 62 47 414 76 475 64 137 228 215 387 186 127 -23 223 -93 282 -203 36 -67
49 -64 31 9 -31 120 -116 223 -228 276 -88 41 -209 48 -291 18z"/>
<path d="M6697 6228 c-24 -24 -62 -88 -53 -88 2 0 23 23 46 50 45 53 49 80 7
38z"/>
<path d="M6820 6191 c-79 -25 -176 -105 -214 -179 -30 -58 -24 -63 52 -41 174
51 312 11 474 -138 l63 -58 3 30 c11 87 -61 260 -133 323 -70 62 -167 86 -245
63z"/>
<path d="M5166 6123 c-10 -67 -28 -314 -24 -319 6 -5 319 105 333 117 14 13
-18 11 -145 -11 -198 -34 -198 -26 0 45 74 26 137 50 139 52 15 12 -20 12
-109 -2 -183 -27 -191 -19 -38 33 198 68 197 71 -12 43 -74 -10 -137 -17 -139
-15 -9 8 11 16 140 54 l134 39 -137 0 -136 1 -6 -37z"/>
<path d="M5295 5816 c-162 -30 -165 -32 -165 -65 0 -15 3 -30 6 -34 6 -5 341
106 352 118 11 11 -78 2 -193 -19z"/>
<path d="M5255 5716 l-120 -21 -3 -32 c-4 -40 -2 -40 102 -13 70 19 142 49
186 79 23 16 -26 12 -165 -13z"/>
<path d="M5809 5691 c-143 -43 -199 -72 -252 -130 -82 -91 -107 -184 -105
-391 1 -142 1 -143 8 -55 21 248 108 393 290 482 109 54 212 118 203 126 -8 9
3 11 -144 -32z"/>
<path d="M5280 5630 c-80 -16 -146 -29 -147 -29 -8 -2 -2 -71 6 -71 47 0 250
78 311 119 23 16 -4 13 -170 -19z"/>
<path d="M5285 5543 c-82 -19 -151 -36 -153 -38 -8 -7 37 -328 47 -338 13 -13
179 51 196 77 29 40 16 43 -115 21 -25 -4 -20 0 20 14 50 18 100 58 100 82 0
12 -17 11 -101 -6 -40 -9 -74 -14 -76 -12 -1 2 45 25 104 52 60 26 112 51 118
56 15 14 -103 10 -170 -6 -32 -8 -61 -13 -62 -11 -2 2 25 13 59 26 80 29 145
62 183 94 38 32 32 32 -150 -11z"/>
<path d="M5644 5475 c-34 -52 16 -242 96 -369 108 -171 319 -289 515 -289 144
1 262 49 349 144 85 92 167 269 124 269 -7 0 -49 -18 -93 -40 -151 -76 -281
-86 -482 -35 -190 48 -336 142 -414 268 -32 52 -56 77 -71 77 -4 0 -15 -11
-24 -25z"/>
<path d="M5295 5182 c-55 -19 -101 -36 -103 -37 -1 -1 10 -48 25 -104 16 -62
33 -105 42 -110 11 -6 33 4 71 32 l55 39 -40 -6 c-22 -4 -49 -9 -60 -12 -11
-2 -3 4 17 16 38 21 75 63 60 68 -5 1 -32 -6 -61 -17 -28 -12 -51 -19 -51 -17
0 2 32 23 72 47 80 49 74 60 -16 29 -86 -29 -89 -25 -16 19 51 31 131 96 109
90 -2 -1 -49 -17 -104 -37z"/>
<path d="M5916 4766 c8 -21 87 -66 154 -87 68 -22 260 -39 260 -23 0 5 -46 22
-102 36 -57 15 -151 41 -210 57 -68 18 -105 25 -102 17z"/>
<path d="M4160 4465 c-67 -19 -190 -75 -190 -86 0 -13 15 -11 105 10 44 11 81
19 82 18 1 -1 -61 -58 -138 -125 -131 -116 -155 -142 -128 -142 6 0 1 -9 -12
-20 -23 -18 -23 -19 -4 -20 11 0 44 9 73 20 72 27 121 25 209 -10 60 -24 89
-30 150 -30 l76 0 52 -55 c70 -73 95 -74 59 -4 -33 65 -18 92 18 30 29 -51 52
-55 43 -7 -4 21 -2 36 5 41 7 5 2 18 -17 43 l-27 37 37 -29 c21 -15 41 -26 44
-22 3 3 -9 30 -26 61 -17 30 -28 55 -25 55 4 0 24 -16 46 -36 22 -19 42 -33
44 -31 3 3 -12 33 -34 68 -21 35 -45 75 -52 89 l-13 25 22 -19 c21 -19 21 -19
21 1 0 34 -55 99 -106 124 -62 30 -229 37 -314 14z"/>
<path d="M5855 3890 c-19 -7 -18 -8 5 -13 54 -12 100 -18 100 -12 0 7 -65 35
-77 34 -4 0 -17 -4 -28 -9z"/>
<path d="M610 3293 c-39 -14 -53 -69 -24 -97 22 -23 80 -20 104 4 50 50 -8
119 -80 93z m40 -37 c0 -13 3 -31 6 -40 4 -12 0 -16 -15 -16 -13 0 -21 6 -21
18 0 9 -3 27 -6 40 -5 18 -2 22 15 22 16 0 21 -6 21 -24z"/>
<path d="M740 2820 c0 -11 4 -20 8 -20 5 0 17 9 27 20 18 20 17 20 -8 20 -20
0 -27 -5 -27 -20z"/>
<path d="M5415 1522 c-38 -21 -88 -49 -111 -64 -112 -72 -288 -149 -609 -265
-223 -81 -533 -213 -500 -213 24 0 292 75 435 122 195 63 341 123 492 200 164
83 378 224 378 249 0 14 -11 11 -85 -29z"/>
<path d="M3719 1431 c13 -24 93 -65 172 -89 77 -24 209 -39 209 -25 0 5 -39
21 -87 36 -49 15 -136 42 -195 61 -89 28 -106 31 -99 17z"/>
<path d="M937 2464 c-24 -13 -26 -17 -16 -37 16 -30 30 -37 51 -26 21 11 23
38 6 62 -12 14 -16 14 -41 1z"/>
<path d="M7133 2369 c-30 -11 -40 -53 -19 -84 44 -67 148 -25 112 46 -14 29
-64 49 -93 38z m56 -64 c-34 -57 -59 -42 -31 17 14 29 20 34 34 27 16 -9 16
-12 -3 -44z"/>
<path d="M7035 2120 c19 -21 35 -18 35 6 0 9 -10 14 -27 14 -25 0 -26 -1 -8
-20z"/>
<path d="M1366 1729 c-48 -38 -27 -109 33 -109 59 0 94 82 49 114 -30 21 -50
20 -82 -5z"/>
<path d="M6682 1724 c-48 -33 -14 -114 48 -114 34 0 65 38 56 68 -15 45 -70
70 -104 46z"/>
<path d="M1757 1336 c-15 -11 -15 -15 -3 -25 14 -12 18 -9 29 22 8 20 -1 21
-26 3z"/>
<path d="M1897 1177 l-48 -30 28 -23 c15 -13 31 -23 35 -24 7 0 42 100 37 104
-2 2 -26 -11 -52 -27z"/>
<path d="M2095 1070 c-10 -11 -16 -20 -12 -20 3 0 12 -3 20 -6 10 -3 16 3 19
20 6 31 -3 33 -27 6z"/>
<path d="M2383 925 c-40 -28 -41 -95 -1 -116 39 -21 98 24 98 76 0 15 -46 55
-64 55 -6 0 -21 -7 -33 -15z"/>
<path d="M2874 685 c-30 -46 -17 -97 26 -108 26 -7 66 25 74 59 16 64 -65 103
-100 49z"/>
<path d="M5000 595 c0 -23 18 -34 33 -19 7 7 -14 44 -25 44 -5 0 -8 -11 -8
-25z"/>
<path d="M3336 571 c-26 -28 -18 -92 12 -107 34 -17 61 -6 80 33 15 31 15 37
1 61 -19 35 -67 42 -93 13z"/>
<path d="M4161 507 c-6 -8 -14 -28 -17 -45 -5 -25 -1 -36 20 -57 28 -28 60
-27 84 3 18 23 15 76 -6 95 -22 20 -65 22 -81 4z"/>
</g>
</svg>
