<?xml version="1.0" encoding="UTF-8"?>
<svg id="Layer_1" data-name="Layer 1" xmlns="http://www.w3.org/2000/svg" viewBox="0 0 835.5 811.92">
  <defs>
    <style>
      .cls-1 {
        stroke-width: 67px;
      }

      .cls-1, .cls-2, .cls-3 {
        fill: none;
      }

      .cls-1, .cls-2, .cls-3, .cls-4 {
        stroke-miterlimit: 10;
      }

      .cls-1, .cls-3 {
        stroke: #000;
      }

      .cls-2 {
        stroke-width: 5.75px;
      }

      .cls-2, .cls-4 {
        stroke: #fff;
      }

      .cls-5, .cls-6, .cls-4, .cls-7 {
        fill: #fff;
      }

      .cls-3 {
        stroke-width: 17px;
      }

      .cls-8, .cls-7 {
        font-family: GFSNeohellenic-Bold, 'GFS Neohellenic';
        font-size: 34.36px;
        font-weight: 700;
      }

      .cls-6 {
        font-family: DelaGothicOne-Regular, 'Dela Gothic One';
        font-size: 48px;
      }

      .cls-4 {
        stroke-width: 2px;
      }

      .cls-9 {
        fill: #8f4e44;
      }
    </style>
  </defs>
  <path class="cls-4" d="M767.17,117.29c-4.5-.13-9-.35-13.49-.29-42.08.59-83.09-5.35-123-18.07,1.07,4.18,1.98,8.4,2.69,12.67,12.13,3.78,24.38,7.13,36.85,9.88,26.72,5.89,53.81,6.27,80.94,6.8,1.53.03,3.06,0,5.18,0-2.35,8.67-4.64,16.91-6.82,25.19-4.22,16.01-8.36,32.03-12.58,48.03-.2.77-.8,1.43-1.22,2.13l.13-.15c-2.08,7.78-4.73,15.46-6.09,23.36-.15.88-.29,1.76-.43,2.64,3.89.52,7.78,1.17,11.67,1.98,7.53-30.07,15.58-60.01,23.34-90.02,2-7.74,3.64-15.57,5.42-23.28-1.63-.57-2.1-.86-2.59-.88Z"/>
  <ellipse class="cls-2" cx="405.99" cy="405.96" rx="403.12" ry="403.09"/>
  <circle class="cls-1" cx="405.98" cy="406.39" r="367.49"/>
  <circle class="cls-9" cx="407.38" cy="408.18" r="325.07"/>
  <text class="cls-6" transform="translate(300.91 83.86) rotate(-13.65)"><tspan x="0" y="0">Θ</tspan></text>
  <text class="cls-6" transform="translate(344.09 73.24) rotate(-6.35)"><tspan x="0" y="0">Ο</tspan></text>
  <text class="cls-6" transform="translate(388.55 68.52) rotate(.04)"><tspan x="0" y="0">Ο</tspan></text>
  <text class="cls-6" transform="translate(432.84 68.83) rotate(7.72)"><tspan x="0" y="0">Π</tspan></text>
  <text class="cls-6" transform="translate(473.1 74.09) rotate(14.6)"><tspan x="0" y="0">Α</tspan></text>
  <path class="cls-5" d="M344.67,604.85c19.63,8.94,39.7,16.75,61.36,20.59-37.75-14.82-74.89-30.84-108.45-54,17.35,8.57,34.53,17.49,52.09,25.62,17.45,8.08,35.22,15.47,54.6,18.03-36.75-14.39-72.21-31.31-105.51-52.61,34.21,16.7,67.45,35.74,105.56,42.83-40.92-15.62-80.21-34.34-116.14-59.63,37.92,20.04,74.65,42.82,117.82,50.53-21.22-7.75-41.79-17.01-61.7-27.63-19.93-10.63-39.51-21.91-59.25-32.9.21-.37.42-.73.63-1.1,20.27,10.52,40.48,21.14,60.81,31.52,20.43,10.43,41.14,20.13,64.6,21.53-43.15-14.28-82.88-35.3-120.38-60.76,7.92,4.35,15.72,8.92,23.78,13,21.07,10.65,41.97,21.69,63.49,31.35,11.57,5.19,23.96,9.17,37.04,9.35.96.01,1.93,0,3.12-.62-47.23-14.11-89.87-37.31-130.34-64.95,7.71,4.47,15.44,8.9,23.12,13.4,22.86,13.38,46.04,26.19,70.98,35.32,12.47,4.56,25.03,9.26,38.69,8.86,1.32-.04,2.66-.08,3.97-.25.43-.06.81-.52,1.25-.82-10.24-2.86-20.41-5.7-30.57-8.54l.34-1.41c2.88.65,5.74,1.48,8.66,1.91,7.56,1.12,15.12,2.29,22.72,2.98,3.02.27,4.84.84,5.73,4.04,5.83,20.8,11.82,41.56,17.75,62.34.45,1.56.81,3.15,2.28,4.65v-22.95c3.3,1.12,6.33,2.18,9.38,3.18,35.53,11.61,72.14,18.19,109.13,22.68,8.03.97,13.98,2.44,15.45,11.7.76,4.8,3.05,9.37,4.5,13.62-8,3.47-17.59,7.22-24.18,13.02-13.35,11.72-29.43,18.9-45.54,25.43-17.93,7.26-36.5,14.89-53.94,23.18-11.94,5.68-24.42,8.97-37.48,11.29-11.62,2.07-22.74,1.75-34.48.95-14.66-.99-24.29-3.22-38.62-6.52-13.48-3.11-41.42-7.44-41.99-14.59-.28-.23-.55-.46-.82-.7,2.53-.42,7-.95,9.57-.6,9.23,1.27,18.33,1.03,27.45-.73,5.28-1.02,10.57-2.06,15.93-2.36,1.24-.07,2.2-.57,4.62-1.35-21.35-12.86-44.63-18.6-65.76-29.18,20.98,7.32,41.25,16.72,62.85,22.08l1.1-2.05c-2.26-1.57-4.33-3.56-6.8-4.65-16.57-7.31-33.23-14.43-49.85-21.63-1.04-.45-2-1.08-3.97-2.16,18.16,6.17,35.23,11.99,52.33,17.74.5.17,1.22-.31,3.46-.95-11.15-8.19-22.96-12.47-34.11-18.15,9.3,2.75,18.6,5.5,28.45,8.42.65-4.47-2.05-5.45-4.56-6.54-8.61-3.75-17.23-7.47-25.71-11.83,8.99,2.15,17.98,4.3,26.97,6.45.34-.78.69-1.56,1.03-2.34-1.82-1.26-3.48-2.94-5.49-3.7-8.56-3.23-17.23-6.16-25.83-9.27-1.51-.55-2.89-1.47-4.06-2.83,12,3.64,24,7.28,36,10.92.23-.44.47-.87.7-1.31-2.53-1.49-4.97-3.16-7.6-4.44-10.91-5.31-21.88-10.48-32.81-15.75-1.12-.54-2.14-1.32-3.05-1.9,17.9,7.46,36.06,14.61,53.86,22.57,17.93,8.02,36.72,12.32,56.05,14.98-40.74-12.71-80.21-28.31-116.92-50.3,35.71,16.6,71.36,33.34,110.65,40.17-19.04-7.35-38.16-14.47-57.08-22.1-18.98-7.66-37.35-16.6-54.09-28.64,30.85,15.28,61.72,30.42,95.44,38.16l.7-2.35c-36.51-13.71-72.75-27.97-104.79-50.61,34.08,18.53,68.79,35.42,107.17,43.34-35.64-15.15-72.12-28.51-104.19-50.97,33.44,17.49,67.36,33.68,104.72,41.2-35.84-13.54-70.53-29.39-103.04-49.8,13.79,6.41,27.4,13.26,41.23,19.56ZM370.44,667.58c13.25,4.21,25.99,8.27,40.06,12.74-13.63,2.04-36.42-5.29-40.06-12.74ZM417.45,714.53c8.15-3.73,16.21-7.69,24.48-11.16,27.74-11.64,57.12-19.23,83.51-34.16,4.2-2.38,8.16-5.17,12.36-7.53,3.66-2.05,7.51-3.75,11.27-5.61.2.48.41.97.61,1.45-38.77,30.92-84.89,45.28-132.24,57Z"/>
  <path class="cls-5" d="M319.79,460.07c16.39,7.76,32.77,15.53,49.16,23.29.34-.62.68-1.25,1.02-1.87-12.76-7.61-25.52-15.22-38.29-22.84.16-.49.32-.99.48-1.48,2.36.56,4.87.78,7.06,1.74,5.8,2.53,11.41,5.47,17.19,8.04,2.48,1.1,5.2,1.67,8.18,1.57-8.4-5.58-16.8-11.16-25.2-16.73.38-.73.75-1.45,1.13-2.18,6.67,2.95,13.35,5.89,20.02,8.84.38-.56.76-1.12,1.14-1.68-2.77-1.9-5.54-3.8-8.3-5.71-2.82-1.95-5.64-3.91-8.46-5.87.21-.63.43-1.25.64-1.88,4.5,1.03,8.99,2.06,13.49,3.09.25-.45.51-.9.76-1.35-2.01-1.33-3.94-2.82-6.06-3.95-3.34-1.78-3.79-3.9-1.03-6.96,1.37.35,2.87.74,4.28,1.1.37-.5.76-.96.73-.99-4.22-3.99-.67-7.95-.23-12.05.81-7.41.48-14.94,1.14-22.37.27-3.07,1.65-6.12,2.91-9.01,2.52-5.74,5.78-11.2,7.85-17.09,1.64-4.67,3.65-8.54,8.25-10.63,7.69-3.48,12.68-9.9,18.37-15.78,8.3-8.58,17.83-15.67,29.11-20.45,8.43-3.57,16.22-8.67,24.86-13.4.82,1.47,2.68,4.01,3.75,6.85,5.95,15.72,12.01,31.41,17.34,47.34,1.37,4.1.04,9.06.31,13.6.28,4.71.08,9.74,1.67,14.04,5.31,14.35,11.33,28.44,17.09,42.62.25.62.76,1.19.82,1.81.29,3.16,1.76,7.32.31,9.23-1.44,1.91-5.84,2.01-8.96,2.11-4.62.15-9.29-.8-13.89-.53-3.21.19-6.33,1.73-9.54,2.48-1.51.36-3.85.99-4.53.28-1.38-1.45-2.64-3.75-2.58-5.66.1-3.01,1.32-5.99,2.25-9.69-6.21,3.78-9.12,11.59-7.49,18.22,1.17,4.77,5.17,7.53,11.85,8.19.66.06,1.34.03,1.99.13,3,.45,7.62-.08,8.67,1.61,2.29,3.68,2.78,8.49,3.48,13.29-8.39-5.67-14.41,1.93-21.36,2.79-2.99.37-5.72,3.26-9.06.1-.46-.43-4.41,2.09-6.05,3.88-1.18,1.29-1.2,3.64-1.87,5.99,9.26-.92,17.91-1.91,26.58-2.53,2.37-.17,5.03.36,7.17,1.39,1.23.6,2.62,3.17,2.23,4.25-.51,1.46-2.61,3.2-4.12,3.3-2.7.18-5.48-.77-7.39-1.1-2.41,3.77-4.62,7.22-6.78,10.61.36.37.57.8.8.8,13.93.44,23.09,16.85,16.28,29.22-2.38,4.33-10.4,6.33-17.65,4.88-16.97-3.38-32.57-10.54-48.44-17.03-25.96-10.62-50.37-24.18-74.33-38.61-6.53-3.94-12.81-8.29-18.83-13.12,18.25,9.75,36.25,19.99,54.81,29.12,18.62,9.16,37.78,17.21,57.04,25.09-36.52-20.1-74.05-38.31-108.43-62.2,11.1,5.61,22.17,11.29,33.31,16.81,11.1,5.5,22.27,10.85,33.76,15.6-18.93-14.79-40.92-24.45-61.08-37.14.2-.47.41-.95.61-1.42ZM416.46,370.8c-10.65,9.39-20.05,17.67-29.91,26.36,1.8.57,2.51.79,3.54,1.11-2.09,1.43-3.75,2.57-5.41,3.71,2.75.14,5.25-.24,7.42-1.3,8.11-3.98,15.76-3.51,23.82.62,3.83,1.96,8.81,3.35,12.91,2.69,6.68-1.06,11.06.8,14.51,6.2.8,1.25,1.76,2.52,2.95,3.36,1.12.8,2.63,1.06,5.08,1.97-2.23-4.46-3.81-7.61-5.38-10.76.71-.6,1.43-1.2,2.14-1.81,1.76,2.86,3.52,5.73,5.28,8.59.56-.43,1.13-.85,1.69-1.28-.58-2.11-1.17-4.22-1.75-6.32.64-.14,1.57-.33,2.96-.63-2.02-2.62-3.69-4.79-5.37-6.96.18-.19.36-.39.54-.58,2.24,1.76,4.48,3.52,6.72,5.28.39-.28.78-.55,1.17-.83-2.47-4.24-4.95-8.48-8.02-13.75,4.46,3.78,8.04,6.82,11.63,9.86.18-.11.37-.21.55-.32-3.66-6.05-7.33-12.1-10.99-18.15.27-.17.53-.34.8-.52,1.27,1.19,2.55,2.38,4.08,3.81-.87-7.35-7.25-13.68-15.29-15.5-11-2.49-21.88-1.74-32.42,2.08-4.78,1.73-9.22,4.4-13.81,6.64.18.35.36.7.54,1.05,6.34-1.46,12.67-2.93,20.05-4.63Z"/>
  <path class="cls-5" d="M672.94,435.9c-6.61-18.66-14.49-36.86-21.85-55.25-1.82-4.55-4.88-7.08-9.87-8.02-9.63-1.81-19.19-4.03-28.7-6.4-6.01-1.5-11.43-1.12-16.69,2.42-2.38,1.6-6.39,1.03-9.12,1.16-3.48.17-6.96.33-10.43.5-.22.01-.46.03-.63.17-.13.11-.2.28-.25.45-.5,1.61-.15,3.46.9,4.78,1.72,2.16-.68,2.72.53,5.2-7.58,4.62-10.22,9.25-16.25,15.8-2.89,3.13-3.86,7.17-6.58,10.45-1.36,1.64-2.71,3.28-4.07,4.92-.94,1.13-2.62,4.1-3.96,4.65,11.61-4.81,2.32.14,13.73-4.83-2.46,3.89,9.6-8.48,7.14-4.59.5.35,1.5-.14,2.01.21,1.84-4.62,10.1-3.15,9.11-10.27,8.13-5.51,20.25-4.18,24.95-15.44,10.5,8.55,22.36,10.73,35.75,8.02-.58,2.82-2.35,5.74-2.31,8.6-.08-.03-.19-.05-.29-.07.04,0,.08,0,.12,0-1.56-2.57-3.05-1.48-2.25.21.94,1.98.26.58.93,2.67.43,1.34-.28,2.42-.93,1.38-.74-1.19,1.71,3.63.92,2.47-.17-.25.02.05.08.29.4-.07,1.13,0,1.16.52,0,.13.06.25.12.37,1.86,4.12,4.03,8.35,7.13,11.68,4.39,4.72,9.83,8.45,14.76,12.68,2.57,2.2,5,4.56,7.5,6.85-.29.45-.58.9-.87,1.35-2.71-1.06-5.45-2.07-8.14-3.2-20.09-8.45-40.15-16.97-60.27-25.35-5.78-2.41-10.1-1.53-13.84,3.24-4.99,6.37-9.47,13.14-14.17,19.74,1.44-.02,2.45-.5,3.25-1.21,4.79-4.23,9.9-4.84,15.68-2.03,8.23,3.98,16.52,7.83,24.9,11.48,3.42,1.49,6.49,4.84,10.91,2.79.36-.17,1.2.47,1.71.86,4.68,3.58,9.34,7.19,14,10.8,1.18.91,2.32,1.87,3.48,2.8l-.59,1.31c-1.85-.22-3.82-.11-5.53-.72-5.95-2.11-11.9-4.27-17.69-6.76-10.85-4.67-21.68-9.43-32.36-14.48-5.27-2.49-9.52-1.78-13.58,2.19-4.88,4.77-10.23,9.13-14.71,14.24-3.06,3.49-5.88,7.69-7.25,12.06-3.16,10.06-4.29,20.82-12.06,29.32q5.11.31,13.7-19.52c2.85-.59,5.49-1.14,8.09-1.68-.25-2.2-.41-3.62-.69-6.01,10.08,1.85,15.53-4.14,19.96-12.2,6.98,8.21,15.72,11.27,24.67,14.18,4.35,1.41,8.32,3.97,12.47,6.02-.18.59-.36,1.18-.54,1.77-1.72.62-3.43,1.24-6.18,2.23,4.57.74,8.08,1.31,12.66,2.05-3.01,2.47-4.76,3.92-7.1,5.84,3.08,1.02,5.12,1.69,8.19,2.7-3.69.79-6.28,1.27-8.81,1.96-.54.15-.85,1.11-1.26,1.7.82.22,1.64.45,3.92,1.07-2.77,2.17-4.93,3.87-7.01,5.5.97.72,1.96,1.45,3.92,2.9-3.01.41-4.64.62-6.39.86,1.33,2.95,2.5,5.52,3.66,8.09-.88.75-1.77,1.51-2.66,2.26-1.45-2.83-2.9-5.66-4.36-8.49l-.93.86c1.2,2.64,2.39,5.27,3.69,8.13-2.42.95-4.5,1.76-6.7,2.61,1.6,2.19,3.18,4.34,4.76,6.49-.37.48-.74.95-1.12,1.43-3.8-2.34-7.6-4.67-11.4-7.01-.27.27-.53.53-.8.8,3.3,4.79,6.61,9.58,10.21,14.8-8.92-.44-11.38-8.26-17.1-12.58,3.97,6.42,7.94,12.85,12.36,19.98-7.9.04-9.51-8.41-15.96-12.2,3.4,5.99,6.27,10.83,8.87,15.81.54,1.02.08,2.57.08,5.14,1.62,1.13,4.52,3.17,7.42,5.2-.2.39-.4.79-.6,1.18-3.24-1.25-6.48-2.5-10.16-3.92,2.69,8.41,12.72,8.69,17.27,16.14-12.75-2.07-21.21-8.45-27.93-17.46,9.33,15.77,22.4,24.13,41.69,20.1v1.74c-4.81,1.1-9.61,2.21-15.71,3.61,4.44,6.86,8.62,13.3,12.79,19.75l-1.29.97c-1.42-1.88-2.84-3.77-4.25-5.65,1.73,7.1,20.87,32.24,34.04,47.02,1.37-1.16,2.8-2.24,4.31-3.21.07-.13.13-.27.2-.4,4.9-8.16,10.49-18.98,19.74-22.6.2-.26.4-.51.6-.76-9.56-16.25-19.08-32.53-28.29-48.98-1.52-2.71-2.27-6.84-1.42-9.74,5.48-18.65,11.42-37.17,17.38-55.68,4.99-15.49,10.53-30.81,15.19-46.4,1.55-5.2,2.95-11.63,1.26-16.39ZM582.88,423.96c4.74-2.67,8.85-.68,12.88,2.04-4.29-.68-8.58-1.36-12.88-2.04Z"/>
  <path class="cls-5" d="M253.71,339.99c-3.75,6.45-7.48,12.91-11.27,19.34-3.42,5.81-6.91,11.59-11.22,17.11,4.12-14.06,8.24-28.12,12.54-42.8-33.13,39.5-50.41,84.44-53.18,135.79-.74-2.98-2.39-6.06-2.05-8.91,1.31-10.85,2.52-21.81,5.13-32.39,5.25-21.35,12.18-42.21,22.77-61.59,3.4-6.23,7.87-11.88,11.84-17.8,5.46-8.15,11.21-16.12,16.29-24.49,15.05-24.82,30.47-49.36,52.4-68.88,12.74-11.34,27-20.5,42.77-27.2,7.34-3.12,14.72-4.03,23.17-1.06-25.5,11.39-42.75,31.89-61.39,50.93,3.42-11.45,11.46-20.46,16.92-30.82-.42-.34-.84-.68-1.27-1.02-3.94,4.43-8.78,8.35-11.64,13.39-7.2,12.72-13.52,25.94-20.17,38.98-6.05,11.87-12.45,23.57-17.99,35.67-7.48,16.32-14.71,32.78-21.3,49.48-7.81,19.8-14.96,39.87-22.12,59.92-2.94,8.24-5.13,16.74-7.7,25.11-.26.86-.75,1.66-1.14,2.48-.48-.12-.96-.23-1.44-.35.79-4.6,1.01-9.4,2.48-13.78,5.97-17.8,12.17-35.53,18.57-53.18,6.12-16.89,12.55-33.67,18.91-50.47,2.5-6.59,5.18-13.12,7.78-19.67-.5-.38-1-.77-1.49-1.15-1.88,2.18-3.77,4.37-5.65,6.55.85-1.75,1.74-3.48,2.52-5.26,1.05-2.38,1.45-5.32,3.12-7.1,16.25-17.28,23.59-39.76,35.18-59.78-8.71,8.73-16.08,18.41-21.82,29.34-4.63,8.83-9.34,17.62-14.2,26.33-1.05,1.87-2.91,3.29-4.4,4.92-.26-.28-.51-.56-.77-.84,2.91-7.64,5.82-15.29,8.78-23.04-10.57,11.44-22.87,39.6-24.38,56.36,4.93-7.26,4.13-16.86,10.78-21.65,2.06.69,3.33,1.11,4.6,1.54Z"/>
  <path class="cls-5" d="M253.39,388.61c.59-2.53.82-5.23,1.84-7.57,4.46-10.22,9.26-20.17,16.7-28.79,13.68-15.87,26.26-32.72,40.4-48.15,17.42-19.02,36.05-36.93,57.51-51.54,3.77-2.56,7.96-4.5,12.52-6.08-35.62,30.18-62.73,67.9-92.64,103.09-.31-.25-.63-.5-.94-.75,13.93-18.43,27.85-36.87,41.78-55.3-.25-.21-.5-.42-.75-.63-4.95,5.9-9.84,11.86-14.85,17.71-14.6,17-29.53,33.73-43.74,51.06-5.64,6.88-9.71,15.03-14.45,22.64-.93,1.49-1.63,3.12-2.43,4.68-.32-.12-.64-.23-.95-.35Z"/>
  <path class="cls-5" d="M388.73,236.16c-1.96,1.15-3.08,2.09-4.36,2.53-14.92,5.1-27.16,14.5-39.58,23.82-19.79,14.85-36.21,32.77-50.91,52.49-5.12,6.86-11.08,13.09-16.77,19.74,7.93-42.15,74.33-101.32,111.63-98.58Z"/>
  <path class="cls-5" d="M254.59,429.57c-1.51,16.4,5.39,33.74,15.53,38.3-3.54-8.88-10.13-16.07-9.41-26.04,1.56,3.18,3.17,6.33,4.68,9.54,2.44,5.18,6.27,8.9,11.37,11.44,7.71,3.85,9.97,3.3,15.06-5.05,1.96,7.15,4.15,13.21,5.18,19.46.79,4.79-1.72,6.92-6.67,7.25-6.8.46-13.17-1.19-17.89-6.07-9.44-9.75-17.65-20.42-20.52-34.15-1.04-4.96-1.8-10.05,2.68-14.68Z"/>
  <path class="cls-5" d="M201.74,288.56c3.19-.27,6.53-1.31,9.53-.69,14.87,3.06,26.78-2.58,38.21-11.32,6.41-4.89,13.73-8.62,20.8-12.59,2.01-1.13,4.57-1.29,7.28-1.01-15.74,10.09-29.74,22.74-48.22,28.19.28.77.55,1.54.83,2.31,3.06-.45,6.44-.21,9.11-1.48,6.59-3.15,12.84-7,19.23-10.54,1.53-.85,3.1-1.6,4.65-2.39.36.52.73,1.05,1.09,1.57-5.77,4.21-11.48,8.49-17.32,12.6-5.63,3.96-11.71,4.48-18.37,2.66-8.78-2.4-17.72-4.23-26.6-6.3-.08-.34-.16-.67-.23-1.01Z"/>
  <path class="cls-5" d="M301.32,370.31c2.9.41,4.62.61,6.32.89,11.54,1.86,23.55-3.05,28.71-13.53,5.41-10.97,14.06-13.54,25.01-13.13,7.78.29,15.59.06,23.39.06.12.53.24,1.06.36,1.59-4.01,1.11-7.96,2.48-12.03,3.26-3.74.71-7.61.77-11.42,1.15-7.29.73-13.33,3.77-18.01,9.52-2.31,2.83-4.74,5.62-7.45,8.06-8.89,8.04-23.16,9.14-34.87,2.14Z"/>
  <path class="cls-5" d="M439.94,307.6c-10.81,2.71-21.72,5.11-32.33-1.1-4.56-2.67-8.53-6.32-12.89-9.34-10.7-7.4-22.18-10.24-34.77-5.38-2.45.94-4.71,2.37-7.91,2.93,1.43-1.45,2.66-3.2,4.32-4.32,10.8-7.3,29.99-6.94,40.65.63,1.22.87,2.54,1.67,3.53,2.76,8.63,9.6,19.74,12.26,32.07,11.65,2.39-.12,4.8-.02,7.19-.02.05.73.1,1.45.15,2.18Z"/>
  <path class="cls-5" d="M290.33,380.99c2.43,1.36,4.91,2.65,7.3,4.08,15.37,9.21,35.46,10.12,50.16-6.38,3.55-3.99,7.88-7.29,12.4-10.35-4.17,12.06-10.42,23.23-23.09,26.68-19.71,5.37-28.57,3.68-46.77-14.04Z"/>
  <path class="cls-5" d="M272.84,397.96c3.06,2.76,6.29,5.36,9.14,8.32,4.94,5.14,9.09,11.2,14.58,15.62,10.45,8.41,22.38,11.68,35.34,5.84,7.38-3.33,12.14-9.05,13.76-17.22.56-2.81,1.7-5.51,2.81-9.01,5.44,10.76-1.59,25.89-12.99,30.07-16.85,6.18-37.8.19-48.9-13.93-4.88-6.22-9.86-12.36-14.79-18.54.34-.38.69-.77,1.03-1.15Z"/>
  <path class="cls-5" d="M313.24,487.01c22.38,11.61,44.82,23.74,67.7,34.98,22.98,11.29,46.54,21.23,72.21,25.44-6.3-.8-12.68-1.18-18.87-2.47-25.17-5.24-48.28-15.97-70.74-28.02-15.66-8.4-30.81-17.73-46.15-26.71-1.61-.94-2.98-2.3-4.15-3.21Z"/>
  <path class="cls-5" d="M330.06,315.74c5.81-8.87,14.62-11.7,24.99-11.58,11.6.13,20.9,5.53,30.06,11.92,5.24,3.66,11.26,6.22,18.01,9.86-5.33,0-10.05.96-14.12-.25-4.8-1.43-9.39-4.27-13.46-7.32-9.96-7.46-21.01-9.94-32.98-7.7-4.37.82-8.42,3.35-12.5,5.06Z"/>
  <path class="cls-5" d="M468.07,291.23c-4.36-3.53-8.32-7.33-12.84-10.27-11.08-7.2-23.08-7.58-35.42-3.71-2.22.69-4.42,1.44-6.58,2.31-6.52,2.65-12.89,2.54-19.3-.49-3.23-1.53-6.68-2.59-10.04-3.87.08-.42.17-.83.25-1.25,2.04.46,4.19.64,6.09,1.41,8.71,3.55,16.65,3.36,25.01-2,16.72-10.72,48.65-.07,52.82,17.86Z"/>
  <path class="cls-5" d="M339.95,406.38c2.36,5.84-.48,9.61-3.53,13.05-6.76,7.62-20.11,9.51-30.37,3.64-5.24-2.99-9.91-7.23-14.2-11.55-4.31-4.34-7.82-9.47-11.18-15.12,1.96,1.26,4.12,2.28,5.83,3.81,4.71,4.22,8.85,9.15,13.92,12.84,4.61,3.36,9.89,6.46,15.34,7.85,7.31,1.87,13.61-1.47,18.32-7.46,1.89-2.41,3.91-4.72,5.87-7.07Z"/>
  <path class="cls-5" d="M300.37,360.72c3.23.53,6.45,1.18,9.7,1.56,6.98.82,12.4-1.58,15.77-7.98.93-1.76,1.94-3.49,2.78-5.29,5.04-10.7,12.56-15.62,24.47-14.56,5.87.52,11.57,2.87,17.35,4.39-.15.63-.3,1.27-.45,1.9-2.56-.27-5.13-.56-7.69-.81-13.22-1.29-24.27,1.66-31.22,14.43-4.74,8.71-11.21,13.98-23.13,9.4-2.44-.94-5.1-1.3-7.66-1.92l.09-1.12Z"/>
  <path class="cls-5" d="M607.48,667.52c-11.43-27.67-21.96-55.61-29.84-84.64-.44.09-.89.19-1.33.28.31,1.42.59,2.84.93,4.25,7.9,32.73,15.42,52.47,27.8,82.12.8-.69,1.62-1.36,2.45-2Z"/>
  <path class="cls-5" d="M216.05,276.42c-.91-8.84,6.62-17.4,16.36-16.35,12.35,1.33,20.62-2.93,27.41-12.7,3.91-5.63,9.83-7.38,16.79-5.86,6.27,1.37,12.68,2.14,19.07,4.33-1.46.2-2.92.64-4.36.55-1.98-.12-3.96-.52-5.89-.98-11.51-2.79-20.76.81-28.64,9.42-5.98,6.53-13.56,9.84-22.64,9.77-8.39-.06-15.53,2.32-18.11,11.82Z"/>
  <path class="cls-5" d="M324.49,333.13c.74-7.4,5.55-12.18,11.59-15.37,11.12-5.86,22.2-4.37,32.53,2.26,7.31,4.69,14.28,9.89,21.89,15.21-4.05-1.12-8.11-1.74-11.7-3.37-4.04-1.84-7.68-4.59-11.47-6.97-9.06-5.7-18.8-7.52-29.02-4.15-6.19,2.04-10.82,6.35-13.81,12.39Z"/>
  <path class="cls-5" d="M250.65,675.75c.76-1.46,1.23-3.21,2.33-4.32,6.93-6.95,13.98-13.79,21.04-20.61,4.94-4.78,6.51-10.54,5.74-17.28-1.42-12.56-2.6-25.15-3.87-37.72-.18-1.78-.29-3.56-.43-5.34.6-.06,1.2-.12,1.8-.18,1.74,16.81,3.75,33.6,5,50.44.24,3.19-1.7,7.36-4,9.77-8.46,8.88-17.5,17.21-26.32,25.75-.43-.16-.87-.33-1.3-.49Z"/>
  <path class="cls-5" d="M291.34,375.43c10.23,3.92,20.34,8.3,31.66,7.52,11.74-.81,18.6-9.95,27.84-17.12-10.76,22.68-32.79,30.02-59.5,9.6Z"/>
  <path class="cls-5" d="M316.41,496.36c43.92,27.11,48.99,29.58,100.09,48.84-20.31.46-93.69-37.72-100.09-48.84Z"/>
  <path class="cls-5" d="M244.35,462.35c-.43,7.54-5.39,12.85-11.24,17.35-9.25,7.12-12.42,16.78-12.81,27.9-.34,9.68,4.56,16.68,11.85,23.1-6.51-2.3-12.61-9.47-13.53-16.71-1.78-14.13.81-26.94,12.06-37.07,4.95-4.45,9.17-9.73,13.66-14.57Z"/>
  <path class="cls-5" d="M452.64,288.88c-.85.45-1.05.63-1.13.59-13.33-7.31-26.65-4.56-40.06-.19-2.09.68-4.51.32-6.86-.23,9.94-4.5,19.05-11.05,30.75-9.59,7.01.88,12.39,4.18,17.3,9.43Z"/>
  <path class="cls-5" d="M228.88,333.14c-6.58,6.05-13.6,11.42-19.22,17.99-5.87,6.86-7.59,15.7-7.2,25.29-8.76-16.3,7.4-42.14,26.42-43.29Z"/>
  <path class="cls-5" d="M379.03,264.37c5.76-4.45,11.39-9.1,17.31-13.32,9.18-6.54,26.87-5.94,35.21.29-8.43.35-18.06-.72-26.84,1.53-8.92,2.28-17.01,7.82-25.47,11.93-.07-.14-.15-.29-.22-.43Z"/>
  <path class="cls-5" d="M287.25,255.66c-15.22.78-27.28,9.19-40.11,15.75,5.57-10.01,20.73-19.44,31.4-19.81,2.79-.1,5.62.87,8.43,1.35.1.9.19,1.8.29,2.71Z"/>
  <path class="cls-5" d="M422.78,264.86c12.01-1.89,23.88-2.9,35.25,2.5,10.04,4.76,16.22,12.23,16.32,24.13-9.31-24.65-30.69-25.11-51.57-26.63Z"/>
  <path class="cls-5" d="M216.37,394.5c-2.88,14.3-6.52,28.5-8.43,42.93-1.88,14.3-2.01,28.83-3,44.74-1.08-2.52-2.32-4.17-2.42-5.89-.29-5.3-.93-10.76-.02-15.91,3.73-21.06,7.98-42.03,12.08-63.03.2-1.04.8-2.01,1.22-3.01.19.05.38.11.56.16Z"/>
  <path class="cls-5" d="M418.45,317.84c-8.95.89-16.17-3.17-23.01-8.47-4.04-3.14-8.15-6.29-12.58-8.81-7.76-4.43-15.92-3.53-24.33-.4,6.15-5.69,17.6-7.55,24.94-3.64,4.63,2.47,8.94,5.68,13.04,8.99,10.34,8.36,10.26,8.45,21.93,12.33Z"/>
  <path class="cls-5" d="M239.68,549.03c1.01,9.57,2.03,19.14,3.06,28.89,4.78-3.16,6.23-7.55,5.52-13.17-.62-4.92-.84-9.92-.84-14.88,0-2.16,1.02-4.31,1.7-6.95.76,7.28.81,13.94,2.25,20.29,2.33,10.27-3.6,18.15-14.79,17.81,6.9-6.19,2.37-13.42,2.36-20.21,0-3.89-.46-7.78-.72-11.66.49-.04.97-.08,1.46-.13Z"/>
  <path class="cls-5" d="M179.53,377.58c-12.94-22.09-.31-55.82,21.69-57.3-21.2,14.08-29.92,32.52-21.69,57.3Z"/>
  <path class="cls-5" d="M401.22,243.38c10.02-5.74,20.54-6.04,31.13-2.53,6.05,2,11.37,5.39,12.36,14.51-12.67-14.05-27.76-14.01-43.48-11.98Z"/>
  <path class="cls-5" d="M285.4,355.7c-2.07,3.45-3.47,6.1-5.16,8.54-10.54,15.18-21.14,30.31-32.23,45.23,5.49-9.37,10.69-18.93,16.56-28.06,5.78-9,9.39-19.8,20.83-25.71Z"/>
  <path class="cls-5" d="M236.08,526.47c-14.64-10.69-10.12-28.6-2.07-37.87,5.93-6.83,12.06-13.49,18.65-20.21-1.14,2.53-1.9,5.33-3.5,7.53-2.32,3.2-5,6.23-7.96,8.85-13.23,11.73-15.21,24.01-6.1,39.37.25.42.38.9.99,2.33Z"/>
  <path class="cls-5" d="M204.52,306.74c2.83.18,5.76-.05,8.47.6,12.82,3.06,23.18,1.01,36.54-6.9-4.68,13.35-23.82,16.26-45.02,6.31Z"/>
  <path class="cls-5" d="M639.05,644.61c.71-.71,1.42-1.41,2.14-2.1-9.65-11.94-19.31-23.89-28.96-35.83-.34.27-.67.53-1.01.79,8.31,11.17,16.61,22.36,24.95,33.51.92,1.23,1.88,2.44,2.87,3.62Z"/>
  <path class="cls-5" d="M211.79,323.7c-18.3,10.08-29.07,23.77-25.6,45.58-9.16-15.12,4.75-45.58,25.6-45.58Z"/>
  <path class="cls-5" d="M251.05,526.21c-14.43-3.62-18.19-25.52-7.9-34.8,4.39-3.96,9.02-7.66,13.54-11.48.33.34.67.68,1,1.02-3.34,3.22-6.69,6.42-10,9.67-7.41,7.27-9.57,17.85-4.75,25.98,2.06,3.48,5.26,6.3,8.11,9.6Z"/>
  <path class="cls-5" d="M385.43,228.69c-13.23,4.79-26.31,9.53-39.11,14.16,9.61-10.92,31.58-18.3,39.11-14.16Z"/>
  <path class="cls-5" d="M193.15,363.22c-5.06-14.24,8.6-32.5,25.92-35.31-13.39,7.97-23.24,18.54-25.92,35.31Z"/>
  <path class="cls-5" d="M217.1,534.32c-6.75-5.87-8.51-13.49-8.88-21.78-.64.39-1.22.76-1.83,1.14-1.98-7.29,5.74-25.51,13.37-30.01-12.69,16.78-13.61,33.42-2.65,50.65Z"/>
  <path class="cls-5" d="M298.58,690.35c19.02,7.02,38.04,14.04,57.07,21.05-.12.34-.25.68-.37,1.02-19.14-6.78-38.28-13.56-57.42-20.34.24-.58.49-1.15.73-1.73Z"/>
  <path class="cls-5" d="M319.07,231.73c-9.78-1.45-18.7-2.67-27.13,2.97,6-10.12,21.09-12.24,27.13-2.97Z"/>
  <path class="cls-5" d="M166.77,361.11c2.11,18.38,8.85,34.42,23.08,48.58-2.47-.76-5.41-.76-6.1-2-7.46-13.53-17.24-26.19-17.17-42.75,0-1.27.12-2.55.19-3.82Z"/>
  <path class="cls-5" d="M442.08,294.69c-4.63,0-9.7-.2-14.74.06-5,.26-9.97.97-14.99,1,8.96-6.62,23.99-6.66,29.73-1.06Z"/>
  <path class="cls-5" d="M565.22,531.63c.86,15.74,4.17,30.16,20.2,37.77-14.61-1.75-23.49-20.96-20.2-37.77Z"/>
  <path class="cls-5" d="M188.88,417.16c-9.07.94-18.78-4.69-20.08-11.15,6.89,3.83,13.49,7.49,20.08,11.15Z"/>
  <path class="cls-5" d="M458.93,307.74c5.93,6.75,12.45,11.25,22.66,7.15-2.26,4.91-5.71,5.58-9.36,5.18-7.42-.81-10.69-6.31-13.3-12.33Z"/>
  <path class="cls-5" d="M290.84,507.42c12.18,7.5,24.36,14.99,36.54,22.49-.23.37-.45.74-.68,1.11-12.18-7.49-24.37-14.98-36.55-22.47.23-.38.46-.75.69-1.13Z"/>
  <path class="cls-5" d="M254.03,518.59c-10.34-6.42-8.61-21.6,1.63-26.06-7.7,7.86-7.38,16.4-1.63,26.06Z"/>
  <path class="cls-5" d="M260.69,567.74c-4.38-8.27-6.93-17.24-2.19-26.7.74,9,1.48,18.05,2.19,26.7Z"/>
  <path class="cls-5" d="M237.75,319.87c-10.66,2.58-20.9-.72-31.23-2.61.04-.46.08-.91.12-1.37,5.03.79,10.04,1.89,15.11,2.27,5.26.39,10.57.09,15.85.09.05.54.1,1.08.15,1.62Z"/>
  <path class="cls-5" d="M539.77,322.43c-1.43-5.86-2.86-11.72-4.3-17.58-.22-.91-.29-1.96-.79-2.7-2.42-3.57-.45-4.8,3.31-5.92-2.99,9.42,1.83,17.35,3.3,25.77-.51.14-1.02.28-1.53.42Z"/>
  <path class="cls-5" d="M315.95,707.16c11.14,2.64,22.28,5.27,33.41,7.91-.08.36-.17.72-.25,1.08-11.16-2.52-22.33-5.03-33.49-7.55.11-.48.22-.96.33-1.44Z"/>
  <path class="cls-5" d="M306.67,236.94c-6.18,6.08-12.72,1.62-19.14.52,6.29-2.9,12.81,1.28,19.14-.52Z"/>
  <path class="cls-5" d="M169.51,417.89c6.59,2.23,12.3,4.15,18.96,6.4-6.21,1.77-14.62-1.13-18.96-6.4Z"/>
  <path class="cls-5" d="M614.86,402.56h8.86c-.5,2.43-.92,4.46-1.58,7.6-3.03-2.3-5.4-4.1-7.77-5.9.16-.56.33-1.13.49-1.69Z"/>
  <path class="cls-5" d="M206.24,296.47c.8.08,1.61.08,2.39.24,7.21,1.48,14.42,2.98,21.63,4.48-.1.5-.2,1-.29,1.5-8-1.67-16-3.35-24-5.02l.27-1.19Z"/>
  <path class="cls-5" d="M231.38,571.71c-1.01-6-2.02-11.99-3.03-17.99.64-.11,1.29-.23,1.93-.34,1.15,5.97,2.3,11.94,3.45,17.91l-2.35.42Z"/>
  <path class="cls-5" d="M326.29,440.69c-6.54-.38-13.08-.76-19.61-1.14.03-.59.06-1.19.09-1.78,6.59.43,13.18.86,19.77,1.29l-.24,1.63Z"/>
  <path class="cls-5" d="M528.84,309.68c3.42,9.7,6.68,18.96,9.71,27.57-3.54-3.4-8.97-18.05-9.71-27.57Z"/>
  <path class="cls-5" d="M301.05,448.08c7.48.79,14.36,1.51,21.77,2.29-7.68,2.37-14.56,1.69-21.77-2.29Z"/>
  <path class="cls-5" d="M270.84,407.34c4.36,6.07,8.71,12.14,13.07,18.21-.46.34-.92.67-1.38,1.01-4.39-6.06-8.77-12.12-13.16-18.18l1.47-1.04Z"/>
  <path class="cls-5" d="M205.96,526.87c3.17,4.57,6.93,9.98,10.07,14.5-5.19-1.47-9.66-7.72-10.07-14.5Z"/>
  <path d="M273.34,691.63c6.27,2.06,12.55,4.11,18.82,6.17-.13.41-.27.81-.4,1.22-6.24-2.16-12.48-4.33-18.71-6.49.1-.3.2-.6.29-.9Z"/>
  <path class="cls-5" d="M308.38,715.29c-3.27-1.23-6.54-2.46-9.82-3.7.14-.44.29-.88.43-1.32,3.31,1.04,6.62,2.08,9.93,3.12-.18.63-.36,1.26-.55,1.9Z"/>
  <path d="M566.8,407.62s-.02.04,0,0h0Z"/>
  <path d="M566.87,407.5c.04-.06.09-.14.16-.25-.06.1-.12.18-.16.25Z"/>
  <path d="M535.3,82.49c11.3,7.43,23.71,12.25,37.18,14.6-.14.59-.28,1.18-.43,1.76-8.03.59-16.07,1.18-24.1,1.76-.07.26-.14.52-.22.79,8.16,1.46,16.31,2.92,24.47,4.38,0,.5.01.99.02,1.49-7.62.68-15.23,1.36-22.85,2.04-.06.36-.12.72-.18,1.07,3.87.68,7.72,1.69,11.62,1.98,13.63,1.04,27.14,2.46,40.19,6.93,13.8,4.73,24.04,13.71,31.89,26.22-25.2-23.94-55.8-30.17-89.03-27.47,7.3.71,14.6,1.42,21.9,2.12.07.43.13.85.2,1.28-5.03.78-10.06,1.62-15.11,2.32-5.07.7-10.17,1.24-15.26,1.85,0,.44,0,.88,0,1.32h16.83c.03.65.07,1.3.1,1.96-8.52,3.25-17.45,4.59-27.12,5.14,0-1.91-.2-3.53.03-5.09,2.3-15.25,4.66-30.49,7.06-45.72.08-.52.72-.95,1.1-1.43.56.23,1.12.46,1.69.69Z"/>
  <path d="M253.73,340.08c-1.27-.43-2.55-.85-4.6-1.54-6.65,4.8-5.85,14.4-10.78,21.65,1.51-16.76,13.8-44.92,24.38-56.36-2.95,7.76-5.87,15.4-8.78,23.04.26.28.51.56.77.84,1.49-1.63,3.35-3.04,4.4-4.92,4.86-8.7,9.57-17.5,14.2-26.33,5.74-10.93,13.11-20.61,21.82-29.34-11.59,20.02-18.93,42.5-35.18,59.78-1.67,1.77-2.07,4.72-3.12,7.1-.79,1.77-1.68,3.5-2.52,5.26-.19.27-.39.54-.58.81Z"/>
  <path class="cls-5" d="M385.43,228.71c-13.23,4.79-26.31,9.53-39.11,14.16"/>
  <path d="M624.81,331.01c-33.68-1.85-58.1-25.46-62.37-57.86-.22-1.65-.92-3.38-.6-4.91.42-1.98,1.15-4.62,2.62-5.5,2.43-1.44,4.5.1,6.01,2.66,2.27,3.84,4.64,7.72,7.57,11.05,11.96,13.62,28.2,18.85,45.23,21.98,15.95,2.93,31.1.83,44.77-8.73,1.39-.97,3.56-.83,5.37-1.21-.02,1.85.51,3.92-.15,5.5-6.85,16.36-16.38,30.25-34.85,34.93-5.27,1.33-10.79,1.69-13.59,2.1Z"/>
  <path d="M732.39,203.71c-.83-1.15-1.91-2.19-2.47-3.46-8.19-18.81-25.68-27.83-46-23.64-12.77,2.64-23.28,13.58-25.35,26.46-1.6,9.98-3.23,19.96-4.65,29.98-.97,6.86-.23,13.34,3.12,19.78,4.79,9.19,1.56,20.07-7.5,24.37-4.41,2.09-9.96,1.82-15.02,2.5-6.23.83-11.67-.6-16.67-4.82-2.76-2.33-6.51-4.41-10.01-4.78-11.89-1.25-17.83-10.98-12.03-21.81,2.28-4.26,6.57-7.45,9.94-11.13.53.41,1.05.83,1.58,1.24-.85,1.62-1.76,3.22-2.54,4.87-1.61,3.43-3.8,6.75-4.55,10.36-1.12,5.36,3.04,8.57,7.93,6.49,5.6-2.39,10.76-1.94,15.46,1.85,5.68,4.59,11.51,7.31,18.67,3.15.82-.48,2.26-.23,3.31.07,4.83,1.38,6.29.42,6.21-4.61-.04-2.46-.53-4.9-1.84-8.19-.17.79-.33,1.58-.56,2.68-.49-.95-.74-1.2-.73-1.44.94-19.57-.2-39.32,4.73-58.55,3.68-14.34,12.1-24.89,26.39-29.5,26.94-8.69,53.12,13.96,52.46,38.28,0,0,.12-.14.12-.14Z"/>
  <path d="M719.49,235.45c-3-2.62-5.11-4.33-7.06-6.2-10.14-9.72-21.46-17.26-36.14-16.41-6.23.36-12.34,2.81-18.51,4.31.11-5.67,3.93-10.81,8.43-15.39,15.45-15.7,37.24-12.24,47.08,7.42,3.88,7.76,6.28,15.95,6.2,26.27Z"/>
  <path d="M546.6,203.37c-9.83,3.23-19.66,6.47-29.49,9.7,10.47,1.13,20.16-4.27,31.86-2.39-11.58,4.21-21.93,7.98-32.29,11.74.1.31.2.61.31.92,10.1-1.66,20.2-3.32,30.31-4.99.17.6.33,1.2.5,1.79-11.39,4.03-22.78,8.05-35.36,12.5,1.11-12.74,2.11-24.19,3.23-36.95h30.5c-11.1,3.23-20.88,6.08-30.67,8.93.07.34.13.68.2,1.02,10.27-1.32,20.54-2.63,30.81-3.95.03.56.06,1.12.08,1.68Z"/>
  <path d="M595.06,240.73c-7.41,4.24-14.51,9.22-22.32,12.53-8.23,3.49-13.71,8.66-18.51,16.29-8.25,13.1-8.93,27.24-9.59,41.9-.29-.69-.89-1.45-.87-2.19.21-11.29-1.06-22.9,1.16-33.8,3.06-15.05,12.07-26.44,28.05-30.62,7.12-1.86,14.18-4,21.26-6.01.28.63.55,1.27.83,1.9Z"/>
  <path d="M663.31,151.25c13.02-8.19,27.37-9.09,42.08-5.66,10.33,2.4,19.75,6.89,25.87,16.47-10.75-4.83-20.74-11.77-32.95-11.81-11.65-.04-23.3.64-35,1Z"/>
  <path d="M633.86,346.02c-11.52,5.48-42.7-4-44.01-12.07,14.3,3.92,28.9,7.92,44.01,12.07Z"/>
  <path d="M511.69,259.78v-8.06c11.57-2.09,23-4.16,35.15-6.36-10.52,8.32-22.69,10.9-35.15,14.42Z"/>
  <path d="M548.62,228.95c-11.97,4.09-23.95,8.18-35.96,12.28-1.91-6.58-1.18-7.85,4.24-8.79,8.65-1.51,17.28-3.08,25.93-4.53,1.78-.3,3.61-.23,5.42-.32.12.46.24.92.36,1.37Z"/>
  <path d="M523.55,141.48c-.18-2.38-1.03-5.79,3.6-6.38,12.54-1.59,25.09-3.03,32.63-3.93-8.84,2.2-19.95,14.59-36.22,10.31Z"/>
  <path d="M543.77,237.21c-9.21,8.28-20.68,9.68-31.6,12.66-1.54-6.41-1.21-7.25,4.41-8.24,9.04-1.6,18.13-2.96,27.2-4.42Z"/>
  <path d="M672.78,188.05c-3.68,4.14-7.37,8.27-11.05,12.41,2.93-4.85,4.28-11.04,9.91-13.58.38.39.76.78,1.15,1.17Z"/>
  <path d="M549.55,657.39c-38.77,30.92-84.89,45.28-132.24,57,8.15-3.73,16.21-7.69,24.48-11.16,27.74-11.64,57.12-19.23,83.51-34.16,4.2-2.38,8.16-5.17,12.36-7.53,3.66-2.05,7.51-3.76,11.27-5.61.2.48.41.97.61,1.45Z"/>
  <path d="M410.36,680.19c-13.63,2.04-36.42-5.29-40.06-12.74,13.25,4.21,25.99,8.27,40.06,12.74Z"/>
  <path d="M416.36,370.66c-7.38,1.7-13.71,3.17-20.05,4.63-.18-.35-.36-.7-.54-1.05,4.59-2.24,9.03-4.91,13.81-6.64,10.54-3.82,21.42-4.57,32.42-2.08,8.04,1.82,14.42,8.15,15.29,15.5-1.53-1.43-2.81-2.62-4.08-3.81-.27.17-.53.34-.8.52,3.66,6.05,7.33,12.1,10.99,18.15-.18.11-.37.21-.55.32-3.58-3.04-7.16-6.08-11.63-9.86,3.08,5.27,5.55,9.51,8.02,13.75-.39.28-.78.55-1.17.83-2.24-1.76-4.48-3.52-6.72-5.28-.18.19-.36.39-.54.58,1.67,2.17,3.34,4.33,5.37,6.96-1.39.3-2.32.49-2.96.63.58,2.1,1.17,4.21,1.75,6.32-.56.43-1.13.85-1.69,1.28-1.76-2.86-3.52-5.73-5.28-8.59-.71.6-1.43,1.2-2.14,1.81,1.58,3.15,3.15,6.3,5.38,10.76-2.44-.91-3.95-1.17-5.08-1.97-1.18-.85-2.15-2.11-2.95-3.36-3.45-5.4-7.83-7.26-14.51-6.2-4.1.65-9.08-.74-12.91-2.69-8.06-4.12-15.71-4.6-23.82-.62-2.16,1.06-4.66,1.44-7.42,1.3,1.66-1.14,3.32-2.27,5.41-3.71-1.03-.32-1.73-.55-3.54-1.11,9.86-8.69,19.26-16.97,29.91-26.36Z"/>
  <path d="M582.94,423.96c4.74-2.67,8.85-.68,12.88,2.04-4.29-.68-8.58-1.36-12.88-2.04Z"/>
  <path class="cls-5" d="M413.33,706.68s.13-.14.13-.14"/>
  <circle class="cls-3" cx="406.29" cy="406.91" r="326.34"/>
  <path class="cls-5" d="M519.48,295.43c-.45,1.25-1.56,2.7-1.24,3.71,2.8,8.86,5.64,17.72,8.86,26.44,5.77,15.56,17.34,27.01,28.23,38.91.67.73,1.35,1.45,1.5,2.93-1.39-1.07-2.87-2.05-4.17-3.23-24.73-22.54-35.52-52-40.89-83.9-2.73-16.23-4.12-32.69-2.21-49.18,2.29-19.71,4.6-39.42,7.26-59.09,3.03-22.47,6.41-44.89,9.72-67.32,1.21-8.2,2.64-16.36,4.08-25.19,1.39,1.01,2.26,1.65,3.13,2.28-.38.47-1.02.91-1.1,1.43-2.4,15.23-4.76,30.47-7.06,45.72-.24,1.56-.03,3.19-.03,5.09,9.68-.55,18.61-1.89,27.12-5.14-.03-.65-.07-1.3-.1-1.96h-16.83c0-.44,0-.88,0-1.32,5.09-.61,10.18-1.16,15.26-1.85,5.05-.69,10.07-1.54,15.11-2.32-.07-.43-.13-.85-.2-1.28-7.3-.71-14.6-1.42-21.9-2.12,33.24-2.7,63.84,3.53,89.03,27.47-7.85-12.52-18.09-21.5-31.89-26.22-13.06-4.47-26.57-5.89-40.19-6.93-3.9-.3-7.75-1.3-11.62-1.98.06-.36.12-.72.18-1.07,7.62-.68,15.23-1.36,22.85-2.04,0-.5-.01-.99-.02-1.49-8.16-1.46-16.31-2.92-24.47-4.38.07-.26.14-.52.22-.79,8.03-.59,16.07-1.18,24.1-1.76.14-.59.28-1.18.43-1.76-13.47-2.35-25.88-7.17-37.18-14.6,24.16,7.91,48.54,15.2,72.4,23.92,20.18,7.38,40.54,13.72,61.52,18.35,25.73,5.67,51.81,6.04,77.93,6.55,1.47.03,2.94,0,4.99,0-2.27,8.35-4.47,16.28-6.57,24.25-4.06,15.41-8.05,30.84-12.11,46.25-.19.74-.77,1.37-1.17,2.05.66-24.32-25.52-46.97-52.46-38.28-14.29,4.61-22.71,15.16-26.39,29.5-4.93,19.23-3.79,38.98-4.73,58.55-.01.24.24.49.73,1.44.23-1.1.4-1.89.56-2.68,1.31,3.28,1.79,5.73,1.84,8.19.09,5.03-1.37,5.99-6.21,4.61-1.04-.3-2.49-.54-3.31-.07-7.16,4.16-12.99,1.44-18.67-3.15-4.7-3.79-9.86-4.25-15.46-1.85-4.88,2.09-9.05-1.13-7.93-6.49.76-3.61,2.95-6.94,4.55-10.36.78-1.66,1.69-3.25,2.54-4.87-.53-.41-1.05-.83-1.58-1.24-3.37,3.68-7.66,6.87-9.94,11.13-5.8,10.82.14,20.56,12.03,21.81,3.5.37,7.25,2.45,10.01,4.78,5,4.23,10.43,5.65,16.67,4.82,5.05-.67,10.61-.4,15.02-2.5,9.06-4.3,12.29-15.17,7.5-24.37-3.36-6.44-4.09-12.92-3.12-19.78,1.42-10.01,3.05-19.99,4.65-29.98,2.06-12.88,12.57-23.82,25.35-26.46,20.32-4.19,37.81,4.82,46,23.64.55,1.27,1.63,2.31,2.47,3.46-2,7.49-4.55,14.89-5.86,22.5-1.87,10.89-2.83,21.94-4.2,33.08-.16-.12-.81-.59-1.01-.74.3,3.83.64,8.12.99,12.42-.46.08-.93.16-1.39.24-1.72-2.15-3.43-4.3-6.12-7.66,1.84,7.4,5.76,13.2,2.54,19.4-2.43-3.86-4.91-7.8-7.39-11.73-.27,7.23,5.08,13.26,2.75,21.41-3.56-5.23-6.65-9.77-10.46-15.37.18,9.05,8.72,14.8,5.66,23.09-3.35-4.54-6.56-8.88-10.27-13.9,1.78,7.25,3.29,13.38,4.8,19.5-.67.19-1.33.37-2,.56-1.38-3.54-2.76-7.08-4.13-10.62.35,13.94-9.12,23.39-15.41,34.22,1.56-3.82,3.06-7.66,4.69-11.44,10.38-24.2-5.01-47.75-22.27-54.29.7,2.11.93,3.81,1.78,5.11,1.53,2.36,3.39,4.51,5.18,6.7,9.71,11.83,12.23,25.47,9.95,40.23-1.37,8.87-2.6,17.89-8.3,25.28-2.47,3.2-5.62,5.88-8.31,8.65-1.01-.3-.75-.17-.5-.16.32,0,.64-.09.96-.13-4.41,8.11-14.2,14.23-21.07,13.01-1.91-.34-3.74-1.17-5.36-2.43-7.36,3.15-14.45-.88-21.81-2.25-4.94-.91-10.05-1.26-15.09-1.26-3.94,0-7.97.57-11.79,1.56-9.69,2.51-16.66-2.12-22.89-8.42-3.67-3.71-6.77-7.98-10.12-11.99.43-.43.87-.87,1.3-1.3,2.46,2.23,4.91,4.46,7.38,6.68,4.65,4.17,9.22,8.42,14.03,12.39.87.72,2.72.26,4.06-.18-11.51-6.46-18.69-16.33-24.88-27.13-.58-1.01-1.07-2.07-1.63-3.09-2.06-3.78-4.64-5.16-9.05-.39-2.74-10.17-5.35-19.21-7.52-28.36-.63-2.66-1.55-3.91-4.19-3.57-5.42.7-10.82,1.47-16.23,2.21,5.11-1.95,10.32-3.69,15.28-5.96,1.56-.72,2.46-2.87,3.67-4.37-.4-.48-.79-.95-1.19-1.43-6.3,1.15-12.6,2.3-20.21,3.69,7.54-4.61,18.06-2.19,20.34-12.61-7.01,1.4-13.91,2.78-20.8,4.17-.02-.21-.04-.41-.06-.62,8.61-3.86,17.21-7.73,25.82-11.59-9.5-2.41-18.25,1.96-27.6,2.92,10.26-4.68,21.95-6.57,30.41-15.71-11.28,2.6-21.97,5.07-32.88,7.58,1.33,10.79,2.46,20.77,3.93,30.69.18,1.19,2.24,2.11,3.44,3.15ZM624.94,331c2.8-.42,8.32-.77,13.59-2.1,18.47-4.68,28-18.57,34.85-34.93.66-1.58.13-3.65.15-5.5-1.81.38-3.98.24-5.37,1.21-13.66,9.56-28.82,11.67-44.77,8.73-17.04-3.13-33.28-8.36-45.23-21.98-2.93-3.33-5.3-7.21-7.57-11.05-1.51-2.55-3.58-4.1-6.01-2.66-1.47.88-2.21,3.51-2.62,5.5-.32,1.53.38,3.26.6,4.91,4.27,32.4,28.69,56.01,62.37,57.86ZM618.61,204.15c1.9-3.86,4.02-7.62,5.68-11.59,5.86-14.02,1.96-36.57-12.99-47.1-19.11-13.47-39.1-13.02-59.63-3.62-1.49.68-3.01,1.82-4.53,1.84-5.86.09-11.73-.43-17.58-.25-7.29.22-7.28.43-6.88,8.59,7.3-1.36,14.51-2.7,21.72-4.04-7,4.08-15.01,3.73-22.36,4.94-2.15,13.98-4.24,27.52-6.4,41.61,5.95-1.12,11.02-1.87,15.96-3.14,1.2-.31,1.97-2.3,2.93-3.52-1.23-.75-2.38-1.83-3.72-2.15-1.56-.38-3.28-.09-4.93-.09-.02-.43-.04-.87-.07-1.3,2.69-.64,5.45-1.11,8.07-1.97,2.36-.78,4.59-1.99,6.87-3.01-.16-.33-.32-.66-.48-.99-4.9-.53-9.79-1.06-14.93-1.62,5.78-3.76,15.05-2.02,17.28-11.33-5.35,3.44-10.88,5.05-18.05,2.63,9.46-1.09,17.62-2.59,21.69-11.57-6.81,3.22-13.77,4.99-21.24,3.76,1.81-.85,3.79-1.03,5.6-1.67,7.28-2.6,15.36-4.09,21.54-8.33,7.93-5.44,15.92-7.19,24.96-6.22,10.12,1.09,19.43,4.65,27.93,10.14,6.11,3.94,10.83,9.06,13.61,16.1,4.51,11.39,2.98,22.43-.05,33.92ZM613.88,208.56c.36-2.41.69-3.49.65-4.56-.41-10.1-3.56-19.23-9.81-27.25-9.51-12.18-23.07-15.59-37.39-9.63-11.35,4.73-19.59,13.59-28.83,21.14-.57.47-.63,1.57-1.16,3,2.11-.43,3.57-.59,4.94-1.02,16.93-5.28,33.7-4.86,50.36,1.22,6.72,2.46,12.52,6.13,16.76,12.04,1.08,1.51,2.47,2.81,4.48,5.07ZM719.63,235.45c.08-10.33-2.32-18.51-6.2-26.27-9.83-19.66-31.62-23.12-47.08-7.42-4.51,4.58-8.32,9.72-8.43,15.39,6.17-1.5,12.28-3.94,18.51-4.31,14.68-.85,26,6.69,36.14,16.41,1.95,1.87,4.06,3.58,7.06,6.2ZM546.73,203.37c-.03-.56-.06-1.12-.08-1.68-10.27,1.32-20.54,2.63-30.81,3.95-.07-.34-.13-.68-.2-1.02,9.78-2.85,19.56-5.69,30.67-8.93h-30.5c-1.11,12.76-2.12,24.21-3.23,36.95,12.58-4.45,23.97-8.47,35.36-12.5-.17-.6-.33-1.2-.5-1.79-10.1,1.66-20.2,3.32-30.31,4.99-.1-.31-.2-.61-.31-.92,10.35-3.77,20.71-7.53,32.29-11.74-11.71-1.88-21.39,3.52-31.86,2.39,9.83-3.23,19.66-6.47,29.49-9.7ZM595.19,240.73c-.28-.63-.55-1.27-.83-1.9-7.09,2.01-14.14,4.15-21.26,6.01-15.98,4.18-24.99,15.57-28.05,30.62-2.22,10.9-.95,22.51-1.16,33.8-.01.74.58,1.5.87,2.19.66-14.66,1.34-28.8,9.59-41.9,4.81-7.63,10.28-12.8,18.51-16.29,7.81-3.31,14.91-8.29,22.32-12.53ZM663.45,151.24c11.7-.36,23.35-1.04,35-1,12.22.04,22.2,6.98,32.95,11.81-6.12-9.58-15.55-14.07-25.87-16.47-14.72-3.42-29.06-2.52-42.08,5.66ZM633.99,346.01c-15.11-4.14-29.72-8.15-44.01-12.07,1.31,8.07,32.5,17.55,44.01,12.07ZM511.82,259.78c12.46-3.52,24.62-6.1,35.15-14.42-12.14,2.2-23.58,4.26-35.15,6.36v8.06ZM548.75,228.94c-.12-.46-.24-.92-.36-1.37-1.81.1-3.65.02-5.42.32-8.65,1.46-17.29,3.02-25.93,4.53-5.42.95-6.16,2.22-4.24,8.79,12.01-4.1,23.99-8.19,35.96-12.28ZM523.69,141.48c16.28,4.28,27.38-8.11,36.22-10.31-7.53.9-20.09,2.33-32.63,3.93-4.63.59-3.78,4-3.6,6.38ZM543.91,237.21c-9.07,1.46-18.15,2.82-27.2,4.42-5.61.99-5.95,1.83-4.41,8.24,10.92-2.98,22.4-4.39,31.6-12.66ZM672.91,188.05c-.38-.39-.76-.78-1.15-1.17-5.62,2.55-6.98,8.73-9.91,13.58,3.68-4.14,7.37-8.27,11.05-12.41Z"/>
  <path d="M762.74,120.7c-4.33-.13-8.66-.34-12.99-.28-44.34.62-87.45-6.27-129.28-21.02-28.53-10.07-57-20.28-85.56-30.28-4.13-1.45-8.58-2.01-13.14-3.04-.88,3.94-1.77,6.98-2.22,10.08-2.88,19.91-5.63,39.84-8.48,59.76-3.88,27.14-8.44,54.21-11.56,81.44-4.16,36.25-.86,71.84,13.29,105.91,9.66,23.26,23.59,43.21,45.04,57.23,1.33.87,2.42,2.1,3.8,3.31-1.89,2.09-3.42,3.84-5.01,5.53-5.95,6.31-12.04,12.5-17.87,18.92-4.34,4.78-4.28,12.17.29,16.72,4.5,4.48,10.12,4.76,15.87,4.61,1.72-.05,3.43-.19,5.88-.33-4.29,7.21-8.17,13.54-11.87,19.98-2.29,3.99-5.22,7.91-6.25,12.25-2.26,9.57-5.67,18.27-12.04,25.95-4.02,4.84-3.1,9.8,1.41,14.31,4.6,4.6,10.36,5.72,16.57,5.33,2.11-.13,4.21-.38,6.71-.62-.19,1.32-.29,2.1-.42,2.87-2.14,12.75-2.77,25.61-.16,38.26,1.81,8.75,5.17,17.18,7.75,25.78,4.45,14.82,8.75,29.69,13.27,44.49,1.42,4.67,3.33,9.19,5.51,15.11-23.59-4.4-45.9-8.44-68.16-12.75-19.24-3.72-38.36-7.99-56.22-16.46-1.54-.73-3.66-1.8-4.07-3.15-3.57-11.59-6.81-23.27-10.13-34.93-.66-2.33,0-3.7,2.62-4.28,5.35-1.19,10.75-2.34,15.94-4.09,14.52-4.9,21.74-17.54,18.67-32.6-.86-4.21-2.77-8.2-3.67-12.41-.43-2.02-.39-4.84.72-6.36,3.26-4.46,3.98-8.96,2.39-14.13-.4-1.31-.71-3.4,0-4.19,4.39-4.92,3.72-10.35,2.31-16.02-.46-1.85-.46-3.81-.67-5.74,1.41-.35,2.21-.53,3.01-.74,17.44-4.49,21.61-13.28,14.64-30-5.83-13.97-11.38-28.06-16.89-42.17-.73-1.87-1.29-4.57-.49-6.15,2.88-5.69,2.41-11.3.6-16.97-2.52-7.92-5.2-15.78-7.88-23.64-1.2-3.52-1.03-5.74,3.03-7.8,8.77-4.44,13.41-12.16,14.57-21.93q1.16-9.82-7.87-13.19c-.27-.1-.45-.46-.85-.89,2.91-9.33,2.44-18.4-2.56-27.27-3.49-6.2-8.72-10.04-14.4-13.38-1.05-.42-2.06-1-2.99-1.71-1.04-.58-2.09-1.15-3.13-1.73-1.73-.95-3.55-3.22-3.81-5.08-1.01-7.43-5.1-12.57-11.08-16.41-9.51-6.11-20.16-8.38-31.31-8.86-1.4-.06-2.99-.28-4.14-.99-10.06-6.25-20.95-8.98-32.79-8.7-4.94.12-9.94-.59-14.84-1.34-7.18-1.1-14.46-1.97-21.08,1.4-4.75,2.42-9.09,2.42-13.86.91-2.05-.65-4.22-.93-6.32-1.43-12.83-3.1-25.07-1.82-35.48,6.62-4.38,3.56-8.82,5.59-14.18,6.39-7.08,1.05-13.76,4.41-17.34,9.98-5.33,8.28-12.12,8.81-20.69,8.83-14.62.03-25.4,10.4-26.87,24.85-.37,3.59-2.16,4.94-4.91,5.88-11.03,3.73-17.83,12.07-23.01,21.77-3.91,7.33-4.4,15.18-.88,22.07-3.54,3.81-7.84,7.03-10.3,11.32-10.21,17.79-10.79,36.45-2.56,55.09,1.84,4.16,1.45,6.15-2.01,8.55-1.53,1.06-2.71,2.94-3.49,4.7-3.46,7.82-1.17,18.85,4.79,25.11,4.24,4.46,8.26,9.13,12.4,13.69,2.5,2.75,3.28,5.7,2.77,9.58-2.01,15.18,2.98,27.19,16.92,34.75,1.57.85,2.99,1.97,4.73,3.13-5.94,11.17-7.28,22.76-5.35,34.74,2.32,14.44,9.24,25.16,23.34,28.74.69,2.69,1.38,5.22,2.01,7.69,3.56,7.14,2.22,15.71-.13,23.59.94.51,1.77,1.11,2.49,1.81,1.14.6,2.25,1.37,3.29,2.33.74.68,1.37,1.43,1.94,2.22,4.88-1.31,9.86-2.16,14.97-2.17,2.86,0,5.9.24,8.82.91.96.22,1.94-.28,2.35-1.17v-.02c2.91,2.53,3.79,1.3,5.55,2.2.01,0,.02.02.02.04,0,1.22.34,2.4,1.29,3.16.28.22.55.46.81.7,2.58,2.4,4.15,5.16,5.08,8.13l.29.86c.55,4.65,1.67,8.69,2.14,13.6.3,3.15-.1,6.41.55,9.47,2.15,10.19-1.97,17.84-9.23,24.35-4.83,4.33-9.67,8.66-14.65,12.82-.05.05-.11.09-.16.13-3.71,3.39-7.57,6.62-11.57,9.66h0c15.12,12.25,30.67,24.03,47.2,34.32,7.45,4.64,15.21,9.48,23.32,12.47,7.9,2.92,16.12,4.95,24.4,6.48,1.55.29,3.11.54,4.67.79-7.41-4.28-14.68-8.44-18.67-10.18,3.1-.32,5.88-1.13,8.5-.77,9.22,1.27,18.32,1.03,27.44-.72,5.28-1.02,10.58-2.06,15.94-2.36,1.24-.07,2.2-.57,4.62-1.35-21.35-12.86-44.63-18.6-65.76-29.18,20.98,7.32,41.25,16.72,62.85,22.08l1.1-2.05c-2.26-1.57-4.33-3.56-6.8-4.65-16.57-7.31-33.23-14.43-49.85-21.63-1.04-.45-2-1.08-3.97-2.16,18.16,6.17,35.23,11.99,52.33,17.74.5.17,1.22-.31,3.46-.95-11.15-8.19-22.96-12.47-34.11-18.15,9.3,2.75,18.6,5.5,28.45,8.42.64-4.47-2.05-5.45-4.56-6.54-8.61-3.75-17.23-7.47-25.71-11.83,8.99,2.15,17.98,4.3,26.97,6.45l1.03-2.34c-1.82-1.26-3.48-2.94-5.49-3.7-8.56-3.23-17.23-6.16-25.83-9.27-1.51-.55-2.89-1.47-4.06-2.83,12,3.64,24,7.28,36,10.92l.7-1.31c-2.53-1.49-4.97-3.16-7.6-4.44-10.91-5.31-21.88-10.48-32.81-15.75-1.12-.54-2.14-1.32-3.05-1.9,17.9,7.46,36.06,14.61,53.86,22.57,17.93,8.02,36.72,12.32,56.05,14.98-40.74-12.71-80.21-28.31-116.92-50.3,35.71,16.6,71.36,33.34,110.64,40.17-19.04-7.35-38.16-14.47-57.08-22.1-18.98-7.66-37.35-16.6-54.09-28.64,30.85,15.28,61.72,30.42,95.44,38.16.43-1.46.26-.89.7-2.35-36.51-13.71-72.75-27.98-104.79-50.61,34.08,18.53,68.79,35.42,107.17,43.34-35.64-15.15-72.12-28.51-104.19-50.97,33.44,17.49,67.36,33.68,104.72,41.2-35.84-13.54-70.53-29.39-103.04-49.8,33.36,15.5,65.67,33.61,102.59,40.15-37.75-14.82-74.89-30.84-108.45-54,17.35,8.57,34.53,17.49,52.09,25.62,17.45,8.08,35.22,15.47,54.6,18.03-36.75-14.39-72.21-31.31-105.51-52.61,34.21,16.7,67.45,35.74,105.56,42.83-40.92-15.62-80.21-34.34-116.14-59.63,37.92,20.04,74.65,42.82,117.82,50.53-21.22-7.75-41.79-17.01-61.71-27.63-19.93-10.63-39.51-21.91-59.25-32.9.21-.37.42-.73.63-1.1,20.27,10.52,40.48,21.14,60.81,31.52,20.43,10.43,41.14,20.13,64.6,21.53-43.15-14.28-82.88-35.3-120.38-60.76,7.92,4.35,15.72,8.92,23.78,13,21.07,10.65,41.97,21.69,63.49,31.35,11.57,5.19,23.96,9.17,37.04,9.35.96.01,1.93,0,3.12-.62-47.23-14.11-89.87-37.31-130.34-64.95,7.71,4.47,15.44,8.9,23.12,13.4,22.86,13.38,46.04,26.19,70.98,35.32,12.47,4.56,25.03,9.26,38.7,8.86,1.32-.04,2.66-.08,3.97-.25.43-.06.81-.52,1.25-.82-10.24-2.86-20.41-5.7-30.58-8.54.11-.47.23-.94.34-1.41,2.88.65,5.74,1.48,8.66,1.91,7.56,1.12,15.12,2.29,22.72,2.98,3.02.27,4.83.84,5.73,4.04,5.83,20.8,11.83,41.56,17.75,62.34.45,1.56.81,3.15,2.28,4.65v-22.95c3.3,1.12,6.33,2.18,9.38,3.18,35.53,11.61,72.14,18.19,109.13,22.68,8.03.97,13.98,2.44,15.45,11.7.76,4.8,3.05,9.37,4.5,13.62-6.35,2.76-12.54,5.45-18.68,8.11-5.07,4.24-11.37,7.37-16.62,11.45-5.91,4.58-12.22,8.69-18.71,12.48,5.62-1.98,11.15-3.98,16.44-6.99,7.22-4.11,14.03-8.91,21.22-13.08.41-.24.81-.44,1.21-.62,5.01-3.48,11.04-5.44,17.01-6.9,1.93-.47,4.77,1.19,7.84,3.79.33-.42.68-.83,1.08-1.23,1.68-1.65,3.39-3.17,5.16-4.59-11.16-26.41-24.24-57.94-29.79-80.92-.34-1.41-.62-2.83-.93-4.25l1.33-.28c7.91,29.11,18.45,57.24,29.91,85.03,2.77-2.17,5.68-4.1,8.86-5.9,4-2.27,8.64-3.99,12.22-6.89,3.81-3.09,7.16-6.77,10.64-10.25-1.08-1.25-2.1-2.55-3.09-3.87-8.34-11.15-16.64-22.34-24.95-33.51.34-.26.67-.53,1.01-.79,9.72,12.03,19.45,24.06,29.17,36.09.88-.83,1.78-1.65,2.7-2.42-13.17-14.78-32.31-39.92-34.04-47.03l4.22,5.6c.85-.6.47-.33,1.32-.92-4.18-6.45-8.35-12.9-12.79-19.75,6.1-1.4,10.9-2.5,15.7-3.61v-1.74c-19.28,4.03-32.35-4.33-41.68-20.1,6.73,9.01,15.19,15.39,27.93,17.46-4.55-7.45-14.59-7.73-17.27-16.14,3.67,1.42,6.9,2.66,10.13,3.91.37-.7.25-.47.62-1.17-2.9-2.03-5.81-4.07-7.42-5.2,0-2.57.46-4.11-.08-5.14-2.6-4.98-5.47-9.81-8.87-15.81,6.44,3.79,8.06,12.24,15.96,12.2-4.41-7.14-8.38-13.56-12.36-19.98,5.72,4.32,8.18,12.14,17.1,12.58-3.6-5.22-6.9-10.01-10.21-14.8.43-.45.34-.36.77-.81,3.77,2.32,7.53,4.63,11.3,6.95.7-.76.55-.6,1.25-1.35-1.58-2.15-3.15-4.3-4.76-6.49,2.2-.86,4.27-1.67,6.7-2.61-1.3-2.85-2.5-5.49-3.69-8.13.31-.29.62-.57.94-.86l4.36,8.49,2.66-2.26c-1.16-2.57-2.32-5.14-3.66-8.09,1.75-.24,3.38-.45,6.39-.86-1.96-1.44-2.95-2.18-3.92-2.9,2.08-1.63,4.24-3.33,7.01-5.5-2.27-.62-3.1-.84-3.92-1.07.42-.59.73-1.55,1.26-1.7,2.53-.7,5.12-1.17,8.81-1.96-3.07-1.01-5.11-1.69-8.19-2.7,2.34-1.92,4.09-3.37,7.1-5.84-4.58-.74-8.09-1.31-12.66-2.05,2.8-1.01,4.53-1.63,6.28-2.26.05-.91.06-.99.11-1.9-4.03-2.01-7.9-4.48-12.14-5.85-8.95-2.9-17.69-5.96-24.67-14.18-4.43,8.06-9.88,14.05-19.96,12.2.27,2.39.43,3.8.69,6.01-2.6.54-5.24,1.09-8.09,1.68q-8.6,19.83-13.7,19.52c7.78-8.49,8.91-19.26,12.06-29.32,1.37-4.37,4.19-8.57,7.25-12.06,4.48-5.11,9.83-9.47,14.71-14.24,4.06-3.97,8.31-4.67,13.58-2.19,10.68,5.05,21.51,9.81,32.36,14.48,5.8,2.49,11.74,4.65,17.69,6.76,1.71.61,3.68.5,5.53.72l.59-1.31c-1.16-.94-2.31-1.89-3.48-2.8-4.66-3.61-9.32-7.22-14-10.8-.51-.39-1.35-1.03-1.71-.86-4.42,2.05-7.49-1.3-10.91-2.79-8.38-3.65-16.68-7.49-24.9-11.48-5.78-2.8-10.9-2.2-15.68,2.03-.8.71-1.81,1.19-3.25,1.21,4.7-6.6,9.18-13.36,14.17-19.74,3.74-4.78,8.06-5.65,13.84-3.24,20.12,8.38,40.18,16.9,60.27,25.35,2.69,1.13,5.43,2.14,8.14,3.2.48-.77.37-.59.85-1.36-2.49-2.28-4.92-4.63-7.48-6.83-4.93-4.23-10.37-7.96-14.76-12.68-3.19-3.43-5.03-8.11-7.47-12.23l-.91-2.72.25-.54c.07-.43.21-.84.4-1.26.19-.42.48-.79.77-1.15l.27-.68c.01-.07.04-.13.06-.2.02-.18.07-.35.14-.51.57-2.74,1.14-5.5,1.82-8.8-13.39,2.71-25.25.53-35.75-8.02-4.7,11.26-16.82,9.93-24.95,15.44-5.1,4.68-2.3,1.84-7.71,6.71-1.18,1.07-.25.51-2.92,2.51-10.19,4.45-9.96,5.3-18.08,8.86-.81.35-1.54-.62-.97-1.3,10.21-12.06,18.62-25.92,33.43-33.88l14.12-11.5c6.31-4.24,12.86-3.94,20.36-1.31,7.25,2.54,14.74,4.37,22.4,4.95,6.59.5,10.38,3.06,12.5,8.36,7.37,18.39,15.25,36.59,21.85,55.25,1.68,4.75.29,11.19-1.26,16.39-4.66,15.59-10.2,30.91-15.19,46.4-5.97,18.51-11.9,37.03-17.38,55.68-.85,2.9-.1,7.02,1.42,9.74,9.21,16.45,18.72,32.73,28.28,48.97.92-1.14,1.87-2.16,3.02-3.18.55-.49,1.09-1.14,1.69-1.55,0,0,.01,0,.02-.01.04-.07.08-.14.13-.23.55-.96,1.23-1.78,1.98-2.49-.62-1.01-1.22-2.03-1.78-3.06-7.56-13.85-15.1-27.72-22.4-41.7-2.57-4.92-2.38-10.24-.56-15.52,5.65-16.34,11.21-32.72,16.83-49.07,4.97-14.46,10.12-28.86,14.9-43.38,2.44-7.42,2.59-14.88-.63-22.39-6.81-15.89-13.19-31.97-19.93-47.89-.87-2.06-.35-4.46,1.32-5.94,11.13-9.86,21.4-20.52,29.64-33,6.61-10.01,13.6-19.77,19.93-29.95,4.99-8.03,9.23-16.52,13.82-24.8,1.11-2.01,4.22-9.22,6.03-13.07.61-1.29.92-2.7.92-4.12-.06-.58-.09-1.15-.06-1.68.33-6.47.97-12.93,1.52-19.39.53-6.29.24-12.79,1.75-18.84,7.33-29.33,15.19-58.53,22.76-87.8,1.93-7.45,3.5-14.99,5.22-22.41-1.57-.54-2.03-.83-2.49-.85ZM308.51,715.2l-9.82-3.7c.14-.44.29-.88.43-1.32l9.93,3.12c-.18.63-.36,1.26-.55,1.9ZM349.24,716.05c-11.17-2.52-22.33-5.03-33.5-7.55.11-.48.22-.96.33-1.44,11.14,2.64,22.28,5.27,33.41,7.91-.08.36-.17.72-.25,1.08ZM298.72,690.25c19.02,7.02,38.04,14.04,57.07,21.05-.12.34-.25.68-.37,1.02-19.14-6.78-38.28-13.56-57.42-20.34.24-.58.49-1.15.73-1.73ZM490.27,437.78c.25.62.76,1.19.82,1.81.29,3.16,1.76,7.32.31,9.23-1.44,1.91-5.84,2.01-8.96,2.11-4.62.15-9.29-.8-13.89-.53-3.21.19-6.33,1.73-9.54,2.48-1.51.36-3.85.99-4.53.27-1.38-1.45-2.64-3.75-2.58-5.66.1-3.01,1.32-5.99,2.25-9.69-6.21,3.78-9.12,11.59-7.49,18.22,1.17,4.77,5.17,7.53,11.85,8.19.66.06,1.34.03,1.99.13,3,.45,7.62-.08,8.67,1.61,2.29,3.68,2.78,8.49,3.48,13.29-8.39-5.67-14.41,1.93-21.36,2.79-2.99.37-5.72,3.26-9.06.1-.46-.43-4.41,2.09-6.05,3.88-1.18,1.29-1.2,3.64-1.87,5.99,9.26-.92,17.91-1.91,26.58-2.54,2.37-.17,5.04.36,7.17,1.39,1.23.6,2.62,3.17,2.24,4.25-.51,1.46-2.61,3.2-4.12,3.3-2.7.18-5.48-.77-7.38-1.1-2.42,3.77-4.62,7.22-6.79,10.61.36.37.58.8.8.8,13.93.44,23.09,16.85,16.28,29.22-2.38,4.33-10.4,6.33-17.65,4.88-16.97-3.38-32.57-10.54-48.44-17.03-25.96-10.62-50.37-24.18-74.33-38.61-6.53-3.94-12.81-8.29-18.83-13.12,18.25,9.75,36.25,19.99,54.81,29.12,18.62,9.16,37.78,17.21,57.04,25.09-36.52-20.1-74.05-38.31-108.43-62.2,11.1,5.61,22.17,11.29,33.31,16.81,11.1,5.5,22.27,10.85,33.76,15.6-18.93-14.79-40.92-24.45-61.08-37.14.2-.48.41-.95.61-1.42l49.16,23.29c.34-.62.68-1.25,1.02-1.87-12.76-7.61-25.52-15.23-38.28-22.84.16-.49.32-.99.48-1.48,2.36.56,4.87.78,7.06,1.74,5.8,2.53,11.41,5.47,17.19,8.04,2.48,1.1,5.2,1.67,8.18,1.57-8.4-5.58-16.8-11.15-25.2-16.73.38-.73.75-1.45,1.13-2.18l20.02,8.84c.38-.56.76-1.12,1.14-1.68-2.77-1.9-5.54-3.8-8.3-5.71-2.82-1.95-5.64-3.91-8.46-5.87.21-.63.43-1.25.64-1.88,4.5,1.03,8.99,2.06,13.49,3.09.25-.45.51-.9.76-1.35-2.01-1.33-3.94-2.82-6.06-3.95-3.34-1.78-3.79-3.9-1.03-6.96,1.37.35,2.87.74,4.28,1.1.37-.5.76-.96.73-.99-4.22-3.99-.67-7.95-.23-12.05.81-7.41.48-14.94,1.14-22.37.27-3.07,1.65-6.12,2.91-9.01,2.52-5.74,5.78-11.21,7.85-17.09,1.64-4.67,3.65-8.54,8.25-10.62,7.69-3.48,12.68-9.9,18.37-15.78,8.29-8.58,17.83-15.67,29.11-20.45,8.43-3.58,16.22-8.67,24.86-13.4.82,1.47,2.68,4.01,3.75,6.85,5.95,15.72,12.01,31.41,17.34,47.34,1.37,4.1.04,9.06.31,13.6.28,4.71.08,9.74,1.67,14.04,5.31,14.35,11.33,28.44,17.09,42.62ZM411.58,289.17c-2.09.68-4.51.32-6.86-.23,9.94-4.5,19.05-11.05,30.75-9.59,7.01.88,12.39,4.18,17.3,9.43-.85.45-1.05.63-1.13.59-13.33-7.31-26.65-4.56-40.06-.19ZM442.22,294.59c-4.63,0-9.7-.2-14.74.06-5,.26-9.97.97-14.99,1,8.96-6.62,23.99-6.66,29.73-1.06ZM419.93,277.15c-2.22.69-4.43,1.44-6.58,2.31-6.52,2.65-12.89,2.54-19.3-.49-3.23-1.53-6.68-2.59-10.04-3.87.08-.42.17-.83.25-1.25,2.04.46,4.19.64,6.09,1.41,8.71,3.55,16.65,3.36,25.01-2,16.72-10.72,48.65-.07,52.83,17.86-4.36-3.53-8.32-7.33-12.84-10.27-11.08-7.2-23.08-7.58-35.42-3.71ZM397.11,291.02c1.22.87,2.54,1.67,3.53,2.76,8.63,9.6,19.74,12.26,32.07,11.65,2.39-.12,4.8-.02,7.19-.02.05.73.1,1.45.15,2.18-10.81,2.71-21.71,5.11-32.33-1.1-4.56-2.67-8.53-6.32-12.89-9.34-10.7-7.4-22.18-10.24-34.77-5.38-2.45.94-4.71,2.37-7.91,2.93,1.43-1.45,2.66-3.2,4.32-4.32,10.8-7.3,29.99-6.94,40.65.63ZM337.24,394.93c-19.71,5.37-28.57,3.68-46.77-14.04,2.43,1.36,4.91,2.65,7.3,4.08,15.37,9.21,35.46,10.12,50.16-6.38,3.55-3.99,7.88-7.29,12.4-10.35-4.17,12.06-10.42,23.23-23.09,26.68ZM336.56,419.08c-6.76,7.62-20.11,9.5-30.37,3.64-5.24-2.99-9.91-7.23-14.2-11.55-4.31-4.34-7.82-9.47-11.17-15.12,1.96,1.26,4.12,2.28,5.83,3.81,4.71,4.22,8.85,9.15,13.92,12.84,4.61,3.36,9.89,6.46,15.34,7.85,7.31,1.87,13.61-1.47,18.32-7.46,1.89-2.41,3.91-4.72,5.87-7.07,2.36,5.84-.48,9.61-3.53,13.05ZM291.24,375.34c10.23,3.92,20.34,8.3,31.66,7.52,11.74-.81,18.6-9.95,27.84-17.12-10.76,22.68-32.79,30.02-59.5,9.6ZM343.77,360.02c-2.31,2.83-4.75,5.62-7.45,8.06-8.89,8.04-23.16,9.14-34.87,2.14,2.9.41,4.62.61,6.33.89,11.54,1.86,23.55-3.05,28.71-13.53,5.41-10.97,14.06-13.54,25.01-13.13,7.79.29,15.59.06,23.38.06.12.53.24,1.06.36,1.59-4.01,1.11-7.96,2.48-12.03,3.26-3.74.71-7.61.77-11.42,1.15-7.29.73-13.33,3.77-18.01,9.52ZM300.4,361.74c.03-.37.06-.75.09-1.12,3.23.53,6.45,1.18,9.7,1.56,6.98.82,12.4-1.58,15.77-7.98.93-1.76,1.94-3.49,2.78-5.29,5.04-10.7,12.55-15.62,24.47-14.56,5.87.52,11.57,2.87,17.35,4.39-.15.63-.3,1.27-.45,1.9-2.56-.27-5.13-.56-7.69-.81-13.22-1.29-24.27,1.66-31.22,14.43-4.75,8.71-11.21,13.98-23.13,9.4-2.44-.94-5.1-1.29-7.67-1.92ZM378.93,331.76c-4.04-1.84-7.68-4.59-11.47-6.97-9.06-5.7-18.8-7.51-29.02-4.15-6.19,2.04-10.82,6.35-13.81,12.4.74-7.4,5.54-12.18,11.59-15.37,11.12-5.86,22.2-4.37,32.53,2.26,7.31,4.69,14.28,9.89,21.89,15.21-4.05-1.12-8.11-1.74-11.7-3.37ZM389.12,325.6c-4.8-1.43-9.39-4.27-13.46-7.31-9.96-7.46-21.01-9.94-32.98-7.7-4.37.82-8.42,3.35-12.5,5.06,5.81-8.87,14.62-11.7,24.99-11.58,11.6.13,20.9,5.53,30.06,11.92,5.24,3.66,11.26,6.22,18.01,9.86-5.33,0-10.05.96-14.12-.25ZM395.57,309.28c-4.04-3.14-8.15-6.29-12.58-8.81-7.76-4.43-15.92-3.53-24.33-.4,6.14-5.69,17.6-7.55,24.94-3.64,4.63,2.47,8.94,5.68,13.04,8.99,10.34,8.36,10.26,8.45,21.93,12.33-8.95.89-16.17-3.17-23.01-8.47ZM289.89,349.56c-.31-.25-.62-.5-.94-.75,13.93-18.43,27.85-36.87,41.78-55.3l-.75-.63c-4.95,5.9-9.83,11.86-14.85,17.71-14.6,17-29.53,33.73-43.74,51.06-5.64,6.88-9.71,15.03-14.45,22.64-.93,1.49-1.63,3.12-2.43,4.68l-.96-.35c.59-2.53.82-5.23,1.84-7.57,4.46-10.22,9.26-20.17,16.7-28.79,13.68-15.87,26.26-32.72,40.4-48.15,17.42-19.02,36.05-36.93,57.51-51.54,3.77-2.56,7.96-4.5,12.52-6.08-35.62,30.18-62.73,67.9-92.64,103.09ZM264.7,381.06c5.78-9,9.39-19.8,20.83-25.71-2.07,3.46-3.47,6.1-5.16,8.54-10.54,15.18-21.14,30.31-32.23,45.23,5.49-9.37,10.69-18.93,16.56-28.06ZM270.96,407.24c4.36,6.07,8.71,12.14,13.07,18.21-.46.34-.92.67-1.38,1.01-4.39-6.06-8.77-12.12-13.16-18.18l1.47-1.04ZM271.93,399.01c.34-.38.69-.77,1.03-1.15,3.06,2.76,6.29,5.36,9.14,8.32,4.94,5.14,9.09,11.2,14.58,15.62,10.45,8.41,22.38,11.68,35.34,5.83,7.38-3.33,12.14-9.05,13.76-17.22.56-2.81,1.7-5.51,2.81-9.01,5.44,10.76-1.59,25.89-12.99,30.07-16.85,6.18-37.8.19-48.9-13.93-4.88-6.22-9.86-12.36-14.79-18.54ZM326.65,438.96c-.08.54-.16,1.09-.24,1.63l-19.61-1.14c.03-.59.06-1.19.09-1.78,6.59.43,13.18.86,19.77,1.29ZM322.92,450.27c-7.68,2.37-14.56,1.69-21.77-2.29,7.48.79,14.36,1.51,21.77,2.29ZM481.72,314.88c-2.26,4.91-5.71,5.58-9.36,5.18-7.42-.81-10.69-6.31-13.3-12.33,5.93,6.75,12.45,11.25,22.66,7.15ZM458.15,267.26c10.04,4.76,16.22,12.23,16.32,24.13-9.31-24.65-30.69-25.11-51.57-26.63,12.01-1.89,23.88-2.9,35.25,2.5ZM432.47,240.76c6.05,2,11.37,5.39,12.36,14.51-12.67-14.05-27.76-14.01-43.48-11.98,10.02-5.73,20.54-6.04,31.13-2.53ZM431.69,251.25c-8.43.35-18.06-.72-26.84,1.53-8.92,2.28-17.01,7.82-25.47,11.93-.07-.14-.15-.29-.22-.43,5.76-4.45,11.38-9.1,17.31-13.32,9.18-6.54,26.87-5.94,35.21.29ZM388.83,236.16c-1.96,1.15-3.08,2.09-4.36,2.53-14.92,5.1-27.16,14.5-39.58,23.82-19.79,14.85-36.21,32.77-50.92,52.49-5.12,6.86-11.08,13.09-16.77,19.74,7.93-42.15,74.33-101.32,111.63-98.58ZM385.6,228.69c-13.24,4.79-26.32,9.53-39.11,14.16,9.61-10.92,31.58-18.3,39.11-14.16ZM319.19,231.64c-9.78-1.45-18.7-2.67-27.13,2.97,6-10.12,21.09-12.24,27.13-2.97ZM306.92,236.94c-6.18,6.08-12.72,1.62-19.14.52,6.29-2.9,12.81,1.28,19.14-.52ZM232.53,259.98c12.35,1.33,20.62-2.93,27.41-12.7,3.91-5.62,9.83-7.38,16.79-5.86,6.27,1.37,12.67,2.14,19.07,4.33-1.46.2-2.92.64-4.36.55-1.98-.12-3.96-.52-5.89-.98-11.51-2.79-20.76.81-28.64,9.42-5.98,6.53-13.55,9.84-22.64,9.77-8.39-.06-15.53,2.32-18.11,11.82-.91-8.84,6.62-17.4,16.36-16.35ZM287.39,255.66c-15.22.77-27.28,9.19-40.11,15.75,5.57-10.01,20.73-19.44,31.4-19.81,2.79-.1,5.62.87,8.43,1.35l.29,2.71ZM211.46,287.89c14.87,3.06,26.78-2.58,38.21-11.32,6.41-4.9,13.73-8.62,20.8-12.59,2.01-1.13,4.57-1.28,7.28-1.01-15.74,10.09-29.74,22.74-48.22,28.19.28.77.55,1.54.83,2.31,3.06-.45,6.44-.21,9.11-1.48,6.59-3.15,12.83-7,19.23-10.54,1.53-.85,3.1-1.6,4.65-2.39.36.52.73,1.05,1.09,1.57-5.77,4.21-11.48,8.49-17.32,12.6-5.63,3.96-11.71,4.48-18.37,2.66-8.78-2.4-17.72-4.23-26.6-6.3-.08-.34-.16-.67-.23-1.01,3.19-.27,6.53-1.31,9.53-.69ZM202.59,376.34c-8.76-16.3,7.4-42.14,26.42-43.29-6.58,6.05-13.6,11.42-19.22,17.99-5.87,6.86-7.59,15.7-7.2,25.29ZM186.32,369.19c-9.16-15.12,4.75-45.58,25.6-45.58-18.3,10.08-29.07,23.77-25.6,45.58ZM219.19,327.82c-13.39,7.97-23.24,18.54-25.92,35.31-5.06-14.24,8.6-32.5,25.92-35.31ZM206.64,317.11c.04-.46.08-.91.12-1.37,5.03.79,10.04,1.89,15.11,2.27,5.26.39,10.57.09,15.85.09.05.54.1,1.08.15,1.62-10.66,2.58-20.9-.72-31.23-2.61ZM204.64,306.74c2.83.18,5.76-.05,8.47.6,12.82,3.06,23.18,1.01,36.54-6.9-4.68,13.35-23.82,16.26-45.02,6.31ZM206.09,297.57c.09-.4.18-.8.27-1.19.8.08,1.61.08,2.39.24,7.21,1.48,14.42,2.98,21.63,4.48-.1.5-.2,1-.29,1.5-8-1.67-16-3.35-24-5.02ZM201.35,320.18c-21.2,14.08-29.92,32.52-21.69,57.3-12.94-22.09-.31-55.82,21.69-57.3ZM166.89,361.01c2.11,18.38,8.85,34.42,23.08,48.58-2.47-.76-5.41-.76-6.1-2-7.46-13.53-17.24-26.19-17.17-42.75,0-1.27.12-2.55.19-3.82ZM189.01,417.06c-9.07.94-18.78-4.69-20.08-11.15,6.89,3.83,13.49,7.49,20.08,11.15ZM169.64,417.79c6.59,2.23,12.3,4.15,18.96,6.4-6.21,1.77-14.62-1.13-18.96-6.4ZM190.78,469.49c-.74-2.98-2.39-6.06-2.05-8.91,1.31-10.85,2.52-21.81,5.12-32.39,5.25-21.35,12.18-42.21,22.77-61.59,3.4-6.23,7.88-11.88,11.84-17.8,5.46-8.15,11.21-16.12,16.29-24.49,15.05-24.82,30.47-49.36,52.4-68.88,12.75-11.34,27-20.5,42.77-27.2,7.34-3.12,14.72-4.03,23.17-1.06-25.5,11.39-42.75,31.89-61.39,50.93,3.42-11.45,11.46-20.46,16.92-30.82l-1.27-1.02c-3.94,4.43-8.78,8.35-11.64,13.39-7.2,12.72-13.52,25.94-20.17,38.98-6.05,11.87-12.45,23.57-17.99,35.67-7.48,16.32-14.71,32.78-21.3,49.48-7.81,19.8-14.96,39.87-22.12,59.92-2.94,8.24-5.13,16.74-7.7,25.11-.26.86-.75,1.66-1.14,2.48-.48-.12-.96-.23-1.44-.35.79-4.6,1.01-9.4,2.48-13.78,5.97-17.8,12.17-35.53,18.57-53.18,6.12-16.89,12.55-33.67,18.91-50.47,2.5-6.59,5.18-13.12,7.78-19.67l-1.49-1.15-5.65,6.55c-.19.27-.38.54-.58.81-3.75,6.45-7.48,12.91-11.27,19.34-3.42,5.81-6.91,11.59-11.22,17.11,4.12-14.06,8.24-28.12,12.54-42.8-33.13,39.5-50.41,84.44-53.18,135.79ZM205.08,481.82c-1.08-2.52-2.32-4.17-2.42-5.89-.29-5.3-.93-10.76-.02-15.91,3.73-21.06,7.98-42.03,12.08-63.03.2-1.04.8-2.01,1.22-3.01.19.05.38.11.56.16-2.88,14.3-6.52,28.5-8.43,42.93-1.88,14.3-2.01,28.83-3,44.74ZM206.09,526.52c3.17,4.57,6.93,9.98,10.07,14.5-5.19-1.47-9.66-7.72-10.07-14.5ZM208.35,512.44c-.64.39-1.22.76-1.83,1.14-1.98-7.29,5.74-25.51,13.37-30.01-12.69,16.78-13.61,33.42-2.65,50.65-6.75-5.87-8.51-13.49-8.88-21.78ZM218.74,513.9c-1.78-14.13.81-26.94,12.06-37.07,4.95-4.45,9.17-9.73,13.67-14.57-.43,7.54-5.39,12.85-11.24,17.35-9.25,7.12-12.42,16.78-12.81,27.9-.34,9.68,4.56,16.68,11.85,23.1-6.51-2.3-12.61-9.47-13.53-16.71ZM231.51,571.71l-3.03-17.99c.64-.11,1.29-.23,1.93-.34,1.15,5.97,2.3,11.94,3.45,17.91-.78.14-1.57.28-2.35.42ZM234.13,488.37c5.93-6.83,12.06-13.49,18.65-20.21-1.14,2.53-1.9,5.33-3.5,7.53-2.32,3.2-5,6.23-7.96,8.85-13.23,11.73-15.21,24.01-6.1,39.37.25.42.38.9.99,2.33-14.64-10.69-10.12-28.6-2.07-37.87ZM243.08,516.51c2.06,3.48,5.26,6.3,8.11,9.6-14.43-3.62-18.19-25.52-7.9-34.8,4.39-3.96,9.02-7.66,13.54-11.48.33.34.67.68,1,1.02-3.33,3.22-6.69,6.42-10,9.67-7.41,7.27-9.57,17.85-4.75,25.98ZM236.81,581.02c6.9-6.19,2.37-13.42,2.36-20.21,0-3.89-.46-7.78-.72-11.66.49-.04.97-.08,1.46-.12,1.01,9.57,2.03,19.14,3.06,28.89,4.78-3.16,6.23-7.55,5.52-13.17-.62-4.92-.84-9.92-.84-14.88,0-2.16,1.02-4.31,1.7-6.95.75,7.28.81,13.94,2.25,20.29,2.33,10.27-3.6,18.15-14.79,17.81ZM254.16,518.49c-10.34-6.42-8.61-21.6,1.63-26.06-7.7,7.86-7.38,16.4-1.63,26.06ZM258.75,540.85c.74,9,1.48,18.05,2.19,26.7-4.38-8.27-6.93-17.23-2.19-26.7ZM252.21,676.25l-1.3-.49c.76-1.46,1.23-3.21,2.33-4.32,6.93-6.95,13.98-13.79,21.04-20.61,4.94-4.78,6.51-10.54,5.75-17.28-1.42-12.56-2.6-25.15-3.87-37.72-.18-1.78-.29-3.56-.43-5.34.6-.06,1.2-.12,1.8-.18,1.74,16.81,3.75,33.6,5,50.44.24,3.19-1.7,7.36-4,9.77-8.46,8.88-17.5,17.21-26.32,25.75ZM292.17,697.8c-.13.41-.27.81-.4,1.22-6.24-2.16-12.48-4.33-18.71-6.49.1-.3.2-.6.29-.9l18.82,6.17ZM272.57,478.06c-9.44-9.75-17.65-20.42-20.52-34.15-1.04-4.96-1.8-10.05,2.68-14.68-1.51,16.4,5.39,33.74,15.53,38.3-3.54-8.88-10.13-16.07-9.41-26.04,1.56,3.18,3.17,6.33,4.68,9.54,2.44,5.18,6.27,8.9,11.37,11.44,7.71,3.85,9.97,3.3,15.06-5.06,1.96,7.15,4.15,13.21,5.18,19.46.79,4.79-1.72,6.92-6.67,7.25-6.8.46-13.17-1.19-17.89-6.07ZM326.83,530.66l-36.55-22.47c.23-.38.46-.75.69-1.13,12.18,7.5,24.36,14.99,36.54,22.49-.23.37-.46.74-.68,1.11ZM316.54,496c43.92,27.11,49,29.58,100.09,48.84-20.31.46-93.69-37.73-100.09-48.84ZM363.68,516.58c-15.66-8.4-30.81-17.73-46.15-26.71-1.61-.94-2.98-2.29-4.15-3.21,22.38,11.61,44.82,23.74,67.7,34.98,22.98,11.29,46.54,21.23,72.21,25.44-6.29-.8-12.68-1.18-18.87-2.47-25.17-5.24-48.28-15.97-70.74-28.02ZM565.35,531.28c.86,15.74,4.17,30.16,20.2,37.77-14.61-1.75-23.49-20.96-20.2-37.77ZM614.99,402.56h8.86c-.5,2.43-.92,4.46-1.58,7.6-3.03-2.3-5.4-4.1-7.78-5.9l.49-1.69ZM573.22,361.21c-2.02-.67-4.53-.8-5.97-2.11-5.45-4.96-10.56-10.29-15.79-15.49.4-.35.8-.7,1.21-1.05,6.61,6.23,5.49,15.38,15.27,17.75l5.29.9ZM745.73,155.53c-4.06,15.41-8.05,30.84-12.11,46.25-.19.74-.77,1.37-1.17,2.06l.12-.15c-2,7.49-4.55,14.89-5.86,22.5-1.87,10.89-2.83,21.94-4.2,33.08-.16-.12-.81-.59-1.01-.74.3,3.83.64,8.12.99,12.42-.46.08-.93.16-1.39.24-1.72-2.15-3.43-4.3-6.12-7.66,1.84,7.4,5.75,13.2,2.54,19.4-2.43-3.86-4.91-7.8-7.39-11.73-.27,7.23,5.08,13.26,2.75,21.41-3.56-5.23-6.65-9.77-10.46-15.37.18,9.05,8.71,14.8,5.67,23.08-3.35-4.54-6.56-8.88-10.27-13.9,1.79,7.25,3.29,13.38,4.8,19.5l-2,.56c-1.38-3.54-2.76-7.08-4.13-10.62.34,13.94-9.12,23.4-15.41,34.22,1.56-3.82,3.06-7.66,4.69-11.44,10.38-24.2-5.01-47.75-22.27-54.29.7,2.11.93,3.81,1.78,5.11,1.53,2.36,3.39,4.51,5.18,6.7,9.71,11.83,12.24,25.47,9.95,40.23-1.38,8.87-2.6,17.89-8.3,25.28-2.39,3.1-5.42,5.71-8.06,8.39.07-.01.14-.03.21-.04-4.41,8.12-14.2,14.23-21.07,13.02-1.91-.34-3.74-1.17-5.36-2.43-7.36,3.15-14.45-.88-21.81-2.25-4.94-.91-10.05-1.26-15.09-1.26-3.94,0-7.97.57-11.79,1.56-9.69,2.51-16.66-2.12-22.89-8.42-3.67-3.71-6.77-7.98-10.12-11.99l1.3-1.3c2.46,2.23,4.91,4.46,7.38,6.68,4.65,4.17,9.22,8.42,14.03,12.39.88.72,2.72.26,4.06-.18-11.51-6.46-18.69-16.33-24.88-27.13-.58-1.01-1.07-2.07-1.63-3.09-2.06-3.78-4.64-5.16-9.05-.39-2.74-10.17-5.35-19.21-7.52-28.36-.63-2.66-1.55-3.91-4.19-3.57-5.38.69-10.75,1.46-16.13,2.2-.46,1.23-1.52,2.65-1.21,3.63,2.79,8.86,5.64,17.72,8.86,26.44,5.77,15.56,17.34,27.01,28.23,38.91.67.73,1.35,1.45,1.5,2.93-1.39-1.07-2.87-2.05-4.17-3.23-24.73-22.54-35.52-52-40.89-83.9-2.73-16.24-4.12-32.69-2.21-49.18,2.29-19.71,4.6-39.42,7.26-59.09,3.03-22.47,6.41-44.89,9.72-67.32,1.21-8.2,2.64-16.36,4.08-25.19,1.39,1.01,2.26,1.65,3.13,2.28.56.23,1.12.46,1.69.69,24.16,7.91,48.54,15.19,72.4,23.92,20.18,7.38,40.54,13.72,61.52,18.35,25.73,5.67,51.81,6.04,77.93,6.55,1.47.03,2.94,0,4.99,0-2.27,8.35-4.47,16.28-6.57,24.25ZM535.73,304.99c-.22-.91-.29-1.96-.79-2.7-2.42-3.57-.45-4.8,3.31-5.92-2.99,9.42,1.83,17.35,3.3,25.77-.51.14-1.02.28-1.53.42-1.43-5.86-2.86-11.72-4.3-17.58ZM538.68,336.9c-3.54-3.4-8.97-18.05-9.71-27.57,3.42,9.7,6.68,18.96,9.71,27.57Z"/>
  <path d="M618.48,204.15c3.03-11.49,4.55-22.53.05-33.92-2.78-7.04-7.5-12.15-13.61-16.1-8.5-5.49-17.81-9.05-27.93-10.14-9.04-.97-17.03.79-24.96,6.22-6.18,4.24-14.26,5.74-21.54,8.33-1.81.65-3.79.82-5.6,1.67,7.48,1.23,14.43-.54,21.24-3.76-4.07,8.98-12.23,10.49-21.69,11.57,7.17,2.42,12.7.81,18.05-2.63-2.22,9.31-11.49,7.57-17.28,11.33,5.13.56,10.03,1.09,14.93,1.62.16.33.32.66.48.99-2.28,1.02-4.51,2.23-6.87,3.01-2.62.86-5.37,1.33-8.07,1.97.02.43.04.87.07,1.3,1.65,0,3.37-.29,4.93.09,1.33.32,2.49,1.4,3.72,2.15-.97,1.22-1.73,3.21-2.93,3.52-4.94,1.27-10.02,2.02-15.96,3.14,2.17-14.09,4.25-27.63,6.4-41.61,7.35-1.2,15.37-.85,22.36-4.94-7.21,1.34-14.43,2.68-21.72,4.04-.4-8.17-.41-8.37,6.88-8.59,5.85-.18,11.72.35,17.58.25,1.52-.02,3.04-1.16,4.53-1.84,20.52-9.4,40.52-9.85,59.63,3.62,14.95,10.54,18.85,33.08,12.99,47.1-1.65,3.96-3.77,7.73-5.68,11.59Z"/>
  <path d="M613.75,208.56c-2.02-2.26-3.4-3.56-4.48-5.07-4.24-5.91-10.04-9.59-16.76-12.04-16.65-6.08-33.43-6.5-50.36-1.22-1.38.43-2.83.59-4.94,1.02.53-1.43.58-2.53,1.16-3,9.24-7.54,17.48-16.41,28.83-21.14,14.31-5.96,27.88-2.55,37.39,9.63,6.25,8.01,9.41,17.14,9.81,27.25.04,1.07-.29,2.15-.65,4.56Z"/>
  <text class="cls-8" transform="translate(284.55 75.78) rotate(159.28)"><tspan x="0" y="0"> </tspan></text>
  <text class="cls-8" transform="translate(271.39 80.76) rotate(157.04)"><tspan x="0" y="0"> </tspan></text>
  <text class="cls-8" transform="translate(258.4 86.28) rotate(154.79)"><tspan x="0" y="0"> </tspan></text>
  <text class="cls-8" transform="translate(245.66 92.28) rotate(152.55)"><tspan x="0" y="0"> </tspan></text>
  <text class="cls-8" transform="translate(233.14 98.8) rotate(150.3)"><tspan x="0" y="0"> </tspan></text>
  <text class="cls-8" transform="translate(220.92 105.78) rotate(148.07)"><tspan x="0" y="0"> </tspan></text>
  <text class="cls-8" transform="translate(208.96 113.23) rotate(145.84)"><tspan x="0" y="0"> </tspan></text>
  <text class="cls-8" transform="translate(197.27 121.18) rotate(143.6)"><tspan x="0" y="0"> </tspan></text>
  <text class="cls-8" transform="translate(185.97 129.52) rotate(141.39)"><tspan x="0" y="0"> </tspan></text>
  <text class="cls-8" transform="translate(174.95 138.33) rotate(139.16)"><tspan x="0" y="0"> </tspan></text>
  <text class="cls-8" transform="translate(164.3 147.55) rotate(136.94)"><tspan x="0" y="0"> </tspan></text>
  <text class="cls-8" transform="translate(154.01 157.18) rotate(134.72)"><tspan x="0" y="0"> </tspan></text>
  <text class="cls-8" transform="translate(144.1 167.2) rotate(132.5)"><tspan x="0" y="0"> </tspan></text>
  <text class="cls-8" transform="translate(134.58 177.6) rotate(130.28)"><tspan x="0" y="0"> </tspan></text>
  <text class="cls-8" transform="translate(125.47 188.36) rotate(128.05)"><tspan x="0" y="0"> </tspan></text>
  <text class="cls-8" transform="translate(116.82 199.43) rotate(125.84)"><tspan x="0" y="0"> </tspan></text>
  <text class="cls-8" transform="translate(108.55 210.89) rotate(123.6)"><tspan x="0" y="0"> </tspan></text>
  <text class="cls-8" transform="translate(100.76 222.62) rotate(121.37)"><tspan x="0" y="0"> </tspan></text>
  <text class="cls-8" transform="translate(93.42 234.68) rotate(119.13)"><tspan x="0" y="0"> </tspan></text>
  <text class="cls-8" transform="translate(86.58 246.97) rotate(116.9)"><tspan x="0" y="0"> </tspan></text>
  <text class="cls-8" transform="translate(80.2 259.56) rotate(114.65)"><tspan x="0" y="0"> </tspan></text>
  <text class="cls-8" transform="translate(74.34 272.36) rotate(112.41)"><tspan x="0" y="0"> </tspan></text>
  <text class="cls-8" transform="translate(68.97 285.39) rotate(110.16)"><tspan x="0" y="0"> </tspan></text>
  <text class="cls-8" transform="translate(64.13 298.61) rotate(107.91)"><tspan x="0" y="0"> </tspan></text>
  <text class="cls-8" transform="translate(59.8 312.04) rotate(105.66)"><tspan x="0" y="0"> </tspan></text>
  <text class="cls-8" transform="translate(56 325.62) rotate(103.41)"><tspan x="0" y="0"> </tspan></text>
  <text class="cls-8" transform="translate(52.73 339.34) rotate(101.16)"><tspan x="0" y="0"> </tspan></text>
  <text class="cls-8" transform="translate(50.02 353.16) rotate(98.91)"><tspan x="0" y="0"> </tspan></text>
  <text class="cls-8" transform="translate(47.84 367.09) rotate(96.68)"><tspan x="0" y="0"> </tspan></text>
  <text class="cls-8" transform="translate(46.21 381.09) rotate(94.45)"><tspan x="0" y="0"> </tspan></text>
  <text class="cls-8" transform="translate(45.13 395.13) rotate(92.24)"><tspan x="0" y="0"> </tspan></text>
  <text class="cls-8" transform="translate(44.64 409.12) rotate(90.52)"><tspan x="0" y="0"> </tspan></text>
  <text class="cls-8" transform="translate(44.58 423.31) rotate(87.85)"><tspan x="0" y="0"> </tspan></text>
  <text class="cls-8" transform="translate(45.12 437.36) rotate(85.64)"><tspan x="0" y="0"> </tspan></text>
  <text class="cls-8" transform="translate(46.2 451.41) rotate(83.42)"><tspan x="0" y="0"> </tspan></text>
  <text class="cls-8" transform="translate(47.82 465.42) rotate(81.19)"><tspan x="0" y="0"> </tspan></text>
  <text class="cls-7" transform="translate(49.9 479.51) rotate(78.19)"><tspan x="0" y="0">Θ</tspan></text>
  <text class="cls-7" transform="translate(54.78 502.53) rotate(74.65)"><tspan x="0" y="0">Ε</tspan></text>
  <text class="cls-7" transform="translate(60.3 522.66) rotate(71.18)"><tspan x="0" y="0">Α</tspan></text>
  <text class="cls-7" transform="translate(67.56 543.98) rotate(67.49)"><tspan x="0" y="0">Τ</tspan></text>
  <text class="cls-7" transform="translate(76.74 565.93) rotate(64.01)"><tspan x="0" y="0">Ρ</tspan></text>
  <text class="cls-7" transform="translate(85.47 583.55) rotate(61.75)"><tspan x="0" y="0">Ι</tspan></text>
  <text class="cls-7" transform="translate(89.46 591.31) rotate(59.18)"><tspan x="0" y="0">Κ</tspan></text>
  <text class="cls-7" transform="translate(101.72 611.79) rotate(55.47)"><tspan x="0" y="0">Η</tspan></text>
  <text class="cls-7" transform="translate(114.75 630.51) rotate(52.55)"><tspan x="0" y="0"> </tspan></text>
  <text class="cls-7" transform="translate(123.32 641.88) rotate(49.55)"><tspan x="0" y="0">Ο</tspan></text>
  <text class="cls-7" transform="translate(138.85 660.19) rotate(45.36)"><tspan x="0" y="0">Μ</tspan></text>
  <text class="cls-7" transform="translate(159.43 680.83) rotate(41.28)"><tspan x="0" y="0">Α</tspan></text>
  <text class="cls-7" transform="translate(176.36 695.67) rotate(37.73)"><tspan x="0" y="0">Δ</tspan></text>
  <text class="cls-7" transform="translate(194.18 709.43) rotate(34.18)"><tspan x="0" y="0">Α</tspan></text>
  <text class="cls-7" transform="translate(212.76 721.91) rotate(31.28)"><tspan x="0" y="0"> </tspan></text>
  <text class="cls-7" transform="translate(224.88 729.4) rotate(28.27)"><tspan x="0" y="0">Ο</tspan></text>
  <text class="cls-7" transform="translate(245.82 740.45) rotate(25.69)"><tspan x="0" y="0">Ι</tspan></text>
  <text class="cls-7" transform="translate(253.63 744.38) rotate(23.11)"><tspan x="0" y="0">Κ</tspan></text>
  <text class="cls-7" transform="translate(275.56 753.72) rotate(19.3)"><tspan x="0" y="0">Ο</tspan></text>
  <text class="cls-7" transform="translate(298.18 761.65) rotate(15.32)"><tspan x="0" y="0">Ν</tspan></text>
  <text class="cls-7" transform="translate(323.16 768.43) rotate(11.35)"><tspan x="0" y="0">Ο</tspan></text>
  <text class="cls-7" transform="translate(346.66 773.22) rotate(7.12)"><tspan x="0" y="0">Μ</tspan></text>
  <text class="cls-7" transform="translate(375.38 776.53) rotate(4.15)"><tspan x="0" y="0">Ι</tspan></text>
  <text class="cls-7" transform="translate(384.09 777.31) rotate(1.6)"><tspan x="0" y="0">Κ</tspan></text>
  <text class="cls-7" transform="translate(407.91 777.96) rotate(-2.11)"><tspan x="0" y="0">Ο</tspan></text>
  <text class="cls-7" transform="translate(431.79 777.01) rotate(-5.63)"><tspan x="0" y="0">Υ</tspan></text>
  <text class="cls-7" transform="translate(452.47 774.88) rotate(-8.4)"><tspan x="0" y="0"> </tspan></text>
  <text class="cls-7" transform="translate(466.63 772.96) rotate(-11.7)"><tspan x="0" y="0">Π</tspan></text>
  <text class="cls-7" transform="translate(493.49 767.29) rotate(-15.7)"><tspan x="0" y="0">Α</tspan></text>
  <text class="cls-7" transform="translate(515.21 761.21) rotate(-19.56)"><tspan x="0" y="0">Ν</tspan></text>
  <text class="cls-7" transform="translate(539.53 752.46) rotate(-23.29)"><tspan x="0" y="0">Ε</tspan></text>
  <text class="cls-7" transform="translate(558.78 744.27) rotate(-27.14)"><tspan x="0" y="0">Π</tspan></text>
  <text class="cls-7" transform="translate(582.9 731.63) rotate(-30)"><tspan x="0" y="0">Ι</tspan></text>
  <text class="cls-7" transform="translate(590.45 727.4) rotate(-32.31)"><tspan x="0" y="0">Σ</tspan></text>
  <text class="cls-7" transform="translate(607.96 716.36) rotate(-35.83)"><tspan x="0" y="0">Τ</tspan></text>
  <text class="cls-7" transform="translate(627.27 702.37) rotate(-39.52)"><tspan x="0" y="0">Η</tspan></text>
  <text class="cls-7" transform="translate(645.1 687.77) rotate(-43.64)"><tspan x="0" y="0">Μ</tspan></text>
  <text class="cls-7" transform="translate(665.85 667.61) rotate(-46.61)"><tspan x="0" y="0">Ι</tspan></text>
  <text class="cls-7" transform="translate(671.95 661.37) rotate(-49.16)"><tspan x="0" y="0">Ο</tspan></text>
  <text class="cls-7" transform="translate(687.52 643.27) rotate(-52.7)"><tspan x="0" y="0">Υ</tspan></text>
  <text class="cls-7" transform="translate(700.04 626.68) rotate(-55.46)"><tspan x="0" y="0"> </tspan></text>
  <text class="cls-7" transform="translate(708.17 615.03) rotate(-58.35)"><tspan x="0" y="0">Α</tspan></text>
  <text class="cls-7" transform="translate(719.99 595.84) rotate(-62.01)"><tspan x="0" y="0">Θ</tspan></text>
  <text class="cls-7" transform="translate(731.03 574.99) rotate(-65.71)"><tspan x="0" y="0">Η</tspan></text>
  <text class="cls-7" transform="translate(740.51 554.06) rotate(-69.6)"><tspan x="0" y="0">Ν</tspan></text>
  <text class="cls-7" transform="translate(749.47 529.79) rotate(-73.59)"><tspan x="0" y="0">Ω</tspan></text>
  <text class="cls-7" transform="translate(756.26 506.76) rotate(-77.57)"><tspan x="0" y="0">Ν</tspan></text>
  <path class="cls-5" d="M530.8,80.25c9.69,3.45,18.93,6.75,27.53,9.81-4.87.61-19.67-4.39-27.53-9.81Z"/>
  <path class="cls-5" d="M521.56,299.77s-5.73,1.96-2.26,10.21,21.91,42.36,39.37,49.6c0,0-29.88-40.55-37.11-59.81Z"/>
  <path class="cls-5" d="M526.37,319.36s-1.5.82-.07,4.82c1.43,4,8.5,20.61,13.82,24.42,0,0-10.65-19.92-13.74-29.24Z"/>
  <path class="cls-5" d="M528.38,295.08s-5.75,1.89-2.39,10.18c3.36,8.29,21.35,42.64,38.72,50.11,0,0-29.34-40.93-36.33-60.29Z"/>
  <path class="cls-5" d="M536.3,296.42s-5.73,1.96-2.26,10.21c3.47,8.25,21.91,42.36,39.37,49.6,0,0-29.88-40.55-37.11-59.81Z"/>
  <path class="cls-5" d="M535.41,293.54s-5.73,1.96-2.26,10.21,21.91,42.36,39.37,49.6c0,0-29.88-40.55-37.11-59.81Z"/>
  <path class="cls-5" d="M518,299.27s10.86-4.06,14.37,9.95-4.72,16.2-7.22,14.46l-7.14-24.41Z"/>
  <path class="cls-5" d="M524.43,298.23s10.86-4.06,14.37,9.95-4.72,16.2-7.22,14.46l-7.14-24.41Z"/>
  <path class="cls-5" d="M546,318.36s-10.9,3.97-14.28-10.08,4.85-16.16,7.35-14.4l6.94,24.47Z"/>
  <path class="cls-5" d="M547.09,321.76s10.86-4.06,14.37,9.95-4.72,16.2-7.22,14.46l-7.14-24.41Z"/>
  <path class="cls-5" d="M586.69,354.67s-10.94,7.28-21.62-6.2c-10.67-13.47-1.98-18.06,1.8-16.98l19.82,23.18Z"/>
  <path class="cls-5" d="M544.02,335.82s-9.44,6.74-16.46-5.88.35-16.87,3.23-15.84l13.23,21.72Z"/>
  <path class="cls-5" d="M538.16,291.49s3.19,9.18-8.58,11.19c-11.77,2.02-13.44-4.87-11.95-6.83l20.53-4.36Z"/>
  <path d="M526.26,319.59c-.87-.57-2.18-.66-2.41-1.42-1.76-5.96-3.32-11.98-5.04-18.43-.19-.71-.91-2.32-.19-2.48,6.94-1.55,13.92-4.16,20.63-6.73-5.64,6.56-12.28,8.52-18.42,13.04,6.2-.84,11.28-3.98,17.76-4.43-5.29,3.33-10.58,6.65-15.87,9.98.22-.08.37.23.17.35,4.38-1.53,8.76-3.07,13.2-4.62-2.03,6.43-7.63,6.4-12.13,10.09,4.85-1.61,8.69-1.9,12.74-3.17.52-.15.52-.17,1.03-.27-.82.93-3.38,2.8-4.37,3.34-3.22,1.77-3.93,2.53-6.87,4.63,0,0-.23.11-.23.11Z"/>
  <path d="M517.98,296.37c-1.19-1.04-1.68-2.89-1.85-4.09-1.47-9.93-2.6-19.91-3.93-30.69,10.9-2.51,21.59-4.98,32.88-7.58-8.46,9.14-20.15,11.04-30.41,15.71,9.35-.96,18.1-5.33,27.6-2.92-8.61,3.86-17.21,7.73-25.82,11.59.02.21.04.41.06.62,6.9-1.38,13.8-2.76,20.8-4.17-2.28,10.42-12.8,8-20.34,12.61,7.62-1.39,13.91-2.54,20.21-3.69.4.48.79.95,1.19,1.43-1.2,1.5-2.11,3.65-3.67,4.37-4.96,2.28-10.17,4.02-15.28,5.96,0,0-1.45.85-1.45.85Z"/>
</svg>